SourceSans_Semibold.ufo
<glyph name="numbersign" format="2">
	<unicode hex="0023"/>
	<advance width="513"/>
	<outline>
		<contour>
			<point x="84" y="0" type="line"/>
			<point x="164" y="0" type="line"/>
			<point x="188" y="190" type="line"/>
			<point x="293" y="190" type="line"/>
			<point x="270" y="0" type="line"/>
			<point x="350" y="0" type="line"/>
			<point x="373" y="190" type="line"/>
			<point x="466" y="190" type="line"/>
			<point x="466" y="276" type="line"/>
			<point x="382" y="276" type="line"/>
			<point x="398" y="396" type="line"/>
			<point x="486" y="396" type="line"/>
			<point x="486" y="482" type="line"/>
			<point x="407" y="482" type="line"/>
			<point x="430" y="650" type="line"/>
			<point x="350" y="650" type="line"/>
			<point x="327" y="482" type="line"/>
			<point x="222" y="482" type="line"/>
			<point x="244" y="650" type="line"/>
			<point x="164" y="650" type="line"/>
			<point x="142" y="482" type="line"/>
			<point x="52" y="482" type="line"/>
			<point x="52" y="396" type="line"/>
			<point x="132" y="396" type="line"/>
			<point x="116" y="276" type="line"/>
			<point x="32" y="276" type="line"/>
			<point x="32" y="190" type="line"/>
			<point x="108" y="190" type="line"/>
		</contour>
		<contour>
			<point x="196" y="276" type="line"/>
			<point x="212" y="396" type="line"/>
			<point x="318" y="396" type="line"/>
			<point x="302" y="276" type="line"/>
		</contour>
	</outline>
</glyph>
<glyph name="A" format="2">
	<unicode hex="0041"/>
	<advance width="558"/>
	<outline>
		<contour>
			<point x="-2" y="0" type="line"/>
			<point x="116" y="0" type="line"/>
			<point x="217" y="348" type="line" smooth="yes"/>
			<point x="238" y="417"/>
			<point x="257" y="491"/>
			<point x="275" y="564" type="curve"/>
			<point x="279" y="564" type="line"/>
			<point x="298" y="492"/>
			<point x="317" y="417"/>
			<point x="338" y="348" type="curve" smooth="yes"/>
			<point x="438" y="0" type="line"/>
			<point x="560" y="0" type="line"/>
			<point x="347" y="654" type="line"/>
			<point x="211" y="654" type="line"/>
		</contour>
		<contour>
			<point x="124" y="177" type="line"/>
			<point x="432" y="177" type="line"/>
			<point x="432" y="268" type="line"/>
			<point x="124" y="268" type="line"/>
		</contour>
	</outline>
	<anchor name="aboveUC" x="278" y="676"/>
	<anchor name="belowLC" x="278" y="-22"/>
	<anchor name="ogonekUC" x="487" y="0"/>
</glyph>
<glyph name="I" format="2">
	<unicode hex="0049"/>
	<advance width="282"/>
	<outline>
		<contour>
			<point x="83" y="0" type="line"/>
			<point x="199" y="0" type="line"/>
			<point x="199" y="654" type="line"/>
			<point x="83" y="654" type="line"/>
		</contour>
	</outline>
	<anchor name="aboveUC" x="142" y="676"/>
	<anchor name="belowLC" x="142" y="-22"/>
	<anchor name="ogonekUC" x="140" y="0"/>
</glyph>
<glyph name="U" format="2">
	<unicode hex="0055"/>
	<advance width="655"/>
	<outline>
		<contour>
			<point x="328" y="-12" type="curve" smooth="yes"/>
			<point x="480" y="-12"/>
			<point x="575" y="70"/>
			<point x="575" y="281" type="curve" smooth="yes"/>
			<point x="575" y="654" type="line"/>
			<point x="464" y="654" type="line"/>
			<point x="464" y="272" type="line" smooth="yes"/>
			<point x="464" y="134"/>
			<point x="408" y="89"/>
			<point x="328" y="89" type="curve" smooth="yes"/>
			<point x="249" y="89"/>
			<point x="196" y="134"/>
			<point x="196" y="272" type="curve" smooth="yes"/>
			<point x="196" y="654" type="line"/>
			<point x="80" y="654" type="line"/>
			<point x="80" y="281" type="line" smooth="yes"/>
			<point x="80" y="70"/>
			<point x="177" y="-12"/>
		</contour>
	</outline>
	<anchor name="aboveUC" x="327" y="676"/>
	<anchor name="belowLC" x="327" y="-22"/>
	<anchor name="hornLC" x="535" y="665"/>
	<anchor name="ogonekUC" x="327" y="0"/>
</glyph>
<glyph name="W" format="2">
	<unicode hex="0057"/>
	<advance width="804"/>
	<outline>
		<contour>
			<point x="148" y="0" type="line"/>
			<point x="302" y="0" type="line"/>
			<point x="374" y="344" type="line" smooth="yes"/>
			<point x="385" y="396"/>
			<point x="392" y="442"/>
			<point x="400" y="502" type="curve"/>
			<point x="404" y="502" type="line"/>
			<point x="412" y="442"/>
			<point x="418" y="396"/>
			<point x="430" y="344" type="curve" smooth="yes"/>
			<point x="506" y="0" type="line"/>
			<point x="660" y="0" type="line"/>
			<point x="786" y="654" type="line"/>
			<point x="668" y="654" type="line"/>
			<point x="612" y="324" type="line"/>
			<point x="602" y="255"/>
			<point x="592" y="186"/>
			<point x="584" y="110" type="curve"/>
			<point x="580" y="110" type="line"/>
			<point x="568" y="186"/>
			<point x="553" y="256"/>
			<point x="538" y="324" type="curve"/>
			<point x="460" y="654" type="line"/>
			<point x="346" y="654" type="line"/>
			<point x="270" y="324" type="line"/>
			<point x="255" y="255"/>
			<point x="242" y="186"/>
			<point x="230" y="110" type="curve"/>
			<point x="226" y="110" type="line"/>
			<point x="218" y="186"/>
			<point x="209" y="254"/>
			<point x="198" y="324" type="curve"/>
			<point x="142" y="654" type="line"/>
			<point x="18" y="654" type="line"/>
		</contour>
	</outline>
	<anchor name="aboveUC" x="401" y="676"/>
	<anchor name="belowLC" x="403" y="-22"/>
</glyph>
<glyph name="Y" format="2">
	<unicode hex="0059"/>
	<advance width="503"/>
	<outline>
		<contour>
			<point x="192" y="0" type="line"/>
			<point x="311" y="0" type="line"/>
			<point x="311" y="242" type="line"/>
			<point x="508" y="654" type="line"/>
			<point x="384" y="654" type="line"/>
			<point x="314" y="488" type="line"/>
			<point x="295" y="440"/>
			<point x="275" y="394"/>
			<point x="254" y="344" type="curve"/>
			<point x="250" y="344" type="line"/>
			<point x="230" y="394"/>
			<point x="211" y="440"/>
			<point x="192" y="488" type="curve"/>
			<point x="122" y="654" type="line"/>
			<point x="-5" y="654" type="line"/>
			<point x="192" y="242" type="line"/>
		</contour>
	</outline>
	<anchor name="aboveUC" x="252" y="676"/>
	<anchor name="belowLC" x="254" y="-22"/>
</glyph>
<glyph name="c" format="2">
	<unicode hex="0063"/>
	<advance width="462"/>
	<outline>
		<contour>
			<point x="280" y="-12" type="curve" smooth="yes"/>
			<point x="341" y="-12"/>
			<point x="397" y="12"/>
			<point x="438" y="50" type="curve"/>
			<point x="391" y="121" type="line"/>
			<point x="364" y="98"/>
			<point x="329" y="82"/>
			<point x="291" y="82" type="curve" smooth="yes"/>
			<point x="213" y="82"/>
			<point x="159" y="147"/>
			<point x="159" y="245" type="curve" smooth="yes"/>
			<point x="159" y="344"/>
			<point x="215" y="409"/>
			<point x="293" y="409" type="curve" smooth="yes"/>
			<point x="328" y="409"/>
			<point x="354" y="396"/>
			<point x="376" y="376" type="curve"/>
			<point x="431" y="448" type="line"/>
			<point x="396" y="480"/>
			<point x="350" y="503"/>
			<point x="287" y="503" type="curve" smooth="yes"/>
			<point x="156" y="503"/>
			<point x="41" y="409"/>
			<point x="41" y="245" type="curve" smooth="yes"/>
			<point x="41" y="82"/>
			<point x="144" y="-12"/>
		</contour>
	</outline>
	<anchor name="aboveLC" x="276" y="514"/>
	<anchor name="aboverightLC" x="416" y="514"/>
	<anchor name="baseLC" x="264" y="0"/>
	<anchor name="belowLC" x="264" y="-22"/>
</glyph>
<glyph name="l" format="2">
	<unicode hex="006C"/>
	<advance width="271"/>
	<outline>
		<contour>
			<point x="185" y="-10" type="curve" smooth="yes"/>
			<point x="212" y="-10"/>
			<point x="232" y="-6"/>
			<point x="246" y="0" type="curve"/>
			<point x="231" y="86" type="line"/>
			<point x="223" y="84"/>
			<point x="219" y="84"/>
			<point x="214" y="84" type="curve" smooth="yes"/>
			<point x="201" y="84"/>
			<point x="188" y="93"/>
			<point x="188" y="122" type="curve" smooth="yes"/>
			<point x="188" y="706" type="line"/>
			<point x="73" y="706" type="line"/>
			<point x="73" y="128" type="line" smooth="yes"/>
			<point x="73" y="42"/>
			<point x="103" y="-10"/>
		</contour>
	</outline>
	<anchor name="aboveUC" x="134" y="726"/>
	<anchor name="belowLC" x="154" y="-22"/>
</glyph>
<glyph name="u" format="2">
	<unicode hex="0075"/>
	<advance width="558"/>
	<outline>
		<contour>
			<point x="218" y="-12" type="curve" smooth="yes"/>
			<point x="286" y="-12"/>
			<point x="333" y="21"/>
			<point x="376" y="72" type="curve"/>
			<point x="379" y="72" type="line"/>
			<point x="388" y="0" type="line"/>
			<point x="485" y="0" type="line"/>
			<point x="485" y="492" type="line"/>
			<point x="367" y="492" type="line"/>
			<point x="367" y="156" type="line"/>
			<point x="331" y="109"/>
			<point x="303" y="89"/>
			<point x="260" y="89" type="curve" smooth="yes"/>
			<point x="208" y="89"/>
			<point x="185" y="119"/>
			<point x="185" y="199" type="curve" smooth="yes"/>
			<point x="185" y="492" type="line"/>
			<point x="67" y="492" type="line"/>
			<point x="67" y="184" type="line" smooth="yes"/>
			<point x="67" y="60"/>
			<point x="113" y="-12"/>
		</contour>
	</outline>
	<anchor name="aboveLC" x="279" y="514"/>
	<anchor name="baseLC" x="254" y="0"/>
	<anchor name="belowLC" x="276" y="-22"/>
	<anchor name="hornLC" x="422" y="502"/>
	<anchor name="ogonekLC" x="403" y="0"/>
</glyph>
<glyph name="Oslash" format="2">
	<unicode hex="00D8"/>
	<advance width="674"/>
	<outline>
		<contour>
			<point x="110" y="-40" type="line"/>
			<point x="644" y="638" type="line"/>
			<point x="574" y="694" type="line"/>
			<point x="41" y="16" type="line"/>
		</contour>
		<component base="O" xOffset="2"/>
	</outline>
	<anchor name="aboveUC" x="342" y="676"/>
</glyph>
<glyph name="eth" format="2">
	<unicode hex="00F0"/>
	<advance width="552"/>
	<outline>
		<contour>
			<point x="271" y="-12" type="curve" smooth="yes"/>
			<point x="412" y="-12"/>
			<point x="500" y="100"/>
			<point x="500" y="262" type="curve" smooth="yes"/>
			<point x="500" y="522"/>
			<point x="340" y="652"/>
			<point x="174" y="736" type="curve"/>
			<point x="124" y="664" type="line"/>
			<point x="289" y="577"/>
			<point x="386" y="476"/>
			<point x="386" y="256" type="curve" smooth="yes"/>
			<point x="386" y="147"/>
			<point x="345" y="84"/>
			<point x="274" y="84" type="curve" smooth="yes"/>
			<point x="211" y="84"/>
			<point x="156" y="137"/>
			<point x="156" y="226" type="curve" smooth="yes"/>
			<point x="156" y="310"/>
			<point x="201" y="362"/>
			<point x="272" y="362" type="curve" smooth="yes"/>
			<point x="316" y="362"/>
			<point x="356" y="348"/>
			<point x="392" y="298" type="curve"/>
			<point x="392" y="366" type="line"/>
			<point x="364" y="426"/>
			<point x="308" y="450"/>
			<point x="252" y="450" type="curve" smooth="yes"/>
			<point x="140" y="450"/>
			<point x="46" y="364"/>
			<point x="46" y="226" type="curve" smooth="yes"/>
			<point x="46" y="79"/>
			<point x="150" y="-12"/>
		</contour>
		<contour>
			<point x="138" y="476" type="line"/>
			<point x="494" y="656" type="line"/>
			<point x="450" y="732" type="line"/>
			<point x="98" y="552" type="line"/>
		</contour>
	</outline>
	<anchor name="aboveUC" x="294" y="724"/>
	<anchor name="belowLC" x="270" y="-22"/>
</glyph>
<glyph name="oslash" format="2">
	<unicode hex="00F8"/>
	<advance width="549"/>
	<outline>
		<contour>
			<point x="276" y="-12" type="curve" smooth="yes"/>
			<point x="397" y="-12"/>
			<point x="510" y="82"/>
			<point x="510" y="244" type="curve" smooth="yes"/>
			<point x="510" y="409"/>
			<point x="397" y="503"/>
			<point x="274" y="503" type="curve" smooth="yes"/>
			<point x="152" y="503"/>
			<point x="40" y="409"/>
			<point x="40" y="244" type="curve" smooth="yes"/>
			<point x="40" y="82"/>
			<point x="152" y="-12"/>
		</contour>
		<contour>
			<point x="276" y="78" type="curve" smooth="yes"/>
			<point x="201" y="78"/>
			<point x="154" y="140"/>
			<point x="154" y="252" type="curve" smooth="yes"/>
			<point x="154" y="348"/>
			<point x="202" y="414"/>
			<point x="274" y="414" type="curve" smooth="yes"/>
			<point x="348" y="414"/>
			<point x="396" y="352"/>
			<point x="396" y="238" type="curve" smooth="yes"/>
			<point x="396" y="143"/>
			<point x="346" y="78"/>
		</contour>
		<contour>
			<point x="98" y="-34" type="line"/>
			<point x="514" y="474" type="line"/>
			<point x="452" y="526" type="line"/>
			<point x="36" y="18" type="line"/>
		</contour>
	</outline>
	<anchor name="aboveLC" x="274" y="514"/>
	<anchor name="belowLC" x="274" y="-22"/>
</glyph>
<glyph name="Lslash" format="2">
	<unicode hex="0141"/>
	<advance width="522"/>
	<outline>
		<contour>
			<point x="105" y="0" type="line"/>
			<point x="493" y="0" type="line"/>
			<point x="493" y="98" type="line"/>
			<point x="221" y="98" type="line"/>
			<point x="221" y="654" type="line"/>
			<point x="105" y="654" type="line"/>
		</contour>
		<contour>
			<point x="30" y="192" type="line"/>
			<point x="114" y="232" type="line"/>
			<point x="208" y="276" type="line"/>
			<point x="438" y="376" type="line"/>
			<point x="394" y="462" type="line"/>
			<point x="200" y="374" type="line"/>
			<point x="106" y="330" type="line"/>
			<point x="-14" y="278" type="line"/>
		</contour>
	</outline>
	<anchor name="aboveUC" x="166" y="676"/>
	<anchor name="belowLC" x="308" y="-22"/>
</glyph>
<glyph name="lslash" format="2">
	<unicode hex="0142"/>
	<advance width="329"/>
	<outline>
		<contour>
			<point x="30" y="286" type="line"/>
			<point x="114" y="326" type="line"/>
			<point x="208" y="370" type="line"/>
			<point x="338" y="426" type="line"/>
			<point x="294" y="512" type="line"/>
			<point x="200" y="468" type="line"/>
			<point x="106" y="424" type="line"/>
			<point x="-14" y="372" type="line"/>
		</contour>
		<component base="l" xOffset="28"/>
	</outline>
	<anchor name="aboveUC" x="162" y="726"/>
	<anchor name="belowLC" x="182" y="-22"/>
</glyph>
<glyph name="bstroke" format="2">
	<unicode hex="0180"/>
	<advance width="563"/>
	<outline>
		<contour>
			<point x="312" y="-12" type="curve" smooth="yes"/>
			<point x="422" y="-12"/>
			<point x="522" y="80"/>
			<point x="522" y="232" type="curve" smooth="yes"/>
			<point x="522" y="370"/>
			<point x="450" y="460"/>
			<point x="326" y="460" type="curve" smooth="yes"/>
			<point x="276" y="460"/>
			<point x="228" y="436"/>
			<point x="184" y="399" type="curve"/>
			<point x="188" y="482" type="line"/>
			<point x="188" y="706" type="line"/>
			<point x="73" y="706" type="line"/>
			<point x="73" y="0" type="line"/>
			<point x="164" y="0" type="line"/>
			<point x="174" y="52" type="line"/>
			<point x="178" y="52" type="line"/>
			<point x="218" y="10"/>
			<point x="266" y="-12"/>
		</contour>
		<contour>
			<point x="287" y="83" type="curve" smooth="yes"/>
			<point x="258" y="83"/>
			<point x="222" y="94"/>
			<point x="188" y="124" type="curve"/>
			<point x="188" y="310" type="line"/>
			<point x="226" y="347"/>
			<point x="260" y="365"/>
			<point x="296" y="365" type="curve" smooth="yes"/>
			<point x="370" y="365"/>
			<point x="402" y="312"/>
			<point x="402" y="232" type="curve" smooth="yes"/>
			<point x="402" y="138"/>
			<point x="352" y="83"/>
		</contour>
		<contour>
			<point x="2" y="540" type="line"/>
			<point x="364" y="540" type="line"/>
			<point x="364" y="628" type="line"/>
			<point x="80" y="628" type="line"/>
			<point x="2" y="622" type="line"/>
		</contour>
	</outline>
</glyph>
<glyph name="lbar" format="2">
	<unicode hex="019A"/>
	<advance width="329"/>
	<outline>
		<contour>
			<point x="10" y="350" type="line"/>
			<point x="302" y="350" type="line"/>
			<point x="302" y="438" type="line"/>
			<point x="102" y="438" type="line"/>
			<point x="10" y="433" type="line"/>
		</contour>
		<component base="l" xOffset="28"/>
	</outline>
	<anchor name="aboveUC" x="162" y="726"/>
	<anchor name="belowLC" x="182" y="-22"/>
</glyph>
<glyph name="lambdastroke" format="2">
	<unicode hex="019B"/>
	<advance width="497"/>
	<outline>
		<contour>
			<point x="78" y="422" type="line"/>
			<point x="434" y="602" type="line"/>
			<point x="390" y="678" type="line"/>
			<point x="38" y="498" type="line"/>
		</contour>
		<component base="lambda.latin"/>
	</outline>
	<anchor name="aboveUC" x="205" y="724"/>
	<anchor name="belowLC" x="247" y="-22"/>
</glyph>
<glyph name="dotlessj" format="2">
	<unicode hex="0237"/>
	<advance width="264"/>
	<outline>
		<contour>
			<point x="34" y="-205" type="curve" smooth="yes"/>
			<point x="152" y="-205"/>
			<point x="192" y="-127"/>
			<point x="192" y="-22" type="curve" smooth="yes"/>
			<point x="192" y="492" type="line"/>
			<point x="74" y="492" type="line"/>
			<point x="74" y="-25" type="line" smooth="yes"/>
			<point x="74" y="-82"/>
			<point x="61" y="-112"/>
			<point x="18" y="-112" type="curve" smooth="yes"/>
			<point x="3" y="-112"/>
			<point x="-11" y="-108"/>
			<point x="-24" y="-104" type="curve"/>
			<point x="-46" y="-191" type="line"/>
			<point x="-27" y="-199"/>
			<point x="-1" y="-205"/>
		</contour>
	</outline>
	<anchor name="aboveLC" x="133" y="514"/>
	<anchor name="belowLC" x="75" y="-206"/>
</glyph>
<glyph name="Cstroke" format="2">
	<unicode hex="023B"/>
	<advance width="576"/>
	<outline>
		<contour>
			<point x="236" y="-56" type="line"/>
			<point x="460" y="698" type="line"/>
			<point x="414" y="710" type="line"/>
			<point x="190" y="-44" type="line"/>
		</contour>
		<component base="C"/>
	</outline>
	<anchor name="aboveUC" x="338" y="676"/>
	<anchor name="belowLC" x="346" y="-22"/>
</glyph>
<glyph name="Ubar" format="2">
	<unicode hex="0244"/>
	<advance width="705"/>
	<outline>
		<contour>
			<point x="30" y="322" type="line"/>
			<point x="676" y="322" type="line"/>
			<point x="676" y="410" type="line"/>
			<point x="108" y="410" type="line"/>
			<point x="30" y="403" type="line"/>
		</contour>
		<component base="U" xOffset="27"/>
	</outline>
	<anchor name="aboveUC" x="353" y="676"/>
	<anchor name="belowLC" x="353" y="-22"/>
</glyph>
<glyph name="aturned" format="2">
	<unicode hex="0250"/>
	<advance width="524"/>
	<outline>
		<contour>
			<point x="274" y="-12" type="curve" smooth="yes"/>
			<point x="342" y="-12"/>
			<point x="412" y="16"/>
			<point x="466" y="52" type="curve"/>
			<point x="422" y="130" type="line"/>
			<point x="380" y="104"/>
			<point x="334" y="84"/>
			<point x="290" y="84" type="curve" smooth="yes"/>
			<point x="214" y="84"/>
			<point x="186" y="126"/>
			<point x="184" y="176" type="curve"/>
			<point x="384" y="200"/>
			<point x="472" y="263"/>
			<point x="472" y="372" type="curve" smooth="yes"/>
			<point x="472" y="452"/>
			<point x="420" y="504"/>
			<point x="339" y="504" type="curve" smooth="yes"/>
			<point x="274" y="504"/>
			<point x="218" y="474"/>
			<point x="176" y="428" type="curve"/>
			<point x="172" y="428" type="line"/>
			<point x="162" y="492" type="line"/>
			<point x="66" y="492" type="line"/>
			<point x="66" y="208" type="line" smooth="yes"/>
			<point x="66" y="68"/>
			<point x="134" y="-12"/>
		</contour>
		<contour>
			<point x="184" y="256" type="curve"/>
			<point x="184" y="348" type="line"/>
			<point x="220" y="390"/>
			<point x="256" y="412"/>
			<point x="296" y="412" type="curve" smooth="yes"/>
			<point x="331" y="412"/>
			<point x="358" y="395"/>
			<point x="358" y="354" type="curve" smooth="yes"/>
			<point x="358" y="305"/>
			<point x="314" y="274"/>
		</contour>
	</outline>
	<anchor name="aboveLC" x="280" y="514"/>
	<anchor name="belowLC" x="276" y="-22"/>
	<anchor name="ogonekLC" x="276" y="0"/>
</glyph>
<glyph name="ccurl" format="1">
	<unicode hex="0255"/>
	<advance width="468"/>
	<outline>
		<contour>
			<point x="130" y="-72" type="line"/>
			<point x="178" y="70"/>
			<point x="265" y="164"/>
			<point x="330" y="164" type="curve" smooth="yes"/>
			<point x="356" y="164"/>
			<point x="370" y="150"/>
			<point x="370" y="128" type="curve" smooth="yes"/>
			<point x="370" y="99"/>
			<point x="336" y="77"/>
			<point x="296" y="77" type="curve" smooth="yes"/>
			<point x="214" y="77"/>
			<point x="153" y="143"/>
			<point x="153" y="245" type="curve" smooth="yes"/>
			<point x="153" y="347"/>
			<point x="210" y="414"/>
			<point x="293" y="414" type="curve" smooth="yes"/>
			<point x="324" y="414"/>
			<point x="352" y="401"/>
			<point x="378" y="379" type="curve"/>
			<point x="431" y="448" type="line"/>
			<point x="395" y="479"/>
			<point x="350" y="503"/>
			<point x="287" y="503" type="curve" smooth="yes"/>
			<point x="156" y="503"/>
			<point x="41" y="409"/>
			<point x="41" y="245" type="curve" smooth="yes"/>
			<point x="41" y="82"/>
			<point x="150" y="-12"/>
			<point x="289" y="-12" type="curve" smooth="yes"/>
			<point x="390" y="-12"/>
			<point x="456" y="49"/>
			<point x="456" y="130" type="curve" smooth="yes"/>
			<point x="456" y="197"/>
			<point x="414" y="242"/>
			<point x="342" y="242" type="curve" smooth="yes"/>
			<point x="230" y="242"/>
			<point x="118" y="142"/>
			<point x="50" y="-40" type="curve"/>
		</contour>
		<contour>
			<point name="aboveLC" x="282" y="514" type="move"/>
		</contour>
		<contour>
			<point name="belowLC" x="290" y="-22" type="move"/>
		</contour>
	</outline>
</glyph>
<glyph name="schwahookrhotic" format="2">
	<unicode hex="025A"/>
	<advance width="698"/>
	<outline>
		<contour>
			<point x="246" y="-12" type="curve" smooth="yes"/>
			<point x="380" y="-12"/>
			<point x="466" y="102"/>
			<point x="466" y="240" type="curve" smooth="yes"/>
			<point x="466" y="401"/>
			<point x="380" y="504"/>
			<point x="239" y="504" type="curve" smooth="yes"/>
			<point x="180" y="504"/>
			<point x="120" y="488"/>
			<point x="68" y="454" type="curve"/>
			<point x="108" y="375" type="line"/>
			<point x="146" y="400"/>
			<point x="180" y="412"/>
			<point x="224" y="412" type="curve" smooth="yes"/>
			<point x="309" y="412"/>
			<point x="358" y="358"/>
			<point x="358" y="229" type="curve" smooth="yes"/>
			<point x="358" y="143"/>
			<point x="314" y="78"/>
			<point x="246" y="78" type="curve" smooth="yes"/>
			<point x="190" y="78"/>
			<point x="154" y="110"/>
			<point x="142" y="164" type="curve"/>
			<point x="530" y="320" type="line"/>
			<point x="530" y="310" type="line" smooth="yes"/>
			<point x="530" y="225"/>
			<point x="578" y="194"/>
			<point x="634" y="194" type="curve" smooth="yes"/>
			<point x="670" y="194"/>
			<point x="694" y="206"/>
			<point x="714" y="218" type="curve"/>
			<point x="686" y="276" type="line"/>
			<point x="676" y="269"/>
			<point x="666" y="264"/>
			<point x="650" y="264" type="curve" smooth="yes"/>
			<point x="615" y="264"/>
			<point x="596" y="288"/>
			<point x="596" y="362" type="curve" smooth="yes"/>
			<point x="596" y="378"/>
			<point x="596" y="394"/>
			<point x="598" y="418" type="curve"/>
			<point x="586" y="428" type="line"/>
			<point x="36" y="210" type="line"/>
			<point x="44" y="91"/>
			<point x="108" y="-12"/>
		</contour>
	</outline>
	<anchor name="aboveLC" x="245" y="514"/>
	<anchor name="belowLC" x="266" y="-22"/>
</glyph>
<glyph name="eopen" format="2">
	<unicode hex="025B"/>
	<advance width="439"/>
	<outline>
		<contour>
			<point x="246" y="-12" type="curve" smooth="yes"/>
			<point x="318" y="-12"/>
			<point x="372" y="4"/>
			<point x="420" y="44" type="curve"/>
			<point x="380" y="114" type="line"/>
			<point x="340" y="90"/>
			<point x="304" y="80"/>
			<point x="265" y="80" type="curve" smooth="yes"/>
			<point x="200" y="80"/>
			<point x="158" y="104"/>
			<point x="158" y="148" type="curve" smooth="yes"/>
			<point x="158" y="188"/>
			<point x="191" y="210"/>
			<point x="255" y="210" type="curve" smooth="yes"/>
			<point x="326" y="210" type="line"/>
			<point x="326" y="296" type="line"/>
			<point x="271" y="296" type="line" smooth="yes"/>
			<point x="212" y="296"/>
			<point x="182" y="318"/>
			<point x="182" y="352" type="curve" smooth="yes"/>
			<point x="182" y="390"/>
			<point x="214" y="412"/>
			<point x="262" y="412" type="curve" smooth="yes"/>
			<point x="302" y="412"/>
			<point x="332" y="406"/>
			<point x="366" y="384" type="curve"/>
			<point x="410" y="456" type="line"/>
			<point x="367" y="486"/>
			<point x="314" y="504"/>
			<point x="253" y="504" type="curve" smooth="yes"/>
			<point x="152" y="504"/>
			<point x="66" y="458"/>
			<point x="66" y="368" type="curve" smooth="yes"/>
			<point x="66" y="324"/>
			<point x="94" y="280"/>
			<point x="148" y="262" type="curve"/>
			<point x="148" y="258" type="line"/>
			<point x="88" y="244"/>
			<point x="42" y="204"/>
			<point x="42" y="132" type="curve" smooth="yes"/>
			<point x="42" y="40"/>
			<point x="138" y="-12"/>
		</contour>
	</outline>
</glyph>
<glyph name="gsmall" format="2">
	<unicode hex="0262"/>
	<advance width="507"/>
	<outline>
		<contour>
			<point x="284" y="-12" type="curve" smooth="yes"/>
			<point x="360" y="-12"/>
			<point x="424" y="16"/>
			<point x="462" y="52" type="curve"/>
			<point x="462" y="286" type="line"/>
			<point x="266" y="286" type="line"/>
			<point x="266" y="198" type="line"/>
			<point x="362" y="198" type="line"/>
			<point x="362" y="100" type="line"/>
			<point x="346" y="86"/>
			<point x="322" y="78"/>
			<point x="293" y="78" type="curve" smooth="yes"/>
			<point x="213" y="78"/>
			<point x="158" y="140"/>
			<point x="158" y="246" type="curve" smooth="yes"/>
			<point x="158" y="358"/>
			<point x="222" y="414"/>
			<point x="294" y="414" type="curve" smooth="yes"/>
			<point x="344" y="414"/>
			<point x="368" y="398"/>
			<point x="398" y="374" type="curve"/>
			<point x="452" y="444" type="line"/>
			<point x="414" y="476"/>
			<point x="368" y="503"/>
			<point x="288" y="503" type="curve" smooth="yes"/>
			<point x="156" y="503"/>
			<point x="40" y="408"/>
			<point x="40" y="246" type="curve" smooth="yes"/>
			<point x="40" y="74"/>
			<point x="151" y="-12"/>
		</contour>
	</outline>
	<anchor name="aboveLC" x="282" y="514"/>
	<anchor name="belowLC" x="276" y="-22"/>
</glyph>
<glyph name="clickbilabial" format="2">
	<unicode hex="0298"/>
	<advance width="544"/>
	<outline>
		<contour>
			<point x="272" y="-12" type="curve" smooth="yes"/>
			<point x="404" y="-12"/>
			<point x="490" y="104"/>
			<point x="490" y="356" type="curve" smooth="yes"/>
			<point x="490" y="596"/>
			<point x="404" y="718"/>
			<point x="272" y="718" type="curve" smooth="yes"/>
			<point x="140" y="718"/>
			<point x="54" y="597"/>
			<point x="54" y="356" type="curve" smooth="yes"/>
			<point x="54" y="104"/>
			<point x="140" y="-12"/>
		</contour>
		<contour>
			<point x="272" y="84" type="curve" smooth="yes"/>
			<point x="212" y="84"/>
			<point x="160" y="152"/>
			<point x="160" y="356" type="curve" smooth="yes"/>
			<point x="160" y="548"/>
			<point x="212" y="622"/>
			<point x="272" y="622" type="curve" smooth="yes"/>
			<point x="334" y="622"/>
			<point x="384" y="548"/>
			<point x="384" y="356" type="curve" smooth="yes"/>
			<point x="384" y="152"/>
			<point x="334" y="84"/>
		</contour>
		<contour>
			<point x="272" y="284" type="curve" smooth="yes"/>
			<point x="314" y="284"/>
			<point x="344" y="314"/>
			<point x="344" y="356" type="curve" smooth="yes"/>
			<point x="344" y="398"/>
			<point x="314" y="428"/>
			<point x="272" y="428" type="curve" smooth="yes"/>
			<point x="232" y="428"/>
			<point x="200" y="398"/>
			<point x="200" y="356" type="curve" smooth="yes"/>
			<point x="200" y="314"/>
			<point x="232" y="284"/>
		</contour>
	</outline>
	<anchor name="aboveUC" x="273" y="724"/>
	<anchor name="belowLC" x="273" y="-22"/>
</glyph>
<glyph name="theta" format="1">
	<unicode hex="03B8"/>
	<advance width="536"/>
	<outline>
		<contour>
			<point x="268" y="-12" type="curve" smooth="yes"/>
			<point x="398" y="-12"/>
			<point x="482" y="105"/>
			<point x="482" y="356" type="curve" smooth="yes"/>
			<point x="482" y="596"/>
			<point x="398" y="718"/>
			<point x="268" y="718" type="curve" smooth="yes"/>
			<point x="138" y="718"/>
			<point x="54" y="597"/>
			<point x="54" y="356" type="curve" smooth="yes"/>
			<point x="54" y="105"/>
			<point x="138" y="-12"/>
		</contour>
		<contour>
			<point x="268" y="82" type="curve" smooth="yes"/>
			<point x="210" y="82"/>
			<point x="166" y="144"/>
			<point x="166" y="356" type="curve" smooth="yes"/>
			<point x="166" y="561"/>
			<point x="210" y="624"/>
			<point x="268" y="624" type="curve" smooth="yes"/>
			<point x="326" y="624"/>
			<point x="370" y="561"/>
			<point x="370" y="356" type="curve" smooth="yes"/>
			<point x="370" y="144"/>
			<point x="326" y="82"/>
		</contour>
		<contour>
			<point x="116" y="313" type="line"/>
			<point x="420" y="313" type="line"/>
			<point x="420" y="400" type="line"/>
			<point x="116" y="400" type="line"/>
		</contour>
	</outline>
</glyph>
<glyph name="theta.a" format="2">
	<unicode hex="03D1"/>
	<advance width="537"/>
	<outline>
		<contour>
			<point x="260" y="-12" type="curve" smooth="yes"/>
			<point x="404" y="-12"/>
			<point x="484" y="96"/>
			<point x="484" y="358" type="curve" smooth="yes"/>
			<point x="484" y="590"/>
			<point x="406" y="718"/>
			<point x="260" y="718" type="curve" smooth="yes"/>
			<point x="146" y="718"/>
			<point x="58" y="608"/>
			<point x="58" y="492" type="curve" smooth="yes"/>
			<point x="58" y="360"/>
			<point x="116" y="304"/>
			<point x="374" y="304" type="curve"/>
			<point x="374" y="392" type="line"/>
			<point x="203" y="392"/>
			<point x="168" y="416"/>
			<point x="168" y="496" type="curve" smooth="yes"/>
			<point x="168" y="560"/>
			<point x="208" y="622"/>
			<point x="264" y="622" type="curve" smooth="yes"/>
			<point x="327" y="622"/>
			<point x="368" y="558"/>
			<point x="368" y="358" type="curve" smooth="yes"/>
			<point x="368" y="132"/>
			<point x="326" y="84"/>
			<point x="268" y="84" type="curve" smooth="yes"/>
			<point x="226" y="84"/>
			<point x="194" y="110"/>
			<point x="177" y="186" type="curve" smooth="yes"/>
			<point x="169" y="224"/>
			<point x="161" y="257"/>
			<point x="149" y="273" type="curve"/>
			<point x="40" y="249" type="line"/>
			<point x="56" y="222"/>
			<point x="63" y="196"/>
			<point x="74" y="147" type="curve" smooth="yes"/>
			<point x="98" y="41"/>
			<point x="156" y="-12"/>
		</contour>
	</outline>
</glyph>
<glyph name="icyr" format="2">
	<unicode hex="0438"/>
	<advance width="574"/>
	<outline>
		<contour>
			<point x="72" y="0" type="line"/>
			<point x="200" y="0" type="line"/>
			<point x="338" y="236" type="line" smooth="yes"/>
			<point x="356" y="266"/>
			<point x="378" y="311"/>
			<point x="396" y="352" type="curve"/>
			<point x="400" y="352" type="line"/>
			<point x="392" y="278"/>
			<point x="388" y="221"/>
			<point x="388" y="170" type="curve" smooth="yes"/>
			<point x="388" y="0" type="line"/>
			<point x="502" y="0" type="line"/>
			<point x="502" y="492" type="line"/>
			<point x="374" y="492" type="line"/>
			<point x="236" y="254" type="line" smooth="yes"/>
			<point x="218" y="224"/>
			<point x="196" y="178"/>
			<point x="178" y="140" type="curve"/>
			<point x="174" y="140" type="line"/>
			<point x="180" y="212"/>
			<point x="186" y="268"/>
			<point x="186" y="321" type="curve" smooth="yes"/>
			<point x="186" y="492" type="line"/>
			<point x="72" y="492" type="line"/>
		</contour>
	</outline>
	<anchor name="aboveLC" x="290" y="514"/>
</glyph>
<glyph name="ya" format="2">
	<unicode hex="044F"/>
	<advance width="530"/>
	<outline>
		<contour>
			<point x="341" y="0" type="line"/>
			<point x="456" y="0" type="line"/>
			<point x="456" y="491" type="line"/>
			<point x="264" y="491" type="line" smooth="yes"/>
			<point x="152" y="491"/>
			<point x="65" y="452"/>
			<point x="65" y="337" type="curve" smooth="yes"/>
			<point x="65" y="219"/>
			<point x="172" y="174"/>
			<point x="268" y="174" type="curve" smooth="yes"/>
			<point x="341" y="174" type="line"/>
		</contour>
		<contour>
			<point x="280" y="260" type="line" smooth="yes"/>
			<point x="216" y="260"/>
			<point x="180" y="288"/>
			<point x="180" y="336" type="curve" smooth="yes"/>
			<point x="180" y="382"/>
			<point x="216" y="404"/>
			<point x="280" y="404" type="curve" smooth="yes"/>
			<point x="341" y="404" type="line"/>
			<point x="341" y="260" type="line"/>
		</contour>
		<contour>
			<point x="24" y="0" type="line"/>
			<point x="156" y="0" type="line"/>
			<point x="286" y="198" type="line"/>
			<point x="190" y="232" type="line"/>
		</contour>
	</outline>
	<anchor name="aboveLC" x="274" y="514"/>
</glyph>
<glyph name="ieukran" format="2">
	<unicode hex="0454"/>
	<advance width="462"/>
	<outline>
		<contour>
			<point x="278" y="-12" type="curve" smooth="yes"/>
			<point x="334" y="-12"/>
			<point x="392" y="6"/>
			<point x="438" y="48" type="curve"/>
			<point x="394" y="118" type="line"/>
			<point x="368" y="95"/>
			<point x="333" y="80"/>
			<point x="288" y="80" type="curve" smooth="yes"/>
			<point x="208" y="80"/>
			<point x="152" y="136"/>
			<point x="152" y="246" type="curve" smooth="yes"/>
			<point x="152" y="356"/>
			<point x="206" y="412"/>
			<point x="292" y="412" type="curve" smooth="yes"/>
			<point x="328" y="412"/>
			<point x="352" y="400"/>
			<point x="378" y="378" type="curve"/>
			<point x="432" y="448" type="line"/>
			<point x="398" y="478"/>
			<point x="350" y="504"/>
			<point x="288" y="504" type="curve" smooth="yes"/>
			<point x="156" y="504"/>
			<point x="40" y="416"/>
			<point x="40" y="246" type="curve" smooth="yes"/>
			<point x="40" y="75"/>
			<point x="144" y="-12"/>
		</contour>
		<contour>
			<point x="108" y="210" type="line"/>
			<point x="350" y="210" type="line"/>
			<point x="350" y="296" type="line"/>
			<point x="108" y="296" type="line"/>
		</contour>
	</outline>
	<anchor name="aboveLC" x="275" y="514"/>
</glyph>
<glyph name="schwa.sups" format="2">
	<unicode hex="1D4A"/>
	<advance width="341"/>
	<outline>
		<contour>
			<point x="162" y="376" type="curve" smooth="yes"/>
			<point x="246" y="376"/>
			<point x="314" y="442"/>
			<point x="314" y="548" type="curve" smooth="yes"/>
			<point x="314" y="654"/>
			<point x="252" y="718"/>
			<point x="158" y="718" type="curve" smooth="yes"/>
			<point x="118" y="718"/>
			<point x="78" y="704"/>
			<point x="45" y="682" type="curve"/>
			<point x="74" y="630" type="line"/>
			<point x="98" y="646"/>
			<point x="122" y="652"/>
			<point x="150" y="652" type="curve" smooth="yes"/>
			<point x="200" y="652"/>
			<point x="226" y="622"/>
			<point x="232" y="576" type="curve"/>
			<point x="28" y="576" type="line"/>
			<point x="24" y="560"/>
			<point x="23" y="549"/>
			<point x="23" y="532" type="curve" smooth="yes"/>
			<point x="23" y="457"/>
			<point x="62" y="376"/>
		</contour>
		<contour>
			<point x="162" y="442" type="curve" smooth="yes"/>
			<point x="114" y="442"/>
			<point x="94" y="479"/>
			<point x="94" y="518" type="curve"/>
			<point x="235" y="518" type="line"/>
			<point x="230" y="468"/>
			<point x="202" y="442"/>
		</contour>
	</outline>
</glyph>
<glyph name="colonmonetary" format="2">
	<unicode hex="20A1"/>
	<advance width="514"/>
	<outline>
		<contour>
			<point x="324" y="-12" type="curve" smooth="yes"/>
			<point x="400" y="-12"/>
			<point x="458" y="27"/>
			<point x="492" y="92" type="curve"/>
			<point x="430" y="138" type="line"/>
			<point x="405" y="100"/>
			<point x="373" y="82"/>
			<point x="329" y="82" type="curve" smooth="yes"/>
			<point x="230" y="82"/>
			<point x="176" y="166"/>
			<point x="176" y="320" type="curve" smooth="yes"/>
			<point x="176" y="466"/>
			<point x="230" y="554"/>
			<point x="328" y="554" type="curve" smooth="yes"/>
			<point x="372" y="554"/>
			<point x="404" y="542"/>
			<point x="430" y="508" type="curve"/>
			<point x="491" y="563" type="line"/>
			<point x="458" y="614"/>
			<point x="400" y="648"/>
			<point x="323" y="648" type="curve" smooth="yes"/>
			<point x="174" y="648"/>
			<point x="58" y="524"/>
			<point x="58" y="316" type="curve" smooth="yes"/>
			<point x="58" y="101"/>
			<point x="168" y="-12"/>
		</contour>
		<contour>
			<point x="178" y="-108" type="line"/>
			<point x="228" y="-114" type="line"/>
			<point x="330" y="744" type="line"/>
			<point x="280" y="750" type="line"/>
		</contour>
		<contour>
			<point x="276" y="-108" type="line"/>
			<point x="326" y="-114" type="line"/>
			<point x="428" y="744" type="line"/>
			<point x="378" y="750" type="line"/>
		</contour>
	</outline>
</glyph>
<glyph name="lira" format="2">
	<unicode hex="20A4"/>
	<advance width="514"/>
	<outline>
		<contour>
			<point x="50" y="0" type="line"/>
			<point x="476" y="0" type="line"/>
			<point x="476" y="100" type="line"/>
			<point x="206" y="100" type="line"/>
			<point x="206" y="104" type="line"/>
			<point x="242" y="140"/>
			<point x="262" y="178"/>
			<point x="262" y="238" type="curve" smooth="yes"/>
			<point x="262" y="316"/>
			<point x="224" y="379"/>
			<point x="224" y="448" type="curve" smooth="yes"/>
			<point x="224" y="512"/>
			<point x="260" y="552"/>
			<point x="322" y="552" type="curve" smooth="yes"/>
			<point x="362" y="552"/>
			<point x="392" y="538"/>
			<point x="414" y="508" type="curve"/>
			<point x="476" y="566" type="line"/>
			<point x="442" y="614"/>
			<point x="388" y="648"/>
			<point x="310" y="648" type="curve" smooth="yes"/>
			<point x="194" y="648"/>
			<point x="112" y="574"/>
			<point x="112" y="454" type="curve" smooth="yes"/>
			<point x="112" y="384"/>
			<point x="156" y="310"/>
			<point x="156" y="238" type="curve" smooth="yes"/>
			<point x="156" y="164"/>
			<point x="114" y="104"/>
			<point x="50" y="72" type="curve"/>
		</contour>
		<contour>
			<point x="54" y="220" type="line"/>
			<point x="393" y="220" type="line"/>
			<point x="393" y="288" type="line"/>
			<point x="124" y="288" type="line"/>
			<point x="54" y="282" type="line"/>
		</contour>
		<contour>
			<point x="54" y="348" type="line"/>
			<point x="393" y="348" type="line"/>
			<point x="393" y="416" type="line"/>
			<point x="112" y="416" type="line"/>
			<point x="54" y="410" type="line"/>
		</contour>
	</outline>
</glyph>
<glyph name="won" format="2">
	<unicode hex="20A9"/>
	<advance width="513"/>
	<outline>
		<contour>
			<point x="89" y="0" type="line"/>
			<point x="214" y="0" type="line"/>
			<point x="242" y="334" type="line"/>
			<point x="254" y="513" type="line"/>
			<point x="258" y="513" type="line"/>
			<point x="271" y="334" type="line"/>
			<point x="302" y="0" type="line"/>
			<point x="430" y="0" type="line"/>
			<point x="505" y="636" type="line"/>
			<point x="409" y="636" type="line"/>
			<point x="378" y="224" type="line"/>
			<point x="369" y="83" type="line"/>
			<point x="365" y="83" type="line"/>
			<point x="354" y="224" type="line"/>
			<point x="316" y="596" type="line"/>
			<point x="204" y="596" type="line"/>
			<point x="167" y="224" type="line"/>
			<point x="157" y="83" type="line"/>
			<point x="153" y="83" type="line"/>
			<point x="145" y="224" type="line"/>
			<point x="113" y="636" type="line"/>
			<point x="9" y="636" type="line"/>
		</contour>
		<contour>
			<point x="-17" y="288" type="line"/>
			<point x="528" y="288" type="line"/>
			<point x="528" y="362" type="line"/>
			<point x="55" y="362" type="line"/>
			<point x="-17" y="357" type="line"/>
		</contour>
	</outline>
</glyph>
<glyph name="astroke" format="2">
	<unicode hex="2C65"/>
	<advance width="516"/>
	<outline>
		<contour>
			<point x="212" y="-36" type="line"/>
			<point x="378" y="524" type="line"/>
			<point x="332" y="534" type="line"/>
			<point x="166" y="-26" type="line"/>
		</contour>
		<component base="a"/>
	</outline>
	<anchor name="aboveLC" x="272" y="514"/>
	<anchor name="belowLC" x="252" y="-22"/>
</glyph>
<glyph name="tstroke" format="2">
	<unicode hex="2C66"/>
	<advance width="361"/>
	<outline>
		<contour>
			<point x="68" y="-36" type="line"/>
			<point x="388" y="528" type="line"/>
			<point x="348" y="548" type="line"/>
			<point x="28" y="-16" type="line"/>
		</contour>
		<component base="t"/>
	</outline>
	<anchor name="aboveLC" x="160" y="650"/>
	<anchor name="belowLC" x="224" y="-22"/>
</glyph>
<glyph name="Astroke.sc" format="2">
	<advance width="487"/>
	<outline>
		<contour>
			<point x="192" y="-36" type="line"/>
			<point x="346" y="550" type="line"/>
			<point x="304" y="560" type="line"/>
			<point x="150" y="-26" type="line"/>
		</contour>
		<component base="A.sc"/>
	</outline>
	<anchor name="aboveUC" x="244" y="562"/>
	<anchor name="belowLC" x="244" y="-22"/>
</glyph>
<glyph name="B.sc" format="2">
	<advance width="538"/>
	<outline>
		<contour>
			<point x="83" y="0" type="line"/>
			<point x="284" y="0" type="line" smooth="yes"/>
			<point x="408" y="0"/>
			<point x="502" y="46"/>
			<point x="502" y="152" type="curve" smooth="yes"/>
			<point x="502" y="224"/>
			<point x="458" y="262"/>
			<point x="384" y="277" type="curve"/>
			<point x="384" y="281" type="line"/>
			<point x="446" y="296"/>
			<point x="474" y="346"/>
			<point x="474" y="393" type="curve" smooth="yes"/>
			<point x="474" y="492"/>
			<point x="386" y="524"/>
			<point x="269" y="524" type="curve" smooth="yes"/>
			<point x="83" y="524" type="line"/>
		</contour>
		<contour>
			<point x="202" y="312" type="line"/>
			<point x="202" y="432" type="line"/>
			<point x="266" y="432" type="line" smooth="yes"/>
			<point x="331" y="432"/>
			<point x="364" y="416"/>
			<point x="364" y="376" type="curve" smooth="yes"/>
			<point x="364" y="336"/>
			<point x="336" y="312"/>
			<point x="266" y="312" type="curve" smooth="yes"/>
		</contour>
		<contour>
			<point x="202" y="92" type="line"/>
			<point x="202" y="230" type="line"/>
			<point x="274" y="230" type="line" smooth="yes"/>
			<point x="348" y="230"/>
			<point x="386" y="208"/>
			<point x="386" y="162" type="curve" smooth="yes"/>
			<point x="386" y="114"/>
			<point x="345" y="92"/>
			<point x="274" y="92" type="curve" smooth="yes"/>
		</contour>
	</outline>
	<anchor name="aboveUC" x="284" y="563"/>
	<anchor name="belowLC" x="293" y="-22"/>
</glyph>
<glyph name="Bstroke" format="2">
	<advance width="616"/>
	<outline>
		<contour>
			<point x="103" y="0" type="line"/>
			<point x="330" y="0" type="line" smooth="yes"/>
			<point x="475" y="0"/>
			<point x="582" y="63"/>
			<point x="582" y="198" type="curve" smooth="yes"/>
			<point x="582" y="290"/>
			<point x="529" y="342"/>
			<point x="434" y="359" type="curve"/>
			<point x="434" y="363" type="line"/>
			<point x="512" y="383"/>
			<point x="548" y="437"/>
			<point x="548" y="496" type="curve" smooth="yes"/>
			<point x="548" y="612"/>
			<point x="448" y="654"/>
			<point x="313" y="654" type="curve" smooth="yes"/>
			<point x="103" y="654" type="line"/>
		</contour>
		<contour>
			<point x="222" y="394" type="line"/>
			<point x="222" y="566" type="line"/>
			<point x="305" y="566" type="line" smooth="yes"/>
			<point x="388" y="566"/>
			<point x="432" y="542"/>
			<point x="432" y="485" type="curve" smooth="yes"/>
			<point x="432" y="427"/>
			<point x="392" y="394"/>
			<point x="302" y="394" type="curve" smooth="yes"/>
		</contour>
		<contour>
			<point x="222" y="88" type="line"/>
			<point x="222" y="310" type="line"/>
			<point x="318" y="310" type="line" smooth="yes"/>
			<point x="412" y="310"/>
			<point x="466" y="278"/>
			<point x="466" y="206" type="curve" smooth="yes"/>
			<point x="466" y="128"/>
			<point x="411" y="88"/>
			<point x="318" y="88" type="curve" smooth="yes"/>
		</contour>
		<contour>
			<point x="28" y="162" type="line"/>
			<point x="358" y="162" type="line"/>
			<point x="358" y="248" type="line"/>
			<point x="105" y="248" type="line"/>
			<point x="28" y="244" type="line"/>
		</contour>
	</outline>
</glyph>
<glyph name="Bstroke.sc" format="1">
	<advance width="558"/>
	<outline>
		<contour>
			<point x="105" y="0" type="line"/>
			<point x="305" y="0" type="line" smooth="yes"/>
			<point x="428" y="0"/>
			<point x="522" y="46"/>
			<point x="522" y="153" type="curve" smooth="yes"/>
			<point x="522" y="230"/>
			<point x="478" y="274"/>
			<point x="403" y="289" type="curve"/>
			<point x="403" y="293" type="line"/>
			<point x="465" y="309"/>
			<point x="494" y="354"/>
			<point x="494" y="399" type="curve" smooth="yes"/>
			<point x="494" y="494"/>
			<point x="406" y="523"/>
			<point x="290" y="523" type="curve" smooth="yes"/>
			<point x="105" y="523" type="line"/>
		</contour>
		<contour>
			<point x="221" y="328" type="line"/>
			<point x="221" y="444" type="line"/>
			<point x="302" y="444" type="line" smooth="yes"/>
			<point x="359" y="444"/>
			<point x="388" y="430"/>
			<point x="388" y="390" type="curve" smooth="yes"/>
			<point x="388" y="350"/>
			<point x="364" y="328"/>
			<point x="302" y="328" type="curve" smooth="yes"/>
		</contour>
		<contour>
			<point x="221" y="78" type="line"/>
			<point x="221" y="244" type="line"/>
			<point x="291" y="244" type="line" smooth="yes"/>
			<point x="375" y="244"/>
			<point x="417" y="219"/>
			<point x="417" y="163" type="curve" smooth="yes"/>
			<point x="417" y="105"/>
			<point x="372" y="78"/>
			<point x="291" y="78" type="curve" smooth="yes"/>
		</contour>
		<contour>
			<point x="30" y="122" type="line"/>
			<point x="334" y="122" type="line"/>
			<point x="334" y="204" type="line"/>
			<point x="107" y="204" type="line"/>
			<point x="30" y="199" type="line"/>
		</contour>
	</outline>
</glyph>
<glyph name="C.sc" format="2">
	<advance width="512"/>
	<outline>
		<contour>
			<point x="305" y="-12" type="curve" smooth="yes"/>
			<point x="378" y="-12"/>
			<point x="434" y="14"/>
			<point x="482" y="67" type="curve"/>
			<point x="422" y="132" type="line"/>
			<point x="393" y="103"/>
			<point x="358" y="84"/>
			<point x="310" y="84" type="curve" smooth="yes"/>
			<point x="223" y="84"/>
			<point x="167" y="148"/>
			<point x="167" y="263" type="curve" smooth="yes"/>
			<point x="167" y="373"/>
			<point x="229" y="439"/>
			<point x="314" y="439" type="curve" smooth="yes"/>
			<point x="355" y="439"/>
			<point x="386" y="423"/>
			<point x="413" y="397" type="curve"/>
			<point x="475" y="465" type="line"/>
			<point x="440" y="504"/>
			<point x="384" y="535"/>
			<point x="313" y="535" type="curve" smooth="yes"/>
			<point x="168" y="535"/>
			<point x="49" y="433"/>
			<point x="49" y="259" type="curve" smooth="yes"/>
			<point x="49" y="81"/>
			<point x="163" y="-12"/>
		</contour>
	</outline>
	<anchor name="aboverightUC" x="440" y="562"/>
	<anchor name="aboveUC" x="298" y="562"/>
	<anchor name="baseLC" x="298" y="0"/>
	<anchor name="belowLC" x="298" y="-22"/>
</glyph>
<glyph name="Cstroke.sc" format="2">
	<advance width="512"/>
	<outline>
		<contour>
			<point x="228" y="-56" type="line"/>
			<point x="412" y="566" type="line"/>
			<point x="368" y="578" type="line"/>
			<point x="184" y="-44" type="line"/>
		</contour>
		<component base="C.sc"/>
	</outline>
	<anchor name="aboveUC" x="298" y="562"/>
	<anchor name="belowLC" x="298" y="-22"/>
</glyph>
<glyph name="D" format="1">
	<advance width="625"/>
	<outline>
		<contour>
			<point x="83" y="0" type="line"/>
			<point x="264" y="0" type="line" smooth="yes"/>
			<point x="458" y="0"/>
			<point x="576" y="113"/>
			<point x="576" y="330" type="curve" smooth="yes"/>
			<point x="576" y="546"/>
			<point x="458" y="654"/>
			<point x="258" y="654" type="curve" smooth="yes"/>
			<point x="83" y="654" type="line"/>
		</contour>
		<contour>
			<point x="199" y="94" type="line"/>
			<point x="199" y="560" type="line"/>
			<point x="250" y="560" type="line" smooth="yes"/>
			<point x="382" y="560"/>
			<point x="457" y="490"/>
			<point x="457" y="330" type="curve" smooth="yes"/>
			<point x="457" y="169"/>
			<point x="382" y="94"/>
			<point x="250" y="94" type="curve" smooth="yes"/>
		</contour>
		<contour>
			<point name="aboveUC" x="313" y="676" type="move"/>
		</contour>
		<contour>
			<point name="belowLC" x="309" y="-22" type="move"/>
		</contour>
	</outline>
</glyph>
<glyph name="Dje.sc" format="2">
	<advance width="607"/>
	<outline>
		<contour>
			<point x="404" y="-10" type="curve" smooth="yes"/>
			<point x="494" y="-10"/>
			<point x="564" y="34"/>
			<point x="564" y="148" type="curve" smooth="yes"/>
			<point x="564" y="272"/>
			<point x="468" y="320"/>
			<point x="362" y="320" type="curve" smooth="yes"/>
			<point x="328" y="320"/>
			<point x="305" y="317"/>
			<point x="280" y="312" type="curve"/>
			<point x="280" y="428" type="line"/>
			<point x="460" y="428" type="line"/>
			<point x="460" y="523" type="line"/>
			<point x="26" y="523" type="line"/>
			<point x="26" y="428" type="line"/>
			<point x="164" y="428" type="line"/>
			<point x="164" y="0" type="line"/>
			<point x="280" y="0" type="line"/>
			<point x="280" y="224" type="line"/>
			<point x="298" y="227"/>
			<point x="318" y="230"/>
			<point x="349" y="230" type="curve" smooth="yes"/>
			<point x="414" y="230"/>
			<point x="452" y="204"/>
			<point x="452" y="150" type="curve" smooth="yes"/>
			<point x="452" y="100"/>
			<point x="420" y="80"/>
			<point x="390" y="80" type="curve" smooth="yes"/>
			<point x="382" y="80"/>
			<point x="372" y="82"/>
			<point x="366" y="84" type="curve"/>
			<point x="346" y="-2" type="line"/>
			<point x="364" y="-8"/>
			<point x="382" y="-10"/>
		</contour>
	</outline>
</glyph>
<glyph name="E.sc" format="1">
  <advance width="488"/>
  <outline>
    <contour>
      <point x="83" y="0" type="line"/>
      <point x="438" y="0" type="line"/>
      <point x="438" y="96" type="line"/>
      <point x="202" y="96" type="line"/>
      <point x="202" y="224" type="line"/>
      <point x="394" y="224" type="line"/>
      <point x="394" y="318" type="line"/>
      <point x="202" y="318" type="line"/>
      <point x="202" y="428" type="line"/>
      <point x="428" y="428" type="line"/>
      <point x="428" y="524" type="line"/>
      <point x="83" y="524" type="line"/>
    </contour>
    <contour>
      <point x="266" y="563" type="move" name="aboveUC"/>
    </contour>
    <contour>
      <point x="276" y="-22" type="move" name="belowLC"/>
    </contour>
    <contour>
      <point x="345" y="0" type="move" name="ogonekUC"/>
    </contour>
  </outline>
</glyph>
<glyph name="Ecyr.sc" format="2">
	<advance width="510"/>
	<outline>
		<contour>
			<point x="200" y="-12" type="curve" smooth="yes"/>
			<point x="344" y="-12"/>
			<point x="460" y="71"/>
			<point x="460" y="266" type="curve" smooth="yes"/>
			<point x="460" y="441"/>
			<point x="351" y="536"/>
			<point x="214" y="536" type="curve" smooth="yes"/>
			<point x="142" y="536"/>
			<point x="82" y="512"/>
			<point x="35" y="465" type="curve"/>
			<point x="96" y="393" type="line"/>
			<point x="125" y="419"/>
			<point x="162" y="437"/>
			<point x="208" y="437" type="curve" smooth="yes"/>
			<point x="294" y="437"/>
			<point x="344" y="375"/>
			<point x="344" y="264" type="curve" smooth="yes"/>
			<point x="344" y="132"/>
			<point x="285" y="86"/>
			<point x="202" y="86" type="curve" smooth="yes"/>
			<point x="157" y="86"/>
			<point x="121" y="104"/>
			<point x="90" y="132" type="curve"/>
			<point x="26" y="60" type="line"/>
			<point x="66" y="21"/>
			<point x="128" y="-12"/>
		</contour>
		<contour>
			<point x="143" y="224" type="line"/>
			<point x="396" y="224" type="line"/>
			<point x="396" y="316" type="line"/>
			<point x="143" y="316" type="line"/>
		</contour>
	</outline>
	<anchor name="aboveUC" x="246" y="563"/>
</glyph>
<glyph name="Eng.as" format="2">
	<advance width="598"/>
	<outline>
		<contour>
			<point x="372" y="-162" type="curve" smooth="yes"/>
			<point x="476" y="-162"/>
			<point x="514" y="-89"/>
			<point x="514" y="4" type="curve"/>
			<point x="514" y="524" type="line"/>
			<point x="404" y="524" type="line"/>
			<point x="404" y="329" type="line" smooth="yes"/>
			<point x="404" y="268"/>
			<point x="414" y="194"/>
			<point x="420" y="137" type="curve"/>
			<point x="416" y="137" type="line"/>
			<point x="399" y="179"/>
			<point x="379" y="225"/>
			<point x="359" y="259" type="curve" smooth="yes"/>
			<point x="208" y="524" type="line"/>
			<point x="83" y="524" type="line"/>
			<point x="83" y="0" type="line"/>
			<point x="190" y="0" type="line"/>
			<point x="190" y="194" type="line" smooth="yes"/>
			<point x="190" y="255"/>
			<point x="181" y="329"/>
			<point x="175" y="386" type="curve"/>
			<point x="179" y="386" type="line"/>
			<point x="196" y="344"/>
			<point x="216" y="298"/>
			<point x="236" y="264" type="curve" smooth="yes"/>
			<point x="387" y="0" type="line"/>
			<point x="398" y="0" type="line"/>
			<point x="398" y="-44"/>
			<point x="388" y="-70"/>
			<point x="354" y="-70" type="curve" smooth="yes"/>
			<point x="343" y="-70"/>
			<point x="334" y="-70"/>
			<point x="320" y="-66" type="curve"/>
			<point x="300" y="-150" type="line"/>
			<point x="316" y="-156"/>
			<point x="340" y="-162"/>
		</contour>
	</outline>
</glyph>
<glyph name="Eogonek.ds" format="1">
  <advance width="488"/>
  <outline>
    <contour>
      <point x="285" y="-223" type="curve" smooth="yes"/>
      <point x="321" y="-223"/>
      <point x="362" y="-207"/>
      <point x="387" y="-188" type="curve"/>
      <point x="358" y="-121" type="line"/>
      <point x="345" y="-130"/>
      <point x="329" y="-138"/>
      <point x="310" y="-138" type="curve" smooth="yes"/>
      <point x="283" y="-138"/>
      <point x="261" y="-125"/>
      <point x="261" y="-94" type="curve" smooth="yes"/>
      <point x="261" y="-51"/>
      <point x="306" y="0"/>
      <point x="354" y="0" type="curve" smooth="yes"/>
      <point x="438" y="0" type="line"/>
      <point x="438" y="96" type="line"/>
      <point x="202" y="96" type="line"/>
      <point x="202" y="224" type="line"/>
      <point x="394" y="224" type="line"/>
      <point x="394" y="318" type="line"/>
      <point x="202" y="318" type="line"/>
      <point x="202" y="428" type="line"/>
      <point x="428" y="428" type="line"/>
      <point x="428" y="524" type="line"/>
      <point x="83" y="524" type="line"/>
      <point x="83" y="0" type="line"/>
      <point x="245" y="0" type="line"/>
      <point x="209" y="-22"/>
      <point x="167" y="-68"/>
      <point x="167" y="-127" type="curve" smooth="yes"/>
      <point x="167" y="-189"/>
      <point x="219" y="-223"/>
    </contour>
    <contour>
      <point x="266" y="563" type="move" name="aboveUC"/>
    </contour>
  </outline>
</glyph>
<glyph name="Eogonek.sc" format="1">
	<advance width="488"/>
	<outline>
		<contour>
			<point x="360" y="-223" type="curve" smooth="yes"/>
			<point x="396" y="-223"/>
			<point x="437" y="-207"/>
			<point x="461" y="-188" type="curve"/>
			<point x="432" y="-121" type="line"/>
			<point x="419" y="-130"/>
			<point x="403" y="-138"/>
			<point x="385" y="-138" type="curve" smooth="yes"/>
			<point x="358" y="-138"/>
			<point x="336" y="-125"/>
			<point x="336" y="-94" type="curve" smooth="yes"/>
			<point x="336" y="-50"/>
			<point x="386" y="0"/>
			<point x="428" y="0" type="curve" smooth="yes"/>
			<point x="438" y="0" type="line"/>
			<point x="438" y="96" type="line"/>
			<point x="202" y="96" type="line"/>
			<point x="202" y="224" type="line"/>
			<point x="394" y="224" type="line"/>
			<point x="394" y="318" type="line"/>
			<point x="202" y="318" type="line"/>
			<point x="202" y="428" type="line"/>
			<point x="428" y="428" type="line"/>
			<point x="428" y="524" type="line"/>
			<point x="83" y="524" type="line"/>
			<point x="83" y="0" type="line"/>
			<point x="322" y="0" type="line"/>
			<point x="283" y="-23"/>
			<point x="242" y="-69"/>
			<point x="242" y="-127" type="curve" smooth="yes"/>
			<point x="242" y="-189"/>
			<point x="294" y="-223"/>
		</contour>
		<contour>
			<point name="aboveUC" x="266" y="563" type="move"/>
		</contour>
	</outline>
</glyph>
<glyph name="Eth.sc" format="1">
	<advance width="590"/>
	<outline>
		<contour>
			<point x="30" y="230" type="line"/>
			<point x="331" y="230" type="line"/>
			<point x="331" y="318" type="line"/>
			<point x="107" y="318" type="line"/>
			<point x="30" y="314" type="line"/>
		</contour>
		<component base="D.sc" xOffset="22"/>
	</outline>
</glyph>
<glyph name="Euro" format="2">
	<advance width="514"/>
	<outline>
		<contour>
			<point x="332" y="-12" type="curve" smooth="yes"/>
			<point x="408" y="-12"/>
			<point x="466" y="28"/>
			<point x="500" y="94" type="curve"/>
			<point x="438" y="138" type="line"/>
			<point x="414" y="102"/>
			<point x="382" y="82"/>
			<point x="336" y="82" type="curve" smooth="yes"/>
			<point x="247" y="82"/>
			<point x="196" y="172"/>
			<point x="196" y="320" type="curve" smooth="yes"/>
			<point x="196" y="467"/>
			<point x="246" y="556"/>
			<point x="337" y="556" type="curve" smooth="yes"/>
			<point x="378" y="556"/>
			<point x="406" y="540"/>
			<point x="432" y="508" type="curve"/>
			<point x="492" y="564" type="line"/>
			<point x="460" y="614"/>
			<point x="405" y="648"/>
			<point x="331" y="648" type="curve" smooth="yes"/>
			<point x="187" y="648"/>
			<point x="76" y="524"/>
			<point x="76" y="316" type="curve" smooth="yes"/>
			<point x="76" y="106"/>
			<point x="182" y="-12"/>
		</contour>
		<contour>
			<point x="22" y="220" type="line"/>
			<point x="396" y="220" type="line"/>
			<point x="396" y="288" type="line"/>
			<point x="93" y="288" type="line"/>
			<point x="22" y="282" type="line"/>
		</contour>
		<contour>
			<point x="22" y="348" type="line"/>
			<point x="436" y="348" type="line"/>
			<point x="436" y="416" type="line"/>
			<point x="94" y="416" type="line"/>
			<point x="22" y="410" type="line"/>
		</contour>
	</outline>
</glyph>
<glyph name="Gamma" format="1">
	<advance width="510"/>
	<outline>
		<contour>
			<point x="83" y="0" type="line"/>
			<point x="199" y="0" type="line"/>
			<point x="199" y="556" type="line"/>
			<point x="478" y="556" type="line"/>
			<point x="478" y="654" type="line"/>
			<point x="83" y="654" type="line"/>
		</contour>
	</outline>
</glyph>
<glyph name="Gamma.sc" format="1">
	<advance width="460"/>
	<outline>
		<contour>
			<point x="83" y="0" type="line"/>
			<point x="199" y="0" type="line"/>
			<point x="199" y="427" type="line"/>
			<point x="429" y="427" type="line"/>
			<point x="429" y="523" type="line"/>
			<point x="83" y="523" type="line"/>
		</contour>
	</outline>
</glyph>
<glyph name="Ghe.sc" format="1">
	<advance width="460"/>
	<outline>
		<component base="Gamma.sc"/>
		<contour>
			<point name="aboveUC" x="272" y="545" type="move"/>
		</contour>
	</outline>
</glyph>
<glyph name="Ghestroke.sc" format="1">
	<advance width="484"/>
	<outline>
		<contour>
			<point x="30" y="206" type="line"/>
			<point x="360" y="206" type="line"/>
			<point x="360" y="294" type="line"/>
			<point x="109" y="294" type="line"/>
			<point x="30" y="289" type="line"/>
		</contour>
		<component base="Ghe.sc" xOffset="24"/>
	</outline>
</glyph>
<glyph name="Ghook.sc" format="2">
	<advance width="564"/>
	<outline>
		<contour>
			<point x="316" y="-12" type="curve" smooth="yes"/>
			<point x="394" y="-12"/>
			<point x="462" y="14"/>
			<point x="502" y="50" type="curve"/>
			<point x="502" y="292" type="line"/>
			<point x="300" y="292" type="line"/>
			<point x="300" y="204" type="line"/>
			<point x="396" y="204" type="line"/>
			<point x="396" y="104" type="line"/>
			<point x="378" y="92"/>
			<point x="354" y="84"/>
			<point x="326" y="84" type="curve" smooth="yes"/>
			<point x="222" y="84"/>
			<point x="170" y="152"/>
			<point x="170" y="260" type="curve" smooth="yes"/>
			<point x="170" y="372"/>
			<point x="232" y="438"/>
			<point x="323" y="438" type="curve" smooth="yes"/>
			<point x="372" y="438"/>
			<point x="400" y="426"/>
			<point x="428" y="404" type="curve"/>
			<point x="492" y="474" type="line"/>
			<point x="454" y="504"/>
			<point x="399" y="536"/>
			<point x="322" y="536" type="curve" smooth="yes"/>
			<point x="168" y="536"/>
			<point x="48" y="434"/>
			<point x="48" y="260" type="curve" smooth="yes"/>
			<point x="48" y="81"/>
			<point x="164" y="-12"/>
		</contour>
		<contour>
			<point x="392" y="472" type="curve"/>
			<point x="492" y="474" type="line"/>
			<point x="477" y="490"/>
			<point x="466" y="509"/>
			<point x="466" y="530" type="curve" smooth="yes"/>
			<point x="466" y="554"/>
			<point x="483" y="568"/>
			<point x="510" y="568" type="curve" smooth="yes"/>
			<point x="518" y="568"/>
			<point x="526" y="566"/>
			<point x="534" y="564" type="curve"/>
			<point x="556" y="646" type="line"/>
			<point x="538" y="654"/>
			<point x="518" y="658"/>
			<point x="486" y="658" type="curve" smooth="yes"/>
			<point x="411" y="658"/>
			<point x="366" y="608"/>
			<point x="366" y="548" type="curve" smooth="yes"/>
			<point x="366" y="524"/>
			<point x="378" y="498"/>
		</contour>
	</outline>
</glyph>
<glyph name="H" format="2">
	<advance width="663"/>
	<outline>
		<contour>
			<point x="83" y="0" type="line"/>
			<point x="199" y="0" type="line"/>
			<point x="199" y="290" type="line"/>
			<point x="464" y="290" type="line"/>
			<point x="464" y="0" type="line"/>
			<point x="580" y="0" type="line"/>
			<point x="580" y="654" type="line"/>
			<point x="464" y="654" type="line"/>
			<point x="464" y="391" type="line"/>
			<point x="199" y="391" type="line"/>
			<point x="199" y="654" type="line"/>
			<point x="83" y="654" type="line"/>
		</contour>
	</outline>
	<anchor name="aboveUC" x="331" y="676"/>
	<anchor name="belowLC" x="331" y="-22"/>
</glyph>
<glyph name="H.sc" format="2">
	<advance width="609"/>
	<outline>
		<contour>
			<point x="83" y="0" type="line"/>
			<point x="202" y="0" type="line"/>
			<point x="202" y="219" type="line"/>
			<point x="408" y="219" type="line"/>
			<point x="408" y="0" type="line"/>
			<point x="527" y="0" type="line"/>
			<point x="527" y="524" type="line"/>
			<point x="408" y="524" type="line"/>
			<point x="408" y="322" type="line"/>
			<point x="202" y="322" type="line"/>
			<point x="202" y="524" type="line"/>
			<point x="83" y="524" type="line"/>
		</contour>
	</outline>
	<anchor name="aboveUC" x="305" y="563"/>
	<anchor name="belowLC" x="305" y="-22"/>
</glyph>
<glyph name="Hbar" format="2">
	<advance width="700"/>
	<outline>
		<contour>
			<point x="28" y="476" type="line"/>
			<point x="671" y="476" type="line"/>
			<point x="671" y="563" type="line"/>
			<point x="107" y="563" type="line"/>
			<point x="28" y="558" type="line"/>
		</contour>
		<component base="H" xOffset="20"/>
	</outline>
</glyph>
<glyph name="Hbar.sc" format="2">
	<advance width="646"/>
	<outline>
		<contour>
			<point x="28" y="374" type="line"/>
			<point x="617" y="374" type="line"/>
			<point x="617" y="456" type="line"/>
			<point x="107" y="456" type="line"/>
			<point x="28" y="450" type="line"/>
		</contour>
		<contour>
			<point x="103" y="0" type="line"/>
			<point x="219" y="0" type="line"/>
			<point x="219" y="222" type="line"/>
			<point x="429" y="222" type="line"/>
			<point x="429" y="0" type="line"/>
			<point x="545" y="0" type="line"/>
			<point x="545" y="523" type="line"/>
			<point x="429" y="523" type="line"/>
			<point x="429" y="320" type="line"/>
			<point x="219" y="320" type="line"/>
			<point x="219" y="523" type="line"/>
			<point x="103" y="523" type="line"/>
		</contour>
	</outline>
</glyph>
<glyph name="I.sc" format="2">
	<advance width="282"/>
	<outline>
		<contour>
			<point x="83" y="0" type="line"/>
			<point x="199" y="0" type="line"/>
			<point x="199" y="523" type="line"/>
			<point x="83" y="523" type="line"/>
		</contour>
	</outline>
	<anchor name="aboveUC" x="142" y="562"/>
	<anchor name="belowLC" x="142" y="-22"/>
	<anchor name="ogonekUC" x="135" y="0"/>
</glyph>
<glyph name="Icyr" format="2">
	<advance width="670"/>
	<outline>
		<contour>
			<point x="83" y="0" type="line"/>
			<point x="212" y="0" type="line"/>
			<point x="414" y="364" type="line"/>
			<point x="481" y="508" type="line"/>
			<point x="485" y="508" type="line"/>
			<point x="478" y="440"/>
			<point x="468" y="356"/>
			<point x="468" y="284" type="curve" smooth="yes"/>
			<point x="468" y="0" type="line"/>
			<point x="587" y="0" type="line"/>
			<point x="585" y="654" type="line"/>
			<point x="456" y="654" type="line"/>
			<point x="254" y="290" type="line"/>
			<point x="187" y="146" type="line"/>
			<point x="183" y="146" type="line"/>
			<point x="190" y="214"/>
			<point x="200" y="297"/>
			<point x="200" y="370" type="curve" smooth="yes"/>
			<point x="200" y="654" type="line"/>
			<point x="83" y="654" type="line"/>
		</contour>
	</outline>
	<anchor name="aboveUC" x="340" y="682"/>
</glyph>
<glyph name="Icyr.sc" format="2">
	<advance width="598"/>
	<outline>
		<contour>
			<point x="82" y="0" type="line"/>
			<point x="204" y="0" type="line"/>
			<point x="358" y="268" type="line" smooth="yes"/>
			<point x="376" y="300"/>
			<point x="394" y="338"/>
			<point x="416" y="388" type="curve"/>
			<point x="420" y="388" type="line"/>
			<point x="414" y="330"/>
			<point x="404" y="254"/>
			<point x="404" y="194" type="curve" smooth="yes"/>
			<point x="404" y="0" type="line"/>
			<point x="514" y="0" type="line"/>
			<point x="514" y="524" type="line"/>
			<point x="392" y="524" type="line"/>
			<point x="236" y="255" type="line" smooth="yes"/>
			<point x="218" y="224"/>
			<point x="201" y="186"/>
			<point x="180" y="136" type="curve"/>
			<point x="176" y="136" type="line"/>
			<point x="182" y="190"/>
			<point x="192" y="270"/>
			<point x="192" y="330" type="curve" smooth="yes"/>
			<point x="192" y="524" type="line"/>
			<point x="82" y="524" type="line"/>
		</contour>
	</outline>
	<anchor name="aboveUC" x="305" y="546"/>
</glyph>
<glyph name="Istroke.sc" format="2">
	<advance width="320"/>
	<outline>
		<contour>
			<point x="28" y="228" type="line"/>
			<point x="291" y="228" type="line"/>
			<point x="291" y="306" type="line"/>
			<point x="108" y="306" type="line"/>
			<point x="28" y="301" type="line"/>
		</contour>
		<component base="I.sc" xOffset="20"/>
	</outline>
	<anchor name="aboveUC" x="162" y="562"/>
	<anchor name="belowLC" x="162" y="-22"/>
</glyph>
<glyph name="Lambdabar.sc" format="2">
	<advance width="442"/>
	<outline>
		<contour>
			<point x="20" y="382" type="line"/>
			<point x="422" y="382" type="line"/>
			<point x="422" y="470" type="line"/>
			<point x="110" y="470" type="line"/>
			<point x="20" y="464" type="line"/>
		</contour>
		<component base="Lambda.ls"/>
	</outline>
	<anchor name="aboverightUC" x="366" y="562"/>
	<anchor name="aboveUC" x="226" y="562"/>
	<anchor name="belowLC" x="226" y="-22"/>
</glyph>
<glyph name="Lbar.sc" format="2">
	<advance width="476"/>
	<outline>
		<contour>
			<point x="30" y="248" type="line"/>
			<point x="368" y="248" type="line"/>
			<point x="368" y="336" type="line"/>
			<point x="110" y="336" type="line"/>
			<point x="30" y="332" type="line"/>
		</contour>
		<component base="L.sc" xOffset="26"/>
	</outline>
	<anchor name="aboveUC" x="170" y="562"/>
	<anchor name="belowLC" x="292" y="-22"/>
</glyph>
<glyph name="Lbardbl" format="2">
	<advance width="526"/>
	<outline>
		<contour>
			<point x="30" y="260" type="line"/>
			<point x="409" y="260" type="line"/>
			<point x="409" y="328" type="line"/>
			<point x="110" y="328" type="line"/>
			<point x="30" y="322" type="line"/>
		</contour>
		<contour>
			<point x="30" y="388" type="line"/>
			<point x="409" y="388" type="line"/>
			<point x="409" y="456" type="line"/>
			<point x="110" y="456" type="line"/>
			<point x="30" y="450" type="line"/>
		</contour>
		<component base="L" xOffset="26"/>
	</outline>
	<anchor name="aboveUC" x="170" y="676"/>
	<anchor name="belowLC" x="312" y="-22"/>
</glyph>
<glyph name="Lje.as" format="2">
	<advance width="711"/>
	<outline>
		<contour>
			<point x="-4" y="0" type="line"/>
			<point x="112" y="0" type="line"/>
			<point x="184" y="248" type="line" smooth="yes"/>
			<point x="201" y="306"/>
			<point x="214" y="358"/>
			<point x="230" y="416" type="curve"/>
			<point x="234" y="416" type="line"/>
			<point x="250" y="358"/>
			<point x="261" y="306"/>
			<point x="278" y="248" type="curve" smooth="yes"/>
			<point x="350" y="0" type="line"/>
			<point x="454" y="0" type="line" smooth="yes"/>
			<point x="578" y="0"/>
			<point x="672" y="45"/>
			<point x="672" y="170" type="curve" smooth="yes"/>
			<point x="672" y="290"/>
			<point x="582" y="336"/>
			<point x="456" y="336" type="curve" smooth="yes"/>
			<point x="362" y="336" type="line"/>
			<point x="302" y="523" type="line"/>
			<point x="165" y="523" type="line"/>
		</contour>
		<contour>
			<point x="443" y="92" type="line"/>
			<point x="390" y="248" type="line"/>
			<point x="446" y="248" type="line" smooth="yes"/>
			<point x="524" y="248"/>
			<point x="562" y="226"/>
			<point x="562" y="174" type="curve" smooth="yes"/>
			<point x="562" y="116"/>
			<point x="520" y="92"/>
			<point x="447" y="92" type="curve" smooth="yes"/>
		</contour>
	</outline>
</glyph>
<glyph name="Lje.sc" format="2">
	<advance width="776"/>
	<outline>
		<contour>
			<point x="56" y="-12" type="curve" smooth="yes"/>
			<point x="140" y="-12"/>
			<point x="184" y="38"/>
			<point x="222" y="212" type="curve" smooth="yes"/>
			<point x="236" y="278"/>
			<point x="250" y="354"/>
			<point x="264" y="426" type="curve"/>
			<point x="354" y="426" type="line"/>
			<point x="354" y="0" type="line"/>
			<point x="520" y="0" type="line" smooth="yes"/>
			<point x="644" y="0"/>
			<point x="738" y="45"/>
			<point x="738" y="172" type="curve" smooth="yes"/>
			<point x="738" y="292"/>
			<point x="646" y="338"/>
			<point x="520" y="338" type="curve" smooth="yes"/>
			<point x="473" y="338" type="line"/>
			<point x="473" y="524" type="line"/>
			<point x="174" y="524" type="line"/>
			<point x="156" y="422"/>
			<point x="134" y="324"/>
			<point x="112" y="226" type="curve" smooth="yes"/>
			<point x="86" y="112"/>
			<point x="66" y="98"/>
			<point x="39" y="98" type="curve" smooth="yes"/>
			<point x="31" y="98"/>
			<point x="24" y="100"/>
			<point x="16" y="102" type="curve"/>
			<point x="-6" y="-4" type="line"/>
			<point x="11" y="-10"/>
			<point x="31" y="-12"/>
		</contour>
		<contour>
			<point x="473" y="94" type="line"/>
			<point x="473" y="248" type="line"/>
			<point x="512" y="248" type="line" smooth="yes"/>
			<point x="586" y="248"/>
			<point x="624" y="226"/>
			<point x="624" y="174" type="curve" smooth="yes"/>
			<point x="624" y="116"/>
			<point x="582" y="94"/>
			<point x="512" y="94" type="curve" smooth="yes"/>
		</contour>
	</outline>
</glyph>
<glyph name="M" format="1">
  <advance width="746"/>
  <outline>
    <contour>
      <point x="82" y="0" type="line"/>
      <point x="190" y="0" type="line"/>
      <point x="190" y="298" type="line" smooth="yes"/>
      <point x="190" y="360"/>
      <point x="180" y="450"/>
      <point x="172" y="510" type="curve"/>
      <point x="176" y="510" type="line"/>
      <point x="228" y="352" type="line"/>
      <point x="332" y="60" type="line"/>
      <point x="410" y="60" type="line"/>
      <point x="516" y="352" type="line"/>
      <point x="568" y="510" type="line"/>
      <point x="572" y="510" type="line"/>
      <point x="564" y="450"/>
      <point x="554" y="360"/>
      <point x="554" y="298" type="curve" smooth="yes"/>
      <point x="554" y="0" type="line"/>
      <point x="664" y="0" type="line"/>
      <point x="664" y="654" type="line"/>
      <point x="524" y="654" type="line"/>
      <point x="412" y="334" type="line"/>
      <point x="398" y="292"/>
      <point x="388" y="254"/>
      <point x="376" y="206" type="curve"/>
      <point x="372" y="206" type="line"/>
      <point x="360" y="254"/>
      <point x="348" y="292"/>
      <point x="334" y="334" type="curve"/>
      <point x="222" y="654" type="line"/>
      <point x="82" y="654" type="line"/>
    </contour>
    <contour>
      <point x="373" y="676" type="move" name="aboveUC"/>
    </contour>
    <contour>
      <point x="375" y="-22" type="move" name="belowLC"/>
    </contour>
  </outline>
</glyph>
<glyph name="M.sups" format="2">
	<advance width="502"/>
	<outline>
		<contour>
			<point x="53" y="384" type="line"/>
			<point x="132" y="384" type="line"/>
			<point x="132" y="571" type="line" smooth="yes"/>
			<point x="132" y="612"/>
			<point x="128" y="663"/>
			<point x="122" y="709" type="curve"/>
			<point x="124" y="709" type="line"/>
			<point x="156" y="605" type="line"/>
			<point x="224" y="423" type="line"/>
			<point x="276" y="423" type="line"/>
			<point x="344" y="605" type="line"/>
			<point x="376" y="709" type="line"/>
			<point x="378" y="709" type="line"/>
			<point x="372" y="663"/>
			<point x="367" y="612"/>
			<point x="367" y="571" type="curve" smooth="yes"/>
			<point x="367" y="384" type="line"/>
			<point x="448" y="384" type="line"/>
			<point x="448" y="816" type="line"/>
			<point x="352" y="816" type="line"/>
			<point x="276" y="609" type="line"/>
			<point x="254" y="527" type="line"/>
			<point x="251" y="527" type="line"/>
			<point x="228" y="609" type="line"/>
			<point x="148" y="816" type="line"/>
			<point x="53" y="816" type="line"/>
		</contour>
	</outline>
</glyph>
<glyph name="N" format="2">
	<advance width="656"/>
	<outline>
		<contour>
			<point x="83" y="0" type="line"/>
			<point x="194" y="0" type="line"/>
			<point x="194" y="286" type="line" smooth="yes"/>
			<point x="194" y="359"/>
			<point x="186" y="440"/>
			<point x="179" y="508" type="curve"/>
			<point x="183" y="508" type="line"/>
			<point x="204" y="456"/>
			<point x="226" y="404"/>
			<point x="250" y="360" type="curve" smooth="yes"/>
			<point x="446" y="0" type="line"/>
			<point x="573" y="0" type="line"/>
			<point x="573" y="654" type="line"/>
			<point x="462" y="654" type="line"/>
			<point x="462" y="368" type="line" smooth="yes"/>
			<point x="462" y="296"/>
			<point x="470" y="216"/>
			<point x="477" y="146" type="curve"/>
			<point x="473" y="146" type="line"/>
			<point x="452" y="198"/>
			<point x="430" y="250"/>
			<point x="406" y="294" type="curve" smooth="yes"/>
			<point x="210" y="654" type="line"/>
			<point x="83" y="654" type="line"/>
		</contour>
	</outline>
	<anchor name="aboveUC" x="336" y="676"/>
	<anchor name="belowLC" x="339" y="-22"/>
</glyph>
<glyph name="N.sups" format="2">
	<advance width="438"/>
	<outline>
		<contour>
			<point x="53" y="385" type="line"/>
			<point x="131" y="385" type="line"/>
			<point x="131" y="565" type="line" smooth="yes"/>
			<point x="131" y="613"/>
			<point x="128" y="664"/>
			<point x="122" y="714" type="curve"/>
			<point x="125" y="714" type="line"/>
			<point x="170" y="614" type="line"/>
			<point x="294" y="385" type="line"/>
			<point x="386" y="385" type="line"/>
			<point x="386" y="817" type="line"/>
			<point x="308" y="817" type="line"/>
			<point x="308" y="640" type="line" smooth="yes"/>
			<point x="308" y="591"/>
			<point x="310" y="536"/>
			<point x="317" y="488" type="curve"/>
			<point x="314" y="488" type="line"/>
			<point x="270" y="588" type="line"/>
			<point x="146" y="817" type="line"/>
			<point x="53" y="817" type="line"/>
		</contour>
	</outline>
</glyph>
<glyph name="Nje.sc" format="2">
	<advance width="815"/>
	<outline>
		<contour>
			<point x="83" y="0" type="line"/>
			<point x="202" y="0" type="line"/>
			<point x="202" y="219" type="line"/>
			<point x="393" y="219" type="line"/>
			<point x="393" y="0" type="line"/>
			<point x="558" y="0" type="line" smooth="yes"/>
			<point x="683" y="0"/>
			<point x="778" y="44"/>
			<point x="778" y="172" type="curve" smooth="yes"/>
			<point x="778" y="292"/>
			<point x="687" y="338"/>
			<point x="558" y="338" type="curve" smooth="yes"/>
			<point x="512" y="338" type="line"/>
			<point x="512" y="524" type="line"/>
			<point x="393" y="524" type="line"/>
			<point x="393" y="322" type="line"/>
			<point x="202" y="322" type="line"/>
			<point x="202" y="524" type="line"/>
			<point x="83" y="524" type="line"/>
		</contour>
		<contour>
			<point x="512" y="94" type="line"/>
			<point x="512" y="248" type="line"/>
			<point x="550" y="248" type="line" smooth="yes"/>
			<point x="624" y="248"/>
			<point x="662" y="226"/>
			<point x="662" y="174" type="curve" smooth="yes"/>
			<point x="662" y="116"/>
			<point x="620" y="94"/>
			<point x="549" y="94" type="curve" smooth="yes"/>
		</contour>
	</outline>
</glyph>
<glyph name="O" format="2">
	<advance width="675"/>
	<outline>
		<contour>
			<point x="338" y="-12" type="curve" smooth="yes"/>
			<point x="509" y="-12"/>
			<point x="627" y="118"/>
			<point x="627" y="330" type="curve" smooth="yes"/>
			<point x="627" y="541"/>
			<point x="509" y="666"/>
			<point x="338" y="666" type="curve" smooth="yes"/>
			<point x="167" y="666"/>
			<point x="49" y="541"/>
			<point x="49" y="330" type="curve" smooth="yes"/>
			<point x="49" y="118"/>
			<point x="167" y="-12"/>
		</contour>
		<contour>
			<point x="338" y="91" type="curve" smooth="yes"/>
			<point x="236" y="91"/>
			<point x="171" y="184"/>
			<point x="171" y="330" type="curve" smooth="yes"/>
			<point x="171" y="475"/>
			<point x="236" y="562"/>
			<point x="338" y="562" type="curve" smooth="yes"/>
			<point x="439" y="562"/>
			<point x="505" y="475"/>
			<point x="505" y="330" type="curve" smooth="yes"/>
			<point x="505" y="184"/>
			<point x="439" y="91"/>
		</contour>
	</outline>
	<anchor name="aboveUC" x="338" y="676"/>
	<anchor name="belowLC" x="338" y="-22"/>
	<anchor name="hornLC" x="477" y="644"/>
	<anchor name="ogonekUC" x="338" y="0"/>
	<anchor name="aboverightUC" x="572" y="676"/>
</glyph>
<glyph name="O.sc" format="2">
	<advance width="604"/>
	<outline>
		<contour>
			<point x="303" y="-12" type="curve" smooth="yes"/>
			<point x="451" y="-12"/>
			<point x="555" y="92"/>
			<point x="555" y="263" type="curve" smooth="yes"/>
			<point x="555" y="436"/>
			<point x="451" y="536"/>
			<point x="303" y="536" type="curve" smooth="yes"/>
			<point x="153" y="536"/>
			<point x="49" y="436"/>
			<point x="49" y="263" type="curve" smooth="yes"/>
			<point x="49" y="92"/>
			<point x="153" y="-12"/>
		</contour>
		<contour>
			<point x="303" y="86" type="curve" smooth="yes"/>
			<point x="221" y="86"/>
			<point x="171" y="155"/>
			<point x="171" y="263" type="curve" smooth="yes"/>
			<point x="171" y="373"/>
			<point x="221" y="437"/>
			<point x="303" y="437" type="curve" smooth="yes"/>
			<point x="383" y="437"/>
			<point x="433" y="373"/>
			<point x="433" y="263" type="curve" smooth="yes"/>
			<point x="433" y="155"/>
			<point x="383" y="86"/>
		</contour>
	</outline>
	<anchor name="aboveUC" x="300" y="563"/>
	<anchor name="belowLC" x="300" y="-22"/>
	<anchor name="hornLC" x="433" y="504"/>
	<anchor name="ogonekUC" x="300" y="0"/>
	<anchor name="aboverightUC" x="532" y="563"/>
</glyph>
<glyph name="P.sc" format="2">
	<advance width="538"/>
	<outline>
		<contour>
			<point x="83" y="0" type="line"/>
			<point x="202" y="0" type="line"/>
			<point x="202" y="176" type="line"/>
			<point x="280" y="176" type="line" smooth="yes"/>
			<point x="402" y="176"/>
			<point x="498" y="230"/>
			<point x="498" y="354" type="curve" smooth="yes"/>
			<point x="498" y="483"/>
			<point x="404" y="524"/>
			<point x="280" y="524" type="curve" smooth="yes"/>
			<point x="83" y="524" type="line"/>
		</contour>
		<contour>
			<point x="202" y="266" type="line"/>
			<point x="202" y="428" type="line"/>
			<point x="274" y="428" type="line" smooth="yes"/>
			<point x="348" y="428"/>
			<point x="384" y="406"/>
			<point x="384" y="350" type="curve" smooth="yes"/>
			<point x="384" y="295"/>
			<point x="348" y="266"/>
			<point x="275" y="266" type="curve" smooth="yes"/>
		</contour>
	</outline>
	<anchor name="aboveUC" x="294" y="563"/>
	<anchor name="belowLC" x="150" y="-22"/>
</glyph>
<glyph name="R.sc" format="2">
	<advance width="544"/>
	<outline>
		<contour>
			<point x="83" y="0" type="line"/>
			<point x="202" y="0" type="line"/>
			<point x="202" y="188" type="line"/>
			<point x="281" y="188" type="line" smooth="yes"/>
			<point x="398" y="188"/>
			<point x="492" y="248"/>
			<point x="492" y="360" type="curve" smooth="yes"/>
			<point x="492" y="485"/>
			<point x="398" y="524"/>
			<point x="278" y="524" type="curve" smooth="yes"/>
			<point x="83" y="524" type="line"/>
		</contour>
		<contour>
			<point x="202" y="276" type="line"/>
			<point x="202" y="430" type="line"/>
			<point x="268" y="430" type="line" smooth="yes"/>
			<point x="339" y="430"/>
			<point x="379" y="408"/>
			<point x="379" y="354" type="curve" smooth="yes"/>
			<point x="379" y="304"/>
			<point x="342" y="276"/>
			<point x="270" y="276" type="curve" smooth="yes"/>
		</contour>
		<contour>
			<point x="390" y="0" type="line"/>
			<point x="516" y="0" type="line"/>
			<point x="360" y="252" type="line"/>
			<point x="260" y="220" type="line"/>
		</contour>
	</outline>
	<anchor name="aboveUC" x="292" y="563"/>
	<anchor name="belowLC" x="296" y="-22"/>
</glyph>
<glyph name="Schwa.sc" format="1">
	<advance width="593"/>
	<outline>
		<contour>
			<point x="297" y="-12" type="curve" smooth="yes"/>
			<point x="441" y="-12"/>
			<point x="544" y="92"/>
			<point x="544" y="262" type="curve" smooth="yes"/>
			<point x="544" y="433"/>
			<point x="443" y="535"/>
			<point x="298" y="535" type="curve" smooth="yes"/>
			<point x="220" y="535"/>
			<point x="156" y="506"/>
			<point x="111" y="466" type="curve"/>
			<point x="162" y="395" type="line"/>
			<point x="196" y="422"/>
			<point x="236" y="443"/>
			<point x="290" y="443" type="curve" smooth="yes"/>
			<point x="380" y="443"/>
			<point x="430" y="379"/>
			<point x="430" y="266" type="curve" smooth="yes"/>
			<point x="430" y="139"/>
			<point x="377" y="79"/>
			<point x="296" y="79" type="curve" smooth="yes"/>
			<point x="223" y="79"/>
			<point x="172" y="126"/>
			<point x="166" y="210" type="curve"/>
			<point x="458" y="210" type="line"/>
			<point x="458" y="302" type="line"/>
			<point x="58" y="302" type="line"/>
			<point x="56" y="287"/>
			<point x="54" y="272"/>
			<point x="54" y="259" type="curve" smooth="yes"/>
			<point x="54" y="92"/>
			<point x="152" y="-12"/>
		</contour>
		<contour>
			<point name="aboveUC" x="312" y="563" type="move"/>
		</contour>
		<contour>
			<point name="belowLC" x="304" y="-22" type="move"/>
		</contour>
	</outline>
</glyph>
<glyph name="Soft.sc" format="2">
	<advance width="534"/>
	<outline>
		<contour>
			<point x="83" y="0" type="line"/>
			<point x="278" y="0" type="line" smooth="yes"/>
			<point x="402" y="0"/>
			<point x="496" y="45"/>
			<point x="496" y="172" type="curve" smooth="yes"/>
			<point x="496" y="292"/>
			<point x="404" y="338"/>
			<point x="278" y="338" type="curve" smooth="yes"/>
			<point x="202" y="338" type="line"/>
			<point x="202" y="524" type="line"/>
			<point x="83" y="524" type="line"/>
		</contour>
		<contour>
			<point x="202" y="94" type="line"/>
			<point x="202" y="248" type="line"/>
			<point x="268" y="248" type="line" smooth="yes"/>
			<point x="342" y="248"/>
			<point x="380" y="226"/>
			<point x="380" y="174" type="curve" smooth="yes"/>
			<point x="380" y="116"/>
			<point x="338" y="94"/>
			<point x="268" y="94" type="curve" smooth="yes"/>
		</contour>
	</outline>
</glyph>
<glyph name="T" format="1">
	<advance width="546"/>
	<outline>
		<contour>
			<point x="215" y="0" type="line"/>
			<point x="331" y="0" type="line"/>
			<point x="331" y="556" type="line"/>
			<point x="520" y="556" type="line"/>
			<point x="520" y="654" type="line"/>
			<point x="26" y="654" type="line"/>
			<point x="26" y="556" type="line"/>
			<point x="215" y="556" type="line"/>
		</contour>
		<contour>
			<point name="aboveUC" x="272" y="676" type="move"/>
		</contour>
		<contour>
			<point name="baseLC" x="272" y="0" type="move"/>
		</contour>
		<contour>
			<point name="belowLC" x="272" y="-22" type="move"/>
		</contour>
	</outline>
</glyph>
<glyph name="T.sc" format="1">
	<advance width="479"/>
	<outline>
		<contour>
			<point x="182" y="0" type="line"/>
			<point x="298" y="0" type="line"/>
			<point x="298" y="428" type="line"/>
			<point x="453" y="428" type="line"/>
			<point x="453" y="523" type="line"/>
			<point x="26" y="523" type="line"/>
			<point x="26" y="428" type="line"/>
			<point x="182" y="428" type="line"/>
		</contour>
	</outline>
</glyph>
<glyph name="Tbar" format="1">
	<advance width="546"/>
	<outline>
		<contour>
			<point x="94" y="282" type="line"/>
			<point x="452" y="282" type="line"/>
			<point x="452" y="368" type="line"/>
			<point x="186" y="368" type="line"/>
			<point x="94" y="364" type="line"/>
		</contour>
		<component base="T"/>
		<contour>
			<point name="aboveUC" x="272" y="676" type="move"/>
		</contour>
		<contour>
			<point name="belowLC" x="272" y="-22" type="move"/>
		</contour>
	</outline>
</glyph>
<glyph name="Tbar.sc" format="1">
	<advance width="479"/>
	<outline>
		<contour>
			<point x="61" y="206" type="line"/>
			<point x="418" y="206" type="line"/>
			<point x="418" y="294" type="line"/>
			<point x="152" y="294" type="line"/>
			<point x="61" y="289" type="line"/>
		</contour>
		<component base="T.sc"/>
		<contour>
			<point name="aboveUC" x="240" y="563" type="move"/>
		</contour>
		<contour>
			<point name="belowLC" x="240" y="-22" type="move"/>
		</contour>
	</outline>
</glyph>
<glyph name="Theta.sc" format="2">
	<advance width="604"/>
	<outline>
		<contour>
			<point x="303" y="-12" type="curve" smooth="yes"/>
			<point x="452" y="-12"/>
			<point x="556" y="90"/>
			<point x="556" y="264" type="curve" smooth="yes"/>
			<point x="556" y="438"/>
			<point x="452" y="536"/>
			<point x="303" y="536" type="curve" smooth="yes"/>
			<point x="151" y="536"/>
			<point x="48" y="438"/>
			<point x="48" y="264" type="curve" smooth="yes"/>
			<point x="48" y="90"/>
			<point x="151" y="-12"/>
		</contour>
		<contour>
			<point x="303" y="80" type="curve" smooth="yes"/>
			<point x="217" y="80"/>
			<point x="166" y="149"/>
			<point x="166" y="264" type="curve" smooth="yes"/>
			<point x="166" y="380"/>
			<point x="217" y="444"/>
			<point x="303" y="444" type="curve" smooth="yes"/>
			<point x="386" y="444"/>
			<point x="438" y="380"/>
			<point x="438" y="264" type="curve" smooth="yes"/>
			<point x="438" y="149"/>
			<point x="386" y="80"/>
		</contour>
		<contour>
			<point x="218" y="222" type="line"/>
			<point x="386" y="222" type="line"/>
			<point x="386" y="316" type="line"/>
			<point x="218" y="316" type="line"/>
		</contour>
	</outline>
</glyph>
<glyph name="Tstroke" format="2">
	<advance width="546"/>
	<outline>
		<contour>
			<point x="74" y="-38" type="line"/>
			<point x="574" y="680" type="line"/>
			<point x="536" y="704" type="line"/>
			<point x="36" y="-14" type="line"/>
		</contour>
		<component base="T"/>
	</outline>
	<anchor name="aboveUC" x="272" y="676"/>
	<anchor name="belowLC" x="272" y="-22"/>
</glyph>
<glyph name="Tstroke.sc" format="2">
	<advance width="479"/>
	<outline>
		<contour>
			<point x="70" y="-38" type="line"/>
			<point x="510" y="552" type="line"/>
			<point x="476" y="576" type="line"/>
			<point x="36" y="-14" type="line"/>
		</contour>
		<component base="T.sc"/>
	</outline>
	<anchor name="aboveUC" x="240" y="562"/>
	<anchor name="belowLC" x="240" y="-22"/>
</glyph>
<glyph name="U.sc" format="2">
	<advance width="595"/>
	<outline>
		<contour>
			<point x="300" y="-12" type="curve" smooth="yes"/>
			<point x="434" y="-12"/>
			<point x="515" y="55"/>
			<point x="515" y="230" type="curve" smooth="yes"/>
			<point x="515" y="523" type="line"/>
			<point x="405" y="523" type="line"/>
			<point x="405" y="226" type="line" smooth="yes"/>
			<point x="405" y="119"/>
			<point x="365" y="84"/>
			<point x="300" y="84" type="curve" smooth="yes"/>
			<point x="235" y="84"/>
			<point x="195" y="119"/>
			<point x="195" y="226" type="curve" smooth="yes"/>
			<point x="195" y="523" type="line"/>
			<point x="80" y="523" type="line"/>
			<point x="80" y="230" type="line" smooth="yes"/>
			<point x="80" y="55"/>
			<point x="165" y="-12"/>
		</contour>
	</outline>
	<anchor name="aboveUC" x="299" y="562"/>
	<anchor name="belowLC" x="299" y="-22"/>
	<anchor name="hornLC" x="475" y="534"/>
	<anchor name="ogonekUC" x="299" y="0"/>
</glyph>
<glyph name="Ubar.sc" format="2">
	<advance width="639"/>
	<outline>
		<contour>
			<point x="28" y="256" type="line"/>
			<point x="611" y="256" type="line"/>
			<point x="611" y="334" type="line"/>
			<point x="108" y="334" type="line"/>
			<point x="28" y="329" type="line"/>
		</contour>
		<component base="U.sc" xOffset="23"/>
	</outline>
	<anchor name="aboveUC" x="322" y="562"/>
	<anchor name="belowLC" x="322" y="-22"/>
</glyph>
<glyph name="Ustraightstroke" format="1">
	<advance width="501"/>
	<outline>
		<contour>
			<point x="52" y="218" type="line"/>
			<point x="449" y="218" type="line"/>
			<point x="449" y="304" type="line"/>
			<point x="143" y="304" type="line"/>
			<point x="52" y="300" type="line"/>
		</contour>
		<component base="Y"/>
	</outline>
</glyph>
<glyph name="Ustraightstroke.sc" format="1">
	<advance width="442"/>
	<outline>
		<contour>
			<point x="48" y="158" type="line"/>
			<point x="394" y="158" type="line"/>
			<point x="394" y="246" type="line"/>
			<point x="139" y="246" type="line"/>
			<point x="48" y="241" type="line"/>
		</contour>
		<component base="Ustraight.sc"/>
		<contour>
			<point name="aboveUC" x="220" y="563" type="move"/>
		</contour>
	</outline>
</glyph>
<glyph name="W.sc" format="2">
	<advance width="702"/>
	<outline>
		<contour>
			<point x="128" y="0" type="line"/>
			<point x="268" y="0" type="line"/>
			<point x="328" y="248" type="line" smooth="yes"/>
			<point x="338" y="288"/>
			<point x="346" y="334"/>
			<point x="351" y="374" type="curve"/>
			<point x="355" y="374" type="line"/>
			<point x="360" y="334"/>
			<point x="366" y="288"/>
			<point x="376" y="248" type="curve" smooth="yes"/>
			<point x="438" y="0" type="line"/>
			<point x="580" y="0" type="line"/>
			<point x="684" y="524" type="line"/>
			<point x="578" y="524" type="line"/>
			<point x="534" y="274" type="line"/>
			<point x="525" y="220"/>
			<point x="516" y="164"/>
			<point x="508" y="104" type="curve"/>
			<point x="504" y="104" type="line"/>
			<point x="494" y="164"/>
			<point x="482" y="220"/>
			<point x="470" y="274" type="curve"/>
			<point x="410" y="524" type="line"/>
			<point x="304" y="524" type="line"/>
			<point x="240" y="274" type="line"/>
			<point x="229" y="219"/>
			<point x="218" y="164"/>
			<point x="208" y="104" type="curve"/>
			<point x="204" y="104" type="line"/>
			<point x="196" y="164"/>
			<point x="187" y="218"/>
			<point x="178" y="274" type="curve"/>
			<point x="132" y="524" type="line"/>
			<point x="18" y="524" type="line"/>
		</contour>
	</outline>
	<anchor name="aboveUC" x="352" y="563"/>
	<anchor name="belowLC" x="352" y="-22"/>
</glyph>
<glyph name="W.sups" format="2">
	<advance width="540"/>
	<outline>
		<contour>
			<point x="97" y="384" type="line"/>
			<point x="208" y="384" type="line"/>
			<point x="254" y="600" type="line" smooth="yes"/>
			<point x="261" y="634"/>
			<point x="266" y="668"/>
			<point x="270" y="701" type="curve"/>
			<point x="272" y="701" type="line"/>
			<point x="276" y="668"/>
			<point x="283" y="634"/>
			<point x="290" y="600" type="curve" smooth="yes"/>
			<point x="336" y="384" type="line"/>
			<point x="447" y="384" type="line"/>
			<point x="529" y="816" type="line"/>
			<point x="448" y="816" type="line"/>
			<point x="410" y="603" type="line"/>
			<point x="403" y="557"/>
			<point x="398" y="523"/>
			<point x="394" y="465" type="curve"/>
			<point x="390" y="465" type="line"/>
			<point x="382" y="523"/>
			<point x="374" y="557"/>
			<point x="364" y="603" type="curve"/>
			<point x="312" y="816" type="line"/>
			<point x="232" y="816" type="line"/>
			<point x="184" y="603" type="line"/>
			<point x="173" y="557"/>
			<point x="164" y="523"/>
			<point x="156" y="465" type="curve"/>
			<point x="152" y="465" type="line"/>
			<point x="146" y="523"/>
			<point x="142" y="557"/>
			<point x="134" y="603" type="curve"/>
			<point x="98" y="816" type="line"/>
			<point x="10" y="816" type="line"/>
		</contour>
	</outline>
</glyph>
<glyph name="Xi.sc" format="2">
	<advance width="495"/>
	<outline>
		<contour>
			<point x="50" y="0" type="line"/>
			<point x="444" y="0" type="line"/>
			<point x="444" y="96" type="line"/>
			<point x="50" y="96" type="line"/>
		</contour>
		<contour>
			<point x="110" y="224" type="line"/>
			<point x="386" y="224" type="line"/>
			<point x="386" y="318" type="line"/>
			<point x="110" y="318" type="line"/>
		</contour>
		<contour>
			<point x="60" y="428" type="line"/>
			<point x="436" y="428" type="line"/>
			<point x="436" y="524" type="line"/>
			<point x="60" y="524" type="line"/>
		</contour>
	</outline>
</glyph>
<glyph name="Y.sc" format="2">
	<advance width="444"/>
	<outline>
		<contour>
			<point x="163" y="0" type="line"/>
			<point x="282" y="0" type="line"/>
			<point x="282" y="188" type="line"/>
			<point x="449" y="524" type="line"/>
			<point x="325" y="524" type="line"/>
			<point x="273" y="403" type="line"/>
			<point x="257" y="364"/>
			<point x="241" y="328"/>
			<point x="225" y="287" type="curve"/>
			<point x="221" y="287" type="line"/>
			<point x="204" y="328"/>
			<point x="189" y="364"/>
			<point x="174" y="403" type="curve"/>
			<point x="121" y="524" type="line"/>
			<point x="-5" y="524" type="line"/>
			<point x="163" y="188" type="line"/>
		</contour>
	</outline>
	<anchor name="aboveUC" x="221" y="563"/>
	<anchor name="belowLC" x="220" y="-22"/>
</glyph>
<glyph name="Ya.sc" format="2">
	<advance width="542"/>
	<outline>
		<contour>
			<point x="342" y="0" type="line"/>
			<point x="458" y="0" type="line"/>
			<point x="458" y="523" type="line"/>
			<point x="262" y="523" type="line" smooth="yes"/>
			<point x="144" y="523"/>
			<point x="52" y="486"/>
			<point x="52" y="362" type="curve" smooth="yes"/>
			<point x="52" y="246"/>
			<point x="144" y="188"/>
			<point x="258" y="188" type="curve" smooth="yes"/>
			<point x="342" y="188" type="line"/>
		</contour>
		<contour>
			<point x="272" y="278" type="line"/>
			<point x="200" y="278"/>
			<point x="162" y="305"/>
			<point x="162" y="356" type="curve" smooth="yes"/>
			<point x="162" y="412"/>
			<point x="200" y="432"/>
			<point x="272" y="432" type="curve" smooth="yes"/>
			<point x="342" y="432" type="line"/>
			<point x="342" y="278" type="line"/>
		</contour>
		<contour>
			<point x="16" y="0" type="line"/>
			<point x="146" y="0" type="line"/>
			<point x="288" y="220" type="line"/>
			<point x="194" y="252" type="line"/>
		</contour>
	</outline>
	<anchor name="aboveUC" x="286" y="562"/>
</glyph>
<glyph name="Yat" format="1">
	<advance width="619"/>
	<outline>
		<contour>
			<point x="155" y="0" type="line"/>
			<point x="336" y="0" type="line" smooth="yes"/>
			<point x="479" y="0"/>
			<point x="579" y="55"/>
			<point x="579" y="204" type="curve" smooth="yes"/>
			<point x="579" y="332"/>
			<point x="472" y="380"/>
			<point x="330" y="380" type="curve" smooth="yes"/>
			<point x="271" y="380" type="line"/>
			<point x="271" y="699" type="line"/>
			<point x="155" y="699" type="line"/>
		</contour>
		<contour>
			<point x="271" y="90" type="line"/>
			<point x="271" y="296" type="line"/>
			<point x="320" y="296" type="line" smooth="yes"/>
			<point x="420" y="296"/>
			<point x="465" y="268"/>
			<point x="465" y="199" type="curve" smooth="yes"/>
			<point x="465" y="120"/>
			<point x="418" y="90"/>
			<point x="326" y="90" type="curve" smooth="yes"/>
		</contour>
		<contour>
			<point x="26" y="492" type="line"/>
			<point x="496" y="492" type="line"/>
			<point x="496" y="590" type="line"/>
			<point x="26" y="590" type="line"/>
		</contour>
		<contour>
			<point name="aboveUC" x="222" y="722" type="move"/>
		</contour>
	</outline>
</glyph>
<glyph name="Yat.sc" format="2">
	<advance width="555"/>
	<outline>
		<contour>
			<point x="128" y="0" type="line"/>
			<point x="298" y="0" type="line" smooth="yes"/>
			<point x="422" y="0"/>
			<point x="516" y="44"/>
			<point x="516" y="166" type="curve" smooth="yes"/>
			<point x="516" y="282"/>
			<point x="426" y="326"/>
			<point x="298" y="326" type="curve" smooth="yes"/>
			<point x="248" y="326" type="line"/>
			<point x="248" y="570" type="line"/>
			<point x="128" y="570" type="line"/>
		</contour>
		<contour>
			<point x="248" y="88" type="line"/>
			<point x="248" y="236" type="line"/>
			<point x="290" y="236" type="line" smooth="yes"/>
			<point x="364" y="236"/>
			<point x="402" y="218"/>
			<point x="402" y="164" type="curve" smooth="yes"/>
			<point x="402" y="110"/>
			<point x="360" y="88"/>
			<point x="290" y="88" type="curve" smooth="yes"/>
		</contour>
		<contour>
			<point x="26" y="398" type="line"/>
			<point x="434" y="398" type="line"/>
			<point x="434" y="484" type="line"/>
			<point x="26" y="484" type="line"/>
		</contour>
	</outline>
	<anchor name="aboveUC" x="225" y="588"/>
</glyph>
<glyph name="Yeru.sc" format="2">
	<advance width="753"/>
	<outline>
		<contour>
			<point x="83" y="0" type="line"/>
			<point x="258" y="0" type="line" smooth="yes"/>
			<point x="380" y="0"/>
			<point x="476" y="45"/>
			<point x="476" y="172" type="curve" smooth="yes"/>
			<point x="476" y="292"/>
			<point x="385" y="338"/>
			<point x="258" y="338" type="curve" smooth="yes"/>
			<point x="202" y="338" type="line"/>
			<point x="202" y="524" type="line"/>
			<point x="83" y="524" type="line"/>
		</contour>
		<contour>
			<point x="202" y="94" type="line"/>
			<point x="202" y="248" type="line"/>
			<point x="248" y="248" type="line" smooth="yes"/>
			<point x="322" y="248"/>
			<point x="360" y="226"/>
			<point x="360" y="174" type="curve" smooth="yes"/>
			<point x="360" y="117"/>
			<point x="319" y="94"/>
			<point x="248" y="94" type="curve" smooth="yes"/>
		</contour>
		<contour>
			<point x="551" y="0" type="line"/>
			<point x="670" y="0" type="line"/>
			<point x="670" y="524" type="line"/>
			<point x="551" y="524" type="line"/>
		</contour>
	</outline>
	<anchor name="aboveUC" x="377" y="563"/>
</glyph>
<glyph name=".notdef" format="2">
	<advance width="674"/>
	<outline>
		<contour>
			<point x="84" y="0" type="line"/>
			<point x="590" y="0" type="line"/>
			<point x="590" y="660" type="line"/>
			<point x="84" y="660" type="line"/>
		</contour>
		<contour>
			<point x="233" y="77" type="line"/>
			<point x="288" y="178" type="line"/>
			<point x="335" y="278" type="line"/>
			<point x="339" y="278" type="line"/>
			<point x="385" y="178" type="line"/>
			<point x="439" y="77" type="line"/>
		</contour>
		<contour>
			<point x="335" y="402" type="line"/>
			<point x="289" y="497" type="line"/>
			<point x="242" y="583" type="line"/>
			<point x="431" y="583" type="line"/>
			<point x="384" y="497" type="line"/>
			<point x="339" y="402" type="line"/>
		</contour>
		<contour>
			<point x="168" y="135" type="line"/>
			<point x="168" y="547" type="line"/>
			<point x="277" y="340" type="line"/>
		</contour>
		<contour>
			<point x="505" y="135" type="line"/>
			<point x="397" y="340" type="line"/>
			<point x="505" y="547" type="line"/>
		</contour>
	</outline>
</glyph>
<glyph name="a.b" format="2">
	<advance width="524"/>
	<outline>
		<contour>
			<point x="192" y="-12" type="curve" smooth="yes"/>
			<point x="250" y="-12"/>
			<point x="302" y="18"/>
			<point x="346" y="58" type="curve"/>
			<point x="350" y="58" type="line"/>
			<point x="364" y="10"/>
			<point x="396" y="-12"/>
			<point x="448" y="-12" type="curve" smooth="yes"/>
			<point x="472" y="-12"/>
			<point x="490" y="-6"/>
			<point x="504" y="-2" type="curve"/>
			<point x="490" y="86" type="line"/>
			<point x="482" y="84"/>
			<point x="480" y="84"/>
			<point x="474" y="84" type="curve" smooth="yes"/>
			<point x="462" y="84"/>
			<point x="452" y="94"/>
			<point x="452" y="123" type="curve" smooth="yes"/>
			<point x="452" y="290" type="line" smooth="yes"/>
			<point x="452" y="428"/>
			<point x="391" y="504"/>
			<point x="268" y="504" type="curve" smooth="yes"/>
			<point x="190" y="504"/>
			<point x="122" y="475"/>
			<point x="66" y="440" type="curve"/>
			<point x="108" y="362" type="line"/>
			<point x="152" y="388"/>
			<point x="198" y="408"/>
			<point x="246" y="408" type="curve" smooth="yes"/>
			<point x="311" y="408"/>
			<point x="333" y="366"/>
			<point x="334" y="316" type="curve"/>
			<point x="134" y="296"/>
			<point x="46" y="238"/>
			<point x="46" y="132" type="curve" smooth="yes"/>
			<point x="46" y="46"/>
			<point x="106" y="-12"/>
		</contour>
		<contour>
			<point x="230" y="82" type="curve" smooth="yes"/>
			<point x="188" y="82"/>
			<point x="160" y="100"/>
			<point x="160" y="142" type="curve" smooth="yes"/>
			<point x="160" y="188"/>
			<point x="204" y="220"/>
			<point x="334" y="236" type="curve"/>
			<point x="334" y="132" type="line"/>
			<point x="300" y="100"/>
			<point x="268" y="82"/>
		</contour>
	</outline>
	<anchor name="aboveLC" x="270" y="514"/>
	<anchor name="belowLC" x="250" y="-22"/>
	<anchor name="ogonekLC" x="391" y="0"/>
</glyph>
<glyph name="a" format="1">
	<advance width="516"/>
	<outline>
		<contour>
			<point x="192" y="-12" type="curve" smooth="yes"/>
			<point x="250" y="-12"/>
			<point x="298" y="16"/>
			<point x="342" y="54" type="curve"/>
			<point x="346" y="54" type="line"/>
			<point x="356" y="0" type="line"/>
			<point x="452" y="0" type="line"/>
			<point x="452" y="291" type="line" smooth="yes"/>
			<point x="452" y="428"/>
			<point x="390" y="504"/>
			<point x="268" y="504" type="curve" smooth="yes"/>
			<point x="190" y="504"/>
			<point x="120" y="474"/>
			<point x="66" y="440" type="curve"/>
			<point x="108" y="362" type="line"/>
			<point x="152" y="388"/>
			<point x="198" y="408"/>
			<point x="246" y="408" type="curve" smooth="yes"/>
			<point x="312" y="408"/>
			<point x="332" y="366"/>
			<point x="334" y="316" type="curve"/>
			<point x="132" y="294"/>
			<point x="46" y="240"/>
			<point x="46" y="132" type="curve" smooth="yes"/>
			<point x="46" y="46"/>
			<point x="106" y="-12"/>
		</contour>
		<contour>
			<point x="228" y="82" type="curve" smooth="yes"/>
			<point x="188" y="82"/>
			<point x="160" y="98"/>
			<point x="160" y="140" type="curve" smooth="yes"/>
			<point x="160" y="190"/>
			<point x="200" y="220"/>
			<point x="334" y="236" type="curve"/>
			<point x="334" y="132" type="line"/>
			<point x="298" y="98"/>
			<point x="268" y="82"/>
		</contour>
		<contour>
			<point name="aboveLC" x="272" y="514" type="move"/>
		</contour>
		<contour>
			<point name="belowLC" x="252" y="-22" type="move"/>
		</contour>
		<contour>
			<point name="ogonekLC" x="370" y="0" type="move"/>
		</contour>
	</outline>
</glyph>
<glyph name="a.sups" format="2">
	<advance width="354"/>
	<outline>
		<contour>
			<point x="132" y="376" type="curve" smooth="yes"/>
			<point x="172" y="376"/>
			<point x="204" y="394"/>
			<point x="230" y="420" type="curve"/>
			<point x="234" y="420" type="line"/>
			<point x="242" y="384" type="line"/>
			<point x="310" y="384" type="line"/>
			<point x="310" y="576" type="line" smooth="yes"/>
			<point x="310" y="670"/>
			<point x="267" y="718"/>
			<point x="184" y="718" type="curve" smooth="yes"/>
			<point x="132" y="718"/>
			<point x="82" y="697"/>
			<point x="44" y="674" type="curve"/>
			<point x="76" y="618" type="line"/>
			<point x="106" y="635"/>
			<point x="139" y="650"/>
			<point x="170" y="650" type="curve" smooth="yes"/>
			<point x="209" y="650"/>
			<point x="222" y="628"/>
			<point x="224" y="596" type="curve"/>
			<point x="90" y="584"/>
			<point x="34" y="546"/>
			<point x="34" y="472" type="curve" smooth="yes"/>
			<point x="34" y="416"/>
			<point x="74" y="376"/>
		</contour>
		<contour>
			<point x="160" y="442" type="curve" smooth="yes"/>
			<point x="132" y="442"/>
			<point x="116" y="454"/>
			<point x="116" y="478" type="curve" smooth="yes"/>
			<point x="116" y="508"/>
			<point x="143" y="530"/>
			<point x="226" y="540" type="curve"/>
			<point x="226" y="474" type="line"/>
			<point x="202" y="452"/>
			<point x="183" y="442"/>
		</contour>
	</outline>
</glyph>
<glyph name="ae" format="1">
	<advance width="780"/>
	<outline>
		<contour>
			<point x="192" y="-12" type="curve" smooth="yes"/>
			<point x="256" y="-12"/>
			<point x="318" y="14"/>
			<point x="386" y="72" type="curve"/>
			<point x="426" y="24"/>
			<point x="480" y="-12"/>
			<point x="557" y="-12" type="curve" smooth="yes"/>
			<point x="620" y="-12"/>
			<point x="678" y="8"/>
			<point x="725" y="41" type="curve"/>
			<point x="687" y="111" type="line"/>
			<point x="651" y="89"/>
			<point x="614" y="77"/>
			<point x="572" y="77" type="curve" smooth="yes"/>
			<point x="502" y="77"/>
			<point x="450" y="124"/>
			<point x="438" y="210" type="curve"/>
			<point x="738" y="210" type="line"/>
			<point x="740" y="222"/>
			<point x="743" y="246"/>
			<point x="743" y="268" type="curve" smooth="yes"/>
			<point x="743" y="405"/>
			<point x="677" y="503"/>
			<point x="551" y="503" type="curve" smooth="yes"/>
			<point x="489" y="503"/>
			<point x="438" y="470"/>
			<point x="398" y="414" type="curve"/>
			<point x="373" y="469"/>
			<point x="326" y="503"/>
			<point x="259" y="503" type="curve" smooth="yes"/>
			<point x="187" y="503"/>
			<point x="120" y="474"/>
			<point x="66" y="440" type="curve"/>
			<point x="108" y="364" type="line"/>
			<point x="152" y="390"/>
			<point x="198" y="410"/>
			<point x="244" y="410" type="curve" smooth="yes"/>
			<point x="311" y="410"/>
			<point x="330" y="368"/>
			<point x="332" y="316" type="curve"/>
			<point x="134" y="295"/>
			<point x="47" y="238"/>
			<point x="47" y="132" type="curve" smooth="yes"/>
			<point x="47" y="46"/>
			<point x="106" y="-12"/>
		</contour>
		<contour>
			<point x="229" y="78" type="curve" smooth="yes"/>
			<point x="188" y="78"/>
			<point x="158" y="97"/>
			<point x="158" y="141" type="curve" smooth="yes"/>
			<point x="158" y="190"/>
			<point x="206" y="222"/>
			<point x="331" y="238" type="curve"/>
			<point x="332" y="219" type="line" smooth="yes"/>
			<point x="334" y="190"/>
			<point x="339" y="159"/>
			<point x="348" y="136" type="curve"/>
			<point x="313" y="100"/>
			<point x="268" y="78"/>
		</contour>
		<contour>
			<point x="438" y="296" type="line"/>
			<point x="447" y="364"/>
			<point x="492" y="414"/>
			<point x="548" y="414" type="curve" smooth="yes"/>
			<point x="611" y="414"/>
			<point x="643" y="367"/>
			<point x="643" y="296" type="curve"/>
		</contour>
		<contour>
			<point name="aboveLC" x="406" y="514" type="move"/>
		</contour>
		<contour>
			<point name="belowLC" x="408" y="-22" type="move"/>
		</contour>
	</outline>
</glyph>
<glyph name="aogonek.b" format="2">
	<advance width="524"/>
	<outline>
		<contour>
			<point x="411" y="-217" type="curve" smooth="yes"/>
			<point x="446" y="-217"/>
			<point x="485" y="-203"/>
			<point x="510" y="-184" type="curve"/>
			<point x="483" y="-122" type="line"/>
			<point x="469" y="-131"/>
			<point x="454" y="-137"/>
			<point x="434" y="-137" type="curve" smooth="yes"/>
			<point x="412" y="-137"/>
			<point x="389" y="-124"/>
			<point x="389" y="-94" type="curve" smooth="yes"/>
			<point x="389" y="-58"/>
			<point x="428" y="-20"/>
			<point x="504" y="-2" type="curve"/>
			<point x="490" y="86" type="line"/>
			<point x="482" y="84"/>
			<point x="480" y="84"/>
			<point x="474" y="84" type="curve" smooth="yes"/>
			<point x="462" y="84"/>
			<point x="452" y="94"/>
			<point x="452" y="123" type="curve" smooth="yes"/>
			<point x="452" y="290" type="line" smooth="yes"/>
			<point x="452" y="428"/>
			<point x="391" y="504"/>
			<point x="268" y="504" type="curve" smooth="yes"/>
			<point x="190" y="504"/>
			<point x="122" y="475"/>
			<point x="66" y="440" type="curve"/>
			<point x="108" y="362" type="line"/>
			<point x="152" y="388"/>
			<point x="198" y="408"/>
			<point x="246" y="408" type="curve" smooth="yes"/>
			<point x="311" y="408"/>
			<point x="333" y="366"/>
			<point x="334" y="316" type="curve"/>
			<point x="134" y="296"/>
			<point x="46" y="238"/>
			<point x="46" y="132" type="curve" smooth="yes"/>
			<point x="46" y="46"/>
			<point x="106" y="-12"/>
			<point x="192" y="-12" type="curve" smooth="yes"/>
			<point x="250" y="-12"/>
			<point x="302" y="18"/>
			<point x="346" y="58" type="curve"/>
			<point x="350" y="58" type="line"/>
			<point x="364" y="10"/>
			<point x="396" y="-12"/>
			<point x="448" y="-12" type="curve"/>
			<point x="402" y="9" type="line"/>
			<point x="340" y="-27"/>
			<point x="300" y="-67"/>
			<point x="300" y="-120" type="curve" smooth="yes"/>
			<point x="300" y="-186"/>
			<point x="350" y="-217"/>
		</contour>
		<contour>
			<point x="230" y="82" type="curve" smooth="yes"/>
			<point x="188" y="82"/>
			<point x="160" y="100"/>
			<point x="160" y="142" type="curve" smooth="yes"/>
			<point x="160" y="188"/>
			<point x="204" y="220"/>
			<point x="334" y="236" type="curve"/>
			<point x="334" y="132" type="line"/>
			<point x="300" y="100"/>
			<point x="268" y="82"/>
		</contour>
	</outline>
	<anchor name="aboveLC" x="270" y="514"/>
</glyph>
<glyph name="aogonek.d" format="1">
	<advance width="516"/>
	<outline>
		<contour>
			<point x="254" y="-217" type="curve" smooth="yes"/>
			<point x="289" y="-217"/>
			<point x="328" y="-203"/>
			<point x="352" y="-184" type="curve"/>
			<point x="326" y="-122" type="line"/>
			<point x="312" y="-131"/>
			<point x="296" y="-137"/>
			<point x="277" y="-137" type="curve" smooth="yes"/>
			<point x="254" y="-137"/>
			<point x="231" y="-124"/>
			<point x="231" y="-93" type="curve" smooth="yes"/>
			<point x="231" y="-64"/>
			<point x="252" y="-28"/>
			<point x="276" y="-2" type="curve" smooth="yes"/>
			<point x="296" y="20"/>
			<point x="318" y="36"/>
			<point x="342" y="54" type="curve"/>
			<point x="346" y="54" type="line"/>
			<point x="356" y="0" type="line"/>
			<point x="452" y="0" type="line"/>
			<point x="452" y="291" type="line" smooth="yes"/>
			<point x="452" y="428"/>
			<point x="390" y="504"/>
			<point x="268" y="504" type="curve" smooth="yes"/>
			<point x="190" y="504"/>
			<point x="120" y="474"/>
			<point x="66" y="440" type="curve"/>
			<point x="108" y="362" type="line"/>
			<point x="152" y="388"/>
			<point x="198" y="408"/>
			<point x="246" y="408" type="curve" smooth="yes"/>
			<point x="312" y="408"/>
			<point x="332" y="366"/>
			<point x="334" y="316" type="curve"/>
			<point x="132" y="294"/>
			<point x="46" y="240"/>
			<point x="46" y="132" type="curve" smooth="yes"/>
			<point x="46" y="46"/>
			<point x="106" y="-12"/>
			<point x="192" y="-12" type="curve" smooth="yes"/>
			<point x="198" y="-12"/>
			<point x="207" y="-11"/>
			<point x="223" y="-8" type="curve"/>
			<point x="221" y="3" type="line"/>
			<point x="189" y="-21"/>
			<point x="143" y="-65"/>
			<point x="143" y="-121" type="curve" smooth="yes"/>
			<point x="143" y="-186"/>
			<point x="192" y="-217"/>
		</contour>
		<contour>
			<point x="228" y="82" type="curve" smooth="yes"/>
			<point x="188" y="82"/>
			<point x="160" y="98"/>
			<point x="160" y="140" type="curve" smooth="yes"/>
			<point x="160" y="190"/>
			<point x="200" y="220"/>
			<point x="334" y="236" type="curve"/>
			<point x="334" y="132" type="line"/>
			<point x="298" y="98"/>
			<point x="268" y="82"/>
		</contour>
		<contour>
			<point name="aboveLC" x="272" y="514" type="move"/>
		</contour>
	</outline>
</glyph>
<glyph name="aogonek.f" format="2">
	<advance width="524"/>
	<outline>
		<contour>
			<point x="249" y="-217" type="curve" smooth="yes"/>
			<point x="284" y="-217"/>
			<point x="323" y="-203"/>
			<point x="347" y="-184" type="curve"/>
			<point x="321" y="-122" type="line"/>
			<point x="307" y="-131"/>
			<point x="291" y="-137"/>
			<point x="272" y="-137" type="curve" smooth="yes"/>
			<point x="249" y="-137"/>
			<point x="226" y="-124"/>
			<point x="226" y="-93" type="curve" smooth="yes"/>
			<point x="226" y="-64"/>
			<point x="246" y="-25"/>
			<point x="272" y="-2" type="curve" smooth="yes"/>
			<point x="293" y="16"/>
			<point x="320" y="38"/>
			<point x="347" y="57" type="curve"/>
			<point x="350" y="57" type="line"/>
			<point x="364" y="9"/>
			<point x="396" y="-12"/>
			<point x="448" y="-12" type="curve" smooth="yes"/>
			<point x="473" y="-12"/>
			<point x="490" y="-6"/>
			<point x="504" y="-2" type="curve"/>
			<point x="489" y="86" type="line"/>
			<point x="482" y="84"/>
			<point x="479" y="84"/>
			<point x="475" y="84" type="curve" smooth="yes"/>
			<point x="462" y="84"/>
			<point x="452" y="94"/>
			<point x="452" y="123" type="curve" smooth="yes"/>
			<point x="452" y="290" type="line"/>
			<point x="452" y="427"/>
			<point x="391" y="503"/>
			<point x="268" y="504" type="curve" smooth="yes"/>
			<point x="190" y="503"/>
			<point x="122" y="474"/>
			<point x="66" y="440" type="curve"/>
			<point x="108" y="362" type="line"/>
			<point x="152" y="387"/>
			<point x="198" y="407"/>
			<point x="246" y="408" type="curve" smooth="yes"/>
			<point x="311" y="407"/>
			<point x="333" y="365"/>
			<point x="334" y="316" type="curve"/>
			<point x="134" y="295"/>
			<point x="46" y="237"/>
			<point x="46" y="133" type="curve" smooth="yes"/>
			<point x="46" y="47"/>
			<point x="105" y="-12"/>
			<point x="192" y="-12" type="curve" smooth="yes"/>
			<point x="198" y="-12"/>
			<point x="205" y="-11"/>
			<point x="221" y="-8" type="curve"/>
			<point x="216" y="3" type="line"/>
			<point x="185" y="-21"/>
			<point x="138" y="-65"/>
			<point x="138" y="-121" type="curve" smooth="yes"/>
			<point x="138" y="-186"/>
			<point x="187" y="-217"/>
		</contour>
		<contour>
			<point x="230" y="82" type="curve" smooth="yes"/>
			<point x="188" y="82"/>
			<point x="160" y="100"/>
			<point x="160" y="142" type="curve" smooth="yes"/>
			<point x="160" y="188"/>
			<point x="204" y="220"/>
			<point x="334" y="236" type="curve"/>
			<point x="334" y="132" type="line"/>
			<point x="300" y="100"/>
			<point x="268" y="82"/>
		</contour>
	</outline>
	<anchor name="aboveLC" x="272" y="514"/>
</glyph>
<glyph name="aogonek" format="1">
	<advance width="516"/>
	<outline>
		<contour>
			<point x="382" y="-208" type="curve" smooth="yes"/>
			<point x="410" y="-208"/>
			<point x="449" y="-196"/>
			<point x="472" y="-178" type="curve"/>
			<point x="446" y="-124" type="line"/>
			<point x="435" y="-132"/>
			<point x="422" y="-137"/>
			<point x="406" y="-137" type="curve" smooth="yes"/>
			<point x="385" y="-137"/>
			<point x="364" y="-124"/>
			<point x="364" y="-95" type="curve" smooth="yes"/>
			<point x="364" y="-60"/>
			<point x="391" y="-20"/>
			<point x="451" y="0" type="curve"/>
			<point x="451" y="291" type="line" smooth="yes"/>
			<point x="451" y="428"/>
			<point x="390" y="503"/>
			<point x="268" y="503" type="curve" smooth="yes"/>
			<point x="190" y="503"/>
			<point x="120" y="474"/>
			<point x="66" y="439" type="curve"/>
			<point x="108" y="364" type="line"/>
			<point x="152" y="390"/>
			<point x="198" y="410"/>
			<point x="246" y="410" type="curve" smooth="yes"/>
			<point x="313" y="410"/>
			<point x="334" y="368"/>
			<point x="336" y="316" type="curve"/>
			<point x="134" y="294"/>
			<point x="47" y="238"/>
			<point x="47" y="132" type="curve" smooth="yes"/>
			<point x="47" y="46"/>
			<point x="106" y="-12"/>
			<point x="192" y="-12" type="curve" smooth="yes"/>
			<point x="250" y="-12"/>
			<point x="300" y="17"/>
			<point x="344" y="54" type="curve"/>
			<point x="348" y="54" type="line"/>
			<point x="358" y="1" type="line"/>
			<point x="326" y="-20"/>
			<point x="283" y="-64"/>
			<point x="283" y="-120" type="curve" smooth="yes"/>
			<point x="283" y="-178"/>
			<point x="327" y="-208"/>
		</contour>
		<contour>
			<point x="228" y="78" type="curve" smooth="yes"/>
			<point x="188" y="78"/>
			<point x="158" y="97"/>
			<point x="158" y="141" type="curve" smooth="yes"/>
			<point x="158" y="190"/>
			<point x="202" y="222"/>
			<point x="336" y="238" type="curve"/>
			<point x="336" y="132" type="line"/>
			<point x="300" y="98"/>
			<point x="268" y="78"/>
		</contour>
		<contour>
			<point name="aboveLC" x="272" y="514" type="move"/>
		</contour>
	</outline>
</glyph>
<glyph name="at.cap" format="2">
	<advance width="806"/>
	<outline>
		<contour>
			<point x="374" y="-30" type="curve" smooth="yes"/>
			<point x="435" y="-30"/>
			<point x="486" y="-20"/>
			<point x="540" y="10" type="curve"/>
			<point x="508" y="80" type="line"/>
			<point x="472" y="64"/>
			<point x="426" y="54"/>
			<point x="382" y="54" type="curve" smooth="yes"/>
			<point x="258" y="54"/>
			<point x="146" y="125"/>
			<point x="146" y="295" type="curve" smooth="yes"/>
			<point x="146" y="488"/>
			<point x="288" y="612"/>
			<point x="436" y="612" type="curve" smooth="yes"/>
			<point x="592" y="612"/>
			<point x="664" y="516"/>
			<point x="664" y="394" type="curve" smooth="yes"/>
			<point x="664" y="284"/>
			<point x="618" y="228"/>
			<point x="578" y="228" type="curve" smooth="yes"/>
			<point x="544" y="228"/>
			<point x="533" y="254"/>
			<point x="546" y="313" type="curve" smooth="yes"/>
			<point x="589" y="510" type="line"/>
			<point x="508" y="510" type="line"/>
			<point x="494" y="468" type="line"/>
			<point x="490" y="468" type="line"/>
			<point x="473" y="503"/>
			<point x="447" y="518"/>
			<point x="416" y="518" type="curve" smooth="yes"/>
			<point x="310" y="518"/>
			<point x="222" y="412"/>
			<point x="222" y="285" type="curve" smooth="yes"/>
			<point x="222" y="200"/>
			<point x="274" y="142"/>
			<point x="342" y="142" type="curve" smooth="yes"/>
			<point x="387" y="142"/>
			<point x="434" y="170"/>
			<point x="462" y="210" type="curve"/>
			<point x="466" y="210" type="line"/>
			<point x="476" y="166"/>
			<point x="514" y="138"/>
			<point x="566" y="138" type="curve" smooth="yes"/>
			<point x="666" y="138"/>
			<point x="760" y="228"/>
			<point x="760" y="398" type="curve" smooth="yes"/>
			<point x="760" y="574"/>
			<point x="636" y="696"/>
			<point x="446" y="696" type="curve" smooth="yes"/>
			<point x="230" y="696"/>
			<point x="50" y="537"/>
			<point x="50" y="292" type="curve" smooth="yes"/>
			<point x="50" y="70"/>
			<point x="204" y="-30"/>
		</contour>
		<contour>
			<point x="368" y="226" type="curve" smooth="yes"/>
			<point x="340" y="226"/>
			<point x="320" y="248"/>
			<point x="320" y="292" type="curve" smooth="yes"/>
			<point x="320" y="352"/>
			<point x="358" y="434"/>
			<point x="418" y="434" type="curve" smooth="yes"/>
			<point x="441" y="434"/>
			<point x="454" y="424"/>
			<point x="468" y="400" type="curve"/>
			<point x="443" y="276" type="line"/>
			<point x="414" y="241"/>
			<point x="391" y="226"/>
		</contour>
	</outline>
</glyph>
<glyph name="aturned.b" format="1">
	<advance width="527"/>
	<outline>
		<contour>
			<point x="290" y="-12" type="curve" smooth="yes"/>
			<point x="358" y="-12"/>
			<point x="427" y="18"/>
			<point x="481" y="52" type="curve"/>
			<point x="439" y="127" type="line"/>
			<point x="396" y="102"/>
			<point x="350" y="81"/>
			<point x="306" y="81" type="curve" smooth="yes"/>
			<point x="226" y="81"/>
			<point x="200" y="126"/>
			<point x="198" y="174" type="curve"/>
			<point x="398" y="198"/>
			<point x="486" y="262"/>
			<point x="486" y="372" type="curve" smooth="yes"/>
			<point x="486" y="451"/>
			<point x="434" y="503"/>
			<point x="354" y="503" type="curve" smooth="yes"/>
			<point x="287" y="503"/>
			<point x="233" y="473"/>
			<point x="189" y="427" type="curve"/>
			<point x="186" y="427" type="line"/>
			<point x="171" y="481"/>
			<point x="140" y="503"/>
			<point x="86" y="503" type="curve" smooth="yes"/>
			<point x="62" y="503"/>
			<point x="45" y="498"/>
			<point x="31" y="493" type="curve"/>
			<point x="46" y="407" type="line"/>
			<point x="53" y="409"/>
			<point x="56" y="409"/>
			<point x="60" y="409" type="curve" smooth="yes"/>
			<point x="73" y="409"/>
			<point x="82" y="399"/>
			<point x="82" y="371" type="curve"/>
			<point x="82" y="207" type="line" smooth="yes"/>
			<point x="82" y="69"/>
			<point x="150" y="-12"/>
		</contour>
		<contour>
			<point x="198" y="254" type="curve"/>
			<point x="198" y="349" type="line"/>
			<point x="236" y="392"/>
			<point x="273" y="413"/>
			<point x="312" y="413" type="curve" smooth="yes"/>
			<point x="348" y="413"/>
			<point x="375" y="395"/>
			<point x="375" y="354" type="curve" smooth="yes"/>
			<point x="375" y="306"/>
			<point x="330" y="272"/>
		</contour>
	</outline>
</glyph>
<glyph name="clickalveolar" format="1">
	<advance width="424"/>
	<outline>
		<contour>
			<point x="28" y="224" type="line"/>
			<point x="396" y="224" type="line"/>
			<point x="396" y="310" type="line"/>
			<point x="106" y="310" type="line"/>
			<point x="28" y="305" type="line"/>
		</contour>
		<contour>
			<point x="28" y="394" type="line"/>
			<point x="396" y="394" type="line"/>
			<point x="396" y="480" type="line"/>
			<point x="106" y="480" type="line"/>
			<point x="28" y="475" type="line"/>
		</contour>
		<component base="l.a" xOffset="86"/>
		<contour>
			<point name="aboveUC" x="213" y="724" type="move"/>
		</contour>
		<contour>
			<point name="belowLC" x="213" y="-22" type="move"/>
		</contour>
	</outline>
</glyph>
<glyph name="dcroat" format="2">
	<advance width="564"/>
	<outline>
		<contour>
			<point x="246" y="-12" type="curve" smooth="yes"/>
			<point x="300" y="-12"/>
			<point x="346" y="16"/>
			<point x="382" y="54" type="curve"/>
			<point x="385" y="54" type="line"/>
			<point x="395" y="0" type="line"/>
			<point x="492" y="0" type="line"/>
			<point x="492" y="706" type="line"/>
			<point x="374" y="706" type="line"/>
			<point x="374" y="484" type="line"/>
			<point x="380" y="404" type="line"/>
			<point x="342" y="438"/>
			<point x="308" y="460"/>
			<point x="252" y="460" type="curve" smooth="yes"/>
			<point x="144" y="460"/>
			<point x="44" y="368"/>
			<point x="44" y="224" type="curve" smooth="yes"/>
			<point x="44" y="78"/>
			<point x="123" y="-12"/>
		</contour>
		<contour>
			<point x="274" y="86" type="curve" smooth="yes"/>
			<point x="204" y="86"/>
			<point x="164" y="138"/>
			<point x="164" y="226" type="curve" smooth="yes"/>
			<point x="164" y="310"/>
			<point x="214" y="362"/>
			<point x="276" y="362" type="curve" smooth="yes"/>
			<point x="310" y="362"/>
			<point x="342" y="350"/>
			<point x="374" y="322" type="curve"/>
			<point x="374" y="138" type="line"/>
			<point x="342" y="101"/>
			<point x="311" y="86"/>
		</contour>
		<contour>
			<point x="200" y="540" type="line"/>
			<point x="486" y="540" type="line"/>
			<point x="562" y="546" type="line"/>
			<point x="562" y="628" type="line"/>
			<point x="200" y="628" type="line"/>
		</contour>
	</outline>
</glyph>
<glyph name="dje" format="2">
	<advance width="562"/>
	<outline>
		<contour>
			<point x="298" y="-205" type="curve" smooth="yes"/>
			<point x="434" y="-205"/>
			<point x="518" y="-118"/>
			<point x="518" y="176" type="curve" smooth="yes"/>
			<point x="518" y="368"/>
			<point x="454" y="460"/>
			<point x="334" y="460" type="curve" smooth="yes"/>
			<point x="270" y="460"/>
			<point x="224" y="424"/>
			<point x="184" y="384" type="curve"/>
			<point x="190" y="480" type="line"/>
			<point x="190" y="706" type="line"/>
			<point x="72" y="706" type="line"/>
			<point x="72" y="0" type="line"/>
			<point x="190" y="0" type="line"/>
			<point x="190" y="301" type="line"/>
			<point x="228" y="340"/>
			<point x="258" y="358"/>
			<point x="294" y="358" type="curve" smooth="yes"/>
			<point x="360" y="358"/>
			<point x="396" y="318"/>
			<point x="396" y="162" type="curve" smooth="yes"/>
			<point x="396" y="-56"/>
			<point x="350" y="-112"/>
			<point x="288" y="-112" type="curve" smooth="yes"/>
			<point x="277" y="-112"/>
			<point x="266" y="-110"/>
			<point x="256" y="-106" type="curve"/>
			<point x="234" y="-193" type="line"/>
			<point x="250" y="-201"/>
			<point x="270" y="-205"/>
		</contour>
		<contour>
			<point x="2" y="540" type="line"/>
			<point x="364" y="540" type="line"/>
			<point x="364" y="628" type="line"/>
			<point x="79" y="628" type="line"/>
			<point x="2" y="623" type="line"/>
		</contour>
	</outline>
</glyph>
<glyph name="dong" format="1">
	<advance width="513"/>
	<outline>
		<contour>
			<point x="225" y="113" type="curve" smooth="yes"/>
			<point x="270" y="113"/>
			<point x="308" y="133"/>
			<point x="336" y="163" type="curve"/>
			<point x="338" y="163" type="line"/>
			<point x="346" y="123" type="line"/>
			<point x="425" y="123" type="line"/>
			<point x="425" y="648" type="line"/>
			<point x="329" y="648" type="line"/>
			<point x="329" y="514" type="line"/>
			<point x="333" y="427" type="line"/>
			<point x="303" y="454"/>
			<point x="277" y="470"/>
			<point x="231" y="470" type="curve" smooth="yes"/>
			<point x="148" y="470"/>
			<point x="66" y="404"/>
			<point x="66" y="296" type="curve" smooth="yes"/>
			<point x="66" y="178"/>
			<point x="129" y="113"/>
		</contour>
		<contour>
			<point x="248" y="192" type="curve" smooth="yes"/>
			<point x="196" y="192"/>
			<point x="166" y="228"/>
			<point x="166" y="294" type="curve" smooth="yes"/>
			<point x="166" y="352"/>
			<point x="206" y="390"/>
			<point x="252" y="390" type="curve" smooth="yes"/>
			<point x="282" y="390"/>
			<point x="303" y="380"/>
			<point x="329" y="356" type="curve"/>
			<point x="329" y="236" type="line"/>
			<point x="302" y="204"/>
			<point x="278" y="192"/>
		</contour>
		<contour>
			<point x="184" y="532" type="line"/>
			<point x="425" y="532" type="line"/>
			<point x="502" y="538" type="line"/>
			<point x="502" y="600" type="line"/>
			<point x="184" y="600" type="line"/>
		</contour>
		<contour>
			<point x="79" y="0" type="line"/>
			<point x="458" y="0" type="line"/>
			<point x="458" y="68" type="line"/>
			<point x="79" y="68" type="line"/>
		</contour>
	</outline>
</glyph>
<glyph name="dotlessi" format="1">
	<advance width="262"/>
	<outline>
		<contour>
			<point x="73" y="0" type="line"/>
			<point x="188" y="0" type="line"/>
			<point x="188" y="491" type="line"/>
			<point x="73" y="491" type="line"/>
		</contour>
		<contour>
			<point name="aboveLC" x="131" y="514" type="move"/>
		</contour>
		<contour>
			<point name="belowLC" x="130" y="-22" type="move"/>
		</contour>
		<contour>
			<point name="ogonekLC" x="124" y="0" type="move"/>
		</contour>
	</outline>
</glyph>
<glyph name="dotlessjstroke" format="1">
	<advance width="320"/>
	<outline>
		<contour>
			<point x="12" y="210" type="line"/>
			<point x="304" y="210" type="line"/>
			<point x="304" y="296" type="line"/>
			<point x="102" y="296" type="line"/>
			<point x="12" y="291" type="line"/>
		</contour>
		<component base="dotlessj" xOffset="28"/>
		<contour>
			<point name="aboveLC" x="160" y="514" type="move"/>
		</contour>
		<contour>
			<point name="belowLC" x="134" y="-206" type="move"/>
		</contour>
	</outline>
</glyph>
<glyph name="dotlessjstrokehook" format="1">
	<advance width="320"/>
	<outline>
		<contour>
			<point x="12" y="210" type="line"/>
			<point x="304" y="210" type="line"/>
			<point x="304" y="296" type="line"/>
			<point x="102" y="296" type="line"/>
			<point x="12" y="291" type="line"/>
		</contour>
		<component base="esh" xOffset="28"/>
	</outline>
</glyph>
<glyph name="dzcurl" format="2">
	<advance width="938"/>
	<outline>
		<contour>
			<point x="235" y="-12" type="curve" smooth="yes"/>
			<point x="284" y="-12"/>
			<point x="328" y="19"/>
			<point x="362" y="54" type="curve"/>
			<point x="366" y="54" type="line"/>
			<point x="376" y="0" type="line"/>
			<point x="472" y="0" type="line"/>
			<point x="472" y="706" type="line"/>
			<point x="354" y="706" type="line"/>
			<point x="354" y="529" type="line"/>
			<point x="359" y="450" type="line"/>
			<point x="323" y="482"/>
			<point x="292" y="504"/>
			<point x="241" y="504" type="curve" smooth="yes"/>
			<point x="138" y="504"/>
			<point x="43" y="406"/>
			<point x="43" y="245" type="curve" smooth="yes"/>
			<point x="43" y="83"/>
			<point x="118" y="-12"/>
		</contour>
		<contour>
			<point x="264" y="86" type="curve" smooth="yes"/>
			<point x="201" y="86"/>
			<point x="164" y="141"/>
			<point x="164" y="247" type="curve" smooth="yes"/>
			<point x="164" y="348"/>
			<point x="209" y="406"/>
			<point x="266" y="406" type="curve" smooth="yes"/>
			<point x="296" y="406"/>
			<point x="323" y="394"/>
			<point x="354" y="366" type="curve"/>
			<point x="354" y="140" type="line"/>
			<point x="324" y="103"/>
			<point x="298" y="86"/>
		</contour>
		<contour>
			<point x="728" y="-82" type="line"/>
			<point x="764" y="92"/>
			<point x="806" y="162"/>
			<point x="846" y="162" type="curve" smooth="yes"/>
			<point x="864" y="162"/>
			<point x="872" y="153"/>
			<point x="872" y="136" type="curve" smooth="yes"/>
			<point x="872" y="112"/>
			<point x="848" y="88"/>
			<point x="803" y="88" type="curve" smooth="yes"/>
			<point x="752" y="88"/>
			<point x="704" y="90"/>
			<point x="650" y="94" type="curve"/>
			<point x="832" y="428" type="line"/>
			<point x="832" y="492" type="line"/>
			<point x="464" y="492" type="line"/>
			<point x="464" y="398" type="line"/>
			<point x="698" y="398" type="line"/>
			<point x="518" y="62" type="line"/>
			<point x="518" y="0" type="line"/>
			<point x="594" y="-4"/>
			<point x="690" y="-6"/>
			<point x="772" y="-6" type="curve" smooth="yes"/>
			<point x="894" y="-6"/>
			<point x="948" y="58"/>
			<point x="948" y="136" type="curve" smooth="yes"/>
			<point x="948" y="199"/>
			<point x="910" y="236"/>
			<point x="850" y="236" type="curve" smooth="yes"/>
			<point x="742" y="236"/>
			<point x="688" y="116"/>
			<point x="648" y="-70" type="curve"/>
		</contour>
	</outline>
	<anchor name="aboveUC" x="416" y="724"/>
	<anchor name="belowLC" x="485" y="-56"/>
</glyph>
<glyph name="e" format="1">
	<advance width="508"/>
	<outline>
		<contour>
			<point x="282" y="-12" type="curve" smooth="yes"/>
			<point x="346" y="-12"/>
			<point x="406" y="6"/>
			<point x="452" y="40" type="curve"/>
			<point x="412" y="114" type="line"/>
			<point x="378" y="92"/>
			<point x="340" y="80"/>
			<point x="298" y="80" type="curve" smooth="yes"/>
			<point x="220" y="80"/>
			<point x="168" y="128"/>
			<point x="156" y="210" type="curve"/>
			<point x="466" y="210" type="line"/>
			<point x="470" y="228"/>
			<point x="472" y="246"/>
			<point x="472" y="270" type="curve" smooth="yes"/>
			<point x="472" y="408"/>
			<point x="400" y="504"/>
			<point x="267" y="504" type="curve" smooth="yes"/>
			<point x="152" y="504"/>
			<point x="40" y="406"/>
			<point x="40" y="246" type="curve" smooth="yes"/>
			<point x="40" y="82"/>
			<point x="146" y="-12"/>
		</contour>
		<contour>
			<point x="156" y="298" type="line"/>
			<point x="166" y="372"/>
			<point x="214" y="412"/>
			<point x="270" y="412" type="curve" smooth="yes"/>
			<point x="334" y="412"/>
			<point x="368" y="370"/>
			<point x="368" y="298" type="curve"/>
		</contour>
		<contour>
			<point name="aboveLC" x="266" y="514" type="move"/>
		</contour>
		<contour>
			<point name="baseLC" x="266" y="0" type="move"/>
		</contour>
		<contour>
			<point name="belowLC" x="266" y="-22" type="move"/>
		</contour>
		<contour>
			<point name="ogonekLC" x="352" y="0" type="move"/>
		</contour>
	</outline>
</glyph>
<glyph name="e.sups" format="1">
  <advance width="342"/>
  <outline>
    <contour>
      <point x="190" y="376" type="curve" smooth="yes"/>
      <point x="232" y="376"/>
      <point x="272" y="390"/>
      <point x="306" y="414" type="curve"/>
      <point x="278" y="464" type="line"/>
      <point x="256" y="450"/>
      <point x="228" y="442"/>
      <point x="200" y="442" type="curve" smooth="yes"/>
      <point x="151" y="442"/>
      <point x="114" y="470"/>
      <point x="108" y="522" type="curve"/>
      <point x="313" y="522" type="line"/>
      <point x="316" y="536"/>
      <point x="318" y="548"/>
      <point x="318" y="566" type="curve" smooth="yes"/>
      <point x="318" y="638"/>
      <point x="281" y="718"/>
      <point x="180" y="718" type="curve" smooth="yes"/>
      <point x="97" y="718"/>
      <point x="26" y="652"/>
      <point x="26" y="548" type="curve" smooth="yes"/>
      <point x="26" y="440"/>
      <point x="98" y="376"/>
    </contour>
    <contour>
      <point x="108" y="580" type="line"/>
      <point x="114" y="624"/>
      <point x="142" y="652"/>
      <point x="182" y="652" type="curve" smooth="yes"/>
      <point x="228" y="652"/>
      <point x="244" y="614"/>
      <point x="244" y="580" type="curve"/>
    </contour>
  </outline>
</glyph>
<glyph name="ecyr" format="2">
	<advance width="462"/>
	<outline>
		<contour>
			<point x="184" y="-12" type="curve" smooth="yes"/>
			<point x="320" y="-12"/>
			<point x="422" y="76"/>
			<point x="422" y="246" type="curve" smooth="yes"/>
			<point x="422" y="420"/>
			<point x="317" y="504"/>
			<point x="186" y="504" type="curve" smooth="yes"/>
			<point x="120" y="504"/>
			<point x="66" y="478"/>
			<point x="30" y="443" type="curve"/>
			<point x="83" y="376" type="line"/>
			<point x="108" y="398"/>
			<point x="140" y="412"/>
			<point x="180" y="412" type="curve" smooth="yes"/>
			<point x="258" y="412"/>
			<point x="310" y="362"/>
			<point x="310" y="246" type="curve" smooth="yes"/>
			<point x="310" y="132"/>
			<point x="256" y="80"/>
			<point x="173" y="80" type="curve" smooth="yes"/>
			<point x="132" y="80"/>
			<point x="96" y="94"/>
			<point x="68" y="116" type="curve"/>
			<point x="22" y="50" type="line"/>
			<point x="66" y="8"/>
			<point x="124" y="-12"/>
		</contour>
		<contour>
			<point x="118" y="210" type="line"/>
			<point x="373" y="210" type="line"/>
			<point x="373" y="296" type="line"/>
			<point x="118" y="296" type="line"/>
		</contour>
	</outline>
	<anchor name="aboveLC" x="210" y="514"/>
</glyph>
<glyph name="em" format="1">
	<advance width="647"/>
	<outline>
		<contour>
			<point x="73" y="0" type="line"/>
			<point x="175" y="0" type="line"/>
			<point x="175" y="172" type="line" smooth="yes"/>
			<point x="175" y="221"/>
			<point x="170" y="312"/>
			<point x="164" y="366" type="curve"/>
			<point x="168" y="366" type="line"/>
			<point x="182" y="321"/>
			<point x="198" y="271"/>
			<point x="212" y="230" type="curve"/>
			<point x="284" y="44" type="line"/>
			<point x="364" y="44" type="line"/>
			<point x="434" y="230" type="line"/>
			<point x="448" y="271"/>
			<point x="464" y="321"/>
			<point x="478" y="366" type="curve"/>
			<point x="482" y="366" type="line"/>
			<point x="476" y="312"/>
			<point x="470" y="221"/>
			<point x="470" y="172" type="curve" smooth="yes"/>
			<point x="470" y="0" type="line"/>
			<point x="574" y="0" type="line"/>
			<point x="574" y="491" type="line"/>
			<point x="434" y="491" type="line"/>
			<point x="362" y="296" type="line" smooth="yes"/>
			<point x="350" y="262"/>
			<point x="340" y="224"/>
			<point x="328" y="178" type="curve"/>
			<point x="324" y="178" type="line"/>
			<point x="314" y="224"/>
			<point x="302" y="262"/>
			<point x="289" y="296" type="curve" smooth="yes"/>
			<point x="212" y="491" type="line"/>
			<point x="73" y="491" type="line"/>
		</contour>
	</outline>
</glyph>
<glyph name="eogonek.d" format="1">
  <advance width="508"/>
  <outline>
    <contour>
      <point x="282" y="-217" type="curve" smooth="yes"/>
      <point x="317" y="-217"/>
      <point x="356" y="-203"/>
      <point x="381" y="-184" type="curve"/>
      <point x="354" y="-122" type="line"/>
      <point x="340" y="-131"/>
      <point x="325" y="-137"/>
      <point x="305" y="-137" type="curve" smooth="yes"/>
      <point x="283" y="-137"/>
      <point x="259" y="-124"/>
      <point x="259" y="-94" type="curve" smooth="yes"/>
      <point x="259" y="-58"/>
      <point x="280" y="-20"/>
      <point x="336" y="-8" type="curve" smooth="yes"/>
      <point x="382" y="2"/>
      <point x="416" y="14"/>
      <point x="452" y="40" type="curve"/>
      <point x="412" y="114" type="line"/>
      <point x="378" y="92"/>
      <point x="340" y="80"/>
      <point x="298" y="80" type="curve" smooth="yes"/>
      <point x="220" y="80"/>
      <point x="168" y="128"/>
      <point x="156" y="210" type="curve"/>
      <point x="466" y="210" type="line"/>
      <point x="470" y="228"/>
      <point x="472" y="246"/>
      <point x="472" y="270" type="curve" smooth="yes"/>
      <point x="472" y="408"/>
      <point x="400" y="504"/>
      <point x="267" y="504" type="curve" smooth="yes"/>
      <point x="152" y="504"/>
      <point x="40" y="406"/>
      <point x="40" y="246" type="curve" smooth="yes"/>
      <point x="40" y="82"/>
      <point x="146" y="-12"/>
      <point x="282" y="-12" type="curve"/>
      <point x="246" y="2" type="line"/>
      <point x="205" y="-24"/>
      <point x="171" y="-69"/>
      <point x="171" y="-120" type="curve" smooth="yes"/>
      <point x="171" y="-186"/>
      <point x="220" y="-217"/>
    </contour>
    <contour>
      <point x="156" y="298" type="line"/>
      <point x="166" y="372"/>
      <point x="214" y="412"/>
      <point x="270" y="412" type="curve" smooth="yes"/>
      <point x="334" y="412"/>
      <point x="368" y="370"/>
      <point x="368" y="298" type="curve"/>
    </contour>
    <contour>
      <point x="266.0" y="514.0" type="move" name="aboveLC"/>
    </contour>
  </outline>
</glyph>
<glyph name="eogonek" format="1">
  <advance width="508"/>
  <outline>
    <contour>
      <point x="363" y="-217" type="curve" smooth="yes"/>
      <point x="398" y="-217"/>
      <point x="437" y="-203"/>
      <point x="462" y="-184" type="curve"/>
      <point x="436" y="-122" type="line"/>
      <point x="421" y="-131"/>
      <point x="406" y="-137"/>
      <point x="387" y="-137" type="curve" smooth="yes"/>
      <point x="364" y="-137"/>
      <point x="341" y="-124"/>
      <point x="341" y="-94" type="curve" smooth="yes"/>
      <point x="341" y="-52"/>
      <point x="370" y="-13"/>
      <point x="452" y="40" type="curve"/>
      <point x="412" y="114" type="line"/>
      <point x="378" y="92"/>
      <point x="340" y="80"/>
      <point x="298" y="80" type="curve" smooth="yes"/>
      <point x="220" y="80"/>
      <point x="168" y="128"/>
      <point x="156" y="210" type="curve"/>
      <point x="466" y="210" type="line"/>
      <point x="470" y="228"/>
      <point x="472" y="246"/>
      <point x="472" y="270" type="curve" smooth="yes"/>
      <point x="472" y="408"/>
      <point x="400" y="504"/>
      <point x="267" y="504" type="curve" smooth="yes"/>
      <point x="152" y="504"/>
      <point x="40" y="406"/>
      <point x="40" y="246" type="curve" smooth="yes"/>
      <point x="40" y="82"/>
      <point x="146" y="-12"/>
      <point x="282" y="-12" type="curve" smooth="yes"/>
      <point x="296" y="-12"/>
      <point x="308" y="-10"/>
      <point x="319" y="-7" type="curve"/>
      <point x="285" y="-33"/>
      <point x="253" y="-70"/>
      <point x="253" y="-120" type="curve" smooth="yes"/>
      <point x="253" y="-186"/>
      <point x="302" y="-217"/>
    </contour>
    <contour>
      <point x="156" y="298" type="line"/>
      <point x="166" y="372"/>
      <point x="214" y="412"/>
      <point x="270" y="412" type="curve" smooth="yes"/>
      <point x="334" y="412"/>
      <point x="368" y="370"/>
      <point x="368" y="298" type="curve"/>
    </contour>
    <contour>
      <point x="266" y="514" type="move" name="aboveLC"/>
    </contour>
  </outline>
</glyph>
<glyph name="eogonek.supd" format="2">
	<advance width="342"/>
	<outline>
		<contour>
			<point x="196" y="226" type="curve" smooth="yes"/>
			<point x="223" y="226"/>
			<point x="247" y="236"/>
			<point x="264" y="250" type="curve"/>
			<point x="242" y="292" type="line"/>
			<point x="233" y="285"/>
			<point x="225" y="282"/>
			<point x="212" y="282" type="curve" smooth="yes"/>
			<point x="197" y="282"/>
			<point x="179" y="292"/>
			<point x="179" y="314" type="curve" smooth="yes"/>
			<point x="179" y="339"/>
			<point x="196" y="367"/>
			<point x="245" y="384" type="curve" smooth="yes"/>
			<point x="268" y="392"/>
			<point x="285" y="400"/>
			<point x="306" y="414" type="curve"/>
			<point x="278" y="463" type="line"/>
			<point x="253" y="449"/>
			<point x="229" y="442"/>
			<point x="197" y="442" type="curve" smooth="yes"/>
			<point x="148" y="442"/>
			<point x="106" y="473"/>
			<point x="106" y="548" type="curve" smooth="yes"/>
			<point x="106" y="622"/>
			<point x="141" y="652"/>
			<point x="182" y="652" type="curve" smooth="yes"/>
			<point x="220" y="652"/>
			<point x="246" y="627"/>
			<point x="246" y="561" type="curve"/>
			<point x="266" y="580" type="line"/>
			<point x="84" y="580" type="line"/>
			<point x="84" y="522" type="line"/>
			<point x="313" y="522" type="line"/>
			<point x="316" y="534"/>
			<point x="318" y="546"/>
			<point x="318" y="562" type="curve" smooth="yes"/>
			<point x="318" y="651"/>
			<point x="271" y="718"/>
			<point x="179" y="718" type="curve" smooth="yes"/>
			<point x="99" y="718"/>
			<point x="26" y="652"/>
			<point x="26" y="548" type="curve" smooth="yes"/>
			<point x="26" y="439"/>
			<point x="98" y="376"/>
			<point x="190" y="376" type="curve"/>
			<point x="168" y="388" type="line"/>
			<point x="135" y="363"/>
			<point x="116" y="335"/>
			<point x="116" y="296" type="curve" smooth="yes"/>
			<point x="116" y="248"/>
			<point x="155" y="226"/>
		</contour>
	</outline>
</glyph>
<glyph name="eogonek.sups" format="1">
  <advance width="342"/>
  <outline>
    <contour>
      <point x="244" y="241" type="curve" smooth="yes"/>
      <point x="270" y="241"/>
      <point x="293" y="251"/>
      <point x="308" y="263" type="curve"/>
      <point x="289" y="306" type="line"/>
      <point x="281" y="301"/>
      <point x="271" y="297"/>
      <point x="259" y="297" type="curve" smooth="yes"/>
      <point x="246" y="297"/>
      <point x="231" y="304"/>
      <point x="231" y="323" type="curve" smooth="yes"/>
      <point x="231" y="350"/>
      <point x="248" y="374"/>
      <point x="306" y="414" type="curve"/>
      <point x="278" y="464" type="line"/>
      <point x="256" y="450"/>
      <point x="228" y="442"/>
      <point x="198" y="442" type="curve" smooth="yes"/>
      <point x="145" y="442"/>
      <point x="105" y="474"/>
      <point x="105" y="547" type="curve" smooth="yes"/>
      <point x="105" y="622"/>
      <point x="140" y="652"/>
      <point x="182" y="652" type="curve" smooth="yes"/>
      <point x="220" y="652"/>
      <point x="246" y="627"/>
      <point x="246" y="561" type="curve"/>
      <point x="266" y="580" type="line"/>
      <point x="84" y="580" type="line"/>
      <point x="84" y="522" type="line"/>
      <point x="313" y="522" type="line"/>
      <point x="316" y="534"/>
      <point x="318" y="546"/>
      <point x="318" y="562" type="curve" smooth="yes"/>
      <point x="318" y="651"/>
      <point x="271" y="718"/>
      <point x="179" y="718" type="curve" smooth="yes"/>
      <point x="99" y="718"/>
      <point x="26" y="652"/>
      <point x="26" y="547" type="curve" smooth="yes"/>
      <point x="26" y="437"/>
      <point x="100" y="376"/>
      <point x="189" y="376" type="curve" smooth="yes"/>
      <point x="201" y="376"/>
      <point x="221" y="378"/>
      <point x="242" y="386" type="curve"/>
      <point x="227" y="395" type="line"/>
      <point x="190" y="369"/>
      <point x="168" y="341"/>
      <point x="168" y="305" type="curve" smooth="yes"/>
      <point x="168" y="262"/>
      <point x="205" y="241"/>
    </contour>
  </outline>
</glyph>
<glyph name="eopenogonek" format="2">
	<advance width="439"/>
	<outline>
		<contour>
			<point x="259" y="-217" type="curve" smooth="yes"/>
			<point x="294" y="-217"/>
			<point x="332" y="-203"/>
			<point x="356" y="-184" type="curve"/>
			<point x="330" y="-123" type="line"/>
			<point x="316" y="-132"/>
			<point x="301" y="-138"/>
			<point x="281" y="-138" type="curve" smooth="yes"/>
			<point x="258" y="-138"/>
			<point x="235" y="-125"/>
			<point x="235" y="-95" type="curve" smooth="yes"/>
			<point x="235" y="-56"/>
			<point x="261" y="-22"/>
			<point x="312" y="-8" type="curve" smooth="yes"/>
			<point x="357" y="4"/>
			<point x="384" y="15"/>
			<point x="420" y="44" type="curve"/>
			<point x="380" y="114" type="line"/>
			<point x="340" y="88"/>
			<point x="302" y="78"/>
			<point x="264" y="78" type="curve" smooth="yes"/>
			<point x="198" y="78"/>
			<point x="156" y="104"/>
			<point x="156" y="146" type="curve" smooth="yes"/>
			<point x="156" y="186"/>
			<point x="189" y="210"/>
			<point x="255" y="210" type="curve" smooth="yes"/>
			<point x="325" y="210" type="line"/>
			<point x="325" y="296" type="line"/>
			<point x="270" y="296" type="line" smooth="yes"/>
			<point x="210" y="296"/>
			<point x="180" y="318"/>
			<point x="180" y="356" type="curve" smooth="yes"/>
			<point x="180" y="392"/>
			<point x="214" y="414"/>
			<point x="262" y="414" type="curve" smooth="yes"/>
			<point x="302" y="414"/>
			<point x="332" y="406"/>
			<point x="366" y="384" type="curve"/>
			<point x="408" y="456" type="line"/>
			<point x="366" y="486"/>
			<point x="314" y="503"/>
			<point x="252" y="503" type="curve" smooth="yes"/>
			<point x="152" y="503"/>
			<point x="66" y="460"/>
			<point x="66" y="368" type="curve" smooth="yes"/>
			<point x="66" y="324"/>
			<point x="94" y="280"/>
			<point x="148" y="262" type="curve"/>
			<point x="148" y="258" type="line"/>
			<point x="88" y="244"/>
			<point x="42" y="204"/>
			<point x="42" y="132" type="curve" smooth="yes"/>
			<point x="42" y="43"/>
			<point x="130" y="-12"/>
			<point x="252" y="-12" type="curve"/>
			<point x="224" y="2" type="line"/>
			<point x="182" y="-24"/>
			<point x="149" y="-70"/>
			<point x="149" y="-120" type="curve" smooth="yes"/>
			<point x="149" y="-186"/>
			<point x="198" y="-217"/>
		</contour>
	</outline>
	<anchor name="aboveLC" x="246" y="514"/>
</glyph>
<glyph name="eopenreversed" format="2">
	<advance width="446"/>
	<outline>
		<contour>
			<point x="201" y="-12" type="curve" smooth="yes"/>
			<point x="309" y="-12"/>
			<point x="404" y="41"/>
			<point x="404" y="132" type="curve" smooth="yes"/>
			<point x="404" y="204"/>
			<point x="357" y="243"/>
			<point x="299" y="258" type="curve"/>
			<point x="299" y="262" type="line"/>
			<point x="352" y="280"/>
			<point x="380" y="324"/>
			<point x="380" y="367" type="curve" smooth="yes"/>
			<point x="380" y="459"/>
			<point x="296" y="503"/>
			<point x="196" y="503" type="curve" smooth="yes"/>
			<point x="136" y="503"/>
			<point x="81" y="486"/>
			<point x="38" y="455" type="curve"/>
			<point x="80" y="384" type="line"/>
			<point x="116" y="407"/>
			<point x="148" y="414"/>
			<point x="187" y="414" type="curve" smooth="yes"/>
			<point x="235" y="414"/>
			<point x="266" y="392"/>
			<point x="266" y="353" type="curve" smooth="yes"/>
			<point x="266" y="316"/>
			<point x="236" y="296"/>
			<point x="176" y="296" type="curve" smooth="yes"/>
			<point x="121" y="296" type="line"/>
			<point x="121" y="210" type="line"/>
			<point x="191" y="210" type="line" smooth="yes"/>
			<point x="257" y="210"/>
			<point x="290" y="188"/>
			<point x="290" y="148" type="curve" smooth="yes"/>
			<point x="290" y="103"/>
			<point x="248" y="77"/>
			<point x="182" y="77" type="curve" smooth="yes"/>
			<point x="144" y="77"/>
			<point x="105" y="87"/>
			<point x="66" y="113" type="curve"/>
			<point x="26" y="44" type="line"/>
			<point x="75" y="3"/>
			<point x="130" y="-12"/>
		</contour>
	</outline>
	<anchor name="aboveLC" x="212" y="514"/>
	<anchor name="belowLC" x="214" y="-22"/>
</glyph>
<glyph name="eopenreversedclosed" format="1">
	<advance width="556"/>
	<outline>
		<contour>
			<point x="287" y="-12" type="curve" smooth="yes"/>
			<point x="414" y="-12"/>
			<point x="510" y="42"/>
			<point x="510" y="138" type="curve" smooth="yes"/>
			<point x="510" y="206"/>
			<point x="462" y="243"/>
			<point x="404" y="258" type="curve"/>
			<point x="404" y="262" type="line"/>
			<point x="458" y="280"/>
			<point x="485" y="324"/>
			<point x="485" y="367" type="curve" smooth="yes"/>
			<point x="485" y="461"/>
			<point x="398" y="503"/>
			<point x="294" y="503" type="curve" smooth="yes"/>
			<point x="161" y="503"/>
			<point x="41" y="408"/>
			<point x="41" y="224" type="curve" smooth="yes"/>
			<point x="41" y="65"/>
			<point x="148" y="-12"/>
		</contour>
		<contour>
			<point x="293" y="77" type="curve" smooth="yes"/>
			<point x="214" y="77"/>
			<point x="159" y="122"/>
			<point x="159" y="230" type="curve" smooth="yes"/>
			<point x="159" y="356"/>
			<point x="216" y="414"/>
			<point x="294" y="414" type="curve" smooth="yes"/>
			<point x="338" y="414"/>
			<point x="372" y="391"/>
			<point x="372" y="352" type="curve" smooth="yes"/>
			<point x="372" y="318"/>
			<point x="345" y="296"/>
			<point x="287" y="296" type="curve" smooth="yes"/>
			<point x="258" y="296" type="line"/>
			<point x="258" y="210" type="line"/>
			<point x="302" y="210" type="line" smooth="yes"/>
			<point x="364" y="210"/>
			<point x="396" y="190"/>
			<point x="396" y="149" type="curve" smooth="yes"/>
			<point x="396" y="106"/>
			<point x="360" y="77"/>
		</contour>
		<contour>
			<point name="aboveLC" x="302" y="514" type="move"/>
		</contour>
		<contour>
			<point name="belowLC" x="282" y="-22" type="move"/>
		</contour>
	</outline>
</glyph>
<glyph name="epsilon" format="1">
	<advance width="460"/>
	<outline>
		<contour>
			<point x="260" y="-12" type="curve" smooth="yes"/>
			<point x="325" y="-12"/>
			<point x="378" y="1"/>
			<point x="440" y="47" type="curve"/>
			<point x="394" y="121" type="line"/>
			<point x="351" y="88"/>
			<point x="310" y="77"/>
			<point x="271" y="77" type="curve" smooth="yes"/>
			<point x="196" y="77"/>
			<point x="154" y="104"/>
			<point x="154" y="149" type="curve" smooth="yes"/>
			<point x="154" y="190"/>
			<point x="186" y="210"/>
			<point x="252" y="210" type="curve" smooth="yes"/>
			<point x="277" y="210"/>
			<point x="304" y="209"/>
			<point x="332" y="207" type="curve"/>
			<point x="332" y="300" type="line"/>
			<point x="308" y="298"/>
			<point x="287" y="296"/>
			<point x="267" y="296" type="curve" smooth="yes"/>
			<point x="205" y="296"/>
			<point x="177" y="316"/>
			<point x="177" y="352" type="curve" smooth="yes"/>
			<point x="177" y="391"/>
			<point x="215" y="414"/>
			<point x="268" y="414" type="curve" smooth="yes"/>
			<point x="309" y="414"/>
			<point x="348" y="401"/>
			<point x="384" y="376" type="curve"/>
			<point x="427" y="451" type="line"/>
			<point x="380" y="484"/>
			<point x="322" y="503"/>
			<point x="263" y="503" type="curve" smooth="yes"/>
			<point x="157" y="503"/>
			<point x="63" y="461"/>
			<point x="63" y="367" type="curve" smooth="yes"/>
			<point x="63" y="324"/>
			<point x="89" y="278"/>
			<point x="139" y="261" type="curve"/>
			<point x="139" y="257" type="line"/>
			<point x="82" y="242"/>
			<point x="41" y="206"/>
			<point x="41" y="138" type="curve" smooth="yes"/>
			<point x="41" y="41"/>
			<point x="136" y="-12"/>
		</contour>
		<contour>
			<point name="aboveLC" x="254" y="514" type="move"/>
		</contour>
	</outline>
</glyph>
<glyph name="ereversed" format="2">
	<advance width="508"/>
	<outline>
		<contour>
			<point x="228" y="-12" type="curve" smooth="yes"/>
			<point x="365" y="-12"/>
			<point x="466" y="83"/>
			<point x="466" y="246" type="curve" smooth="yes"/>
			<point x="466" y="405"/>
			<point x="368" y="504"/>
			<point x="250" y="504" type="curve" smooth="yes"/>
			<point x="116" y="504"/>
			<point x="36" y="407"/>
			<point x="36" y="270" type="curve" smooth="yes"/>
			<point x="36" y="246"/>
			<point x="38" y="228"/>
			<point x="42" y="210" type="curve"/>
			<point x="354" y="210" type="line"/>
			<point x="344" y="127"/>
			<point x="293" y="80"/>
			<point x="213" y="80" type="curve" smooth="yes"/>
			<point x="171" y="80"/>
			<point x="132" y="90"/>
			<point x="96" y="112" type="curve"/>
			<point x="56" y="40" type="line"/>
			<point x="104" y="8"/>
			<point x="166" y="-12"/>
		</contour>
		<contour>
			<point x="139" y="296" type="line"/>
			<point x="139" y="368"/>
			<point x="180" y="412"/>
			<point x="247" y="412" type="curve" smooth="yes"/>
			<point x="307" y="412"/>
			<point x="346" y="372"/>
			<point x="354" y="296" type="curve"/>
		</contour>
	</outline>
	<anchor name="aboveLC" x="250" y="514"/>
	<anchor name="belowLC" x="250" y="-22"/>
	<anchor name="ogonekLC" x="250" y="0"/>
</glyph>
<glyph name="esh" format="1">
	<advance width="263"/>
	<outline>
		<contour>
			<point x="34" y="-206" type="curve" smooth="yes"/>
			<point x="150" y="-206"/>
			<point x="190" y="-129"/>
			<point x="190" y="-25" type="curve" smooth="yes"/>
			<point x="190" y="540" type="line" smooth="yes"/>
			<point x="190" y="597"/>
			<point x="205" y="628"/>
			<point x="256" y="628" type="curve" smooth="yes"/>
			<point x="268" y="628"/>
			<point x="278" y="624"/>
			<point x="288" y="620" type="curve"/>
			<point x="310" y="706" type="line"/>
			<point x="293" y="713"/>
			<point x="271" y="719"/>
			<point x="240" y="719" type="curve" smooth="yes"/>
			<point x="116" y="719"/>
			<point x="74" y="642"/>
			<point x="74" y="538" type="curve" smooth="yes"/>
			<point x="74" y="-27" type="line" smooth="yes"/>
			<point x="74" y="-84"/>
			<point x="62" y="-115"/>
			<point x="18" y="-115" type="curve" smooth="yes"/>
			<point x="3" y="-115"/>
			<point x="-11" y="-111"/>
			<point x="-24" y="-107" type="curve"/>
			<point x="-46" y="-193" type="line"/>
			<point x="-27" y="-200"/>
			<point x="-2" y="-206"/>
		</contour>
		<contour>
			<point name="aboveUC" x="200" y="724" type="move"/>
		</contour>
		<contour>
			<point name="belowLC" x="74" y="-206" type="move"/>
		</contour>
	</outline>
</glyph>
<glyph name="ghe" format="1">
	<advance width="422"/>
	<outline>
		<contour>
			<point x="73" y="0" type="line"/>
			<point x="188" y="0" type="line"/>
			<point x="188" y="400" type="line"/>
			<point x="396" y="400" type="line"/>
			<point x="396" y="491" type="line"/>
			<point x="73" y="491" type="line"/>
		</contour>
	</outline>
</glyph>
<glyph name="ghestroke" format="2">
	<advance width="451"/>
	<outline>
		<contour>
			<point x="24" y="188" type="line"/>
			<point x="345" y="188" type="line"/>
			<point x="345" y="276" type="line"/>
			<point x="102" y="276" type="line"/>
			<point x="24" y="270" type="line"/>
		</contour>
		<component base="ghe" xOffset="29"/>
	</outline>
</glyph>
<glyph name="glottalstop" format="1">
	<advance width="433"/>
	<outline>
		<contour>
			<point x="137" y="0" type="line"/>
			<point x="252" y="0" type="line"/>
			<point x="252" y="283" type="line"/>
			<point x="346" y="346"/>
			<point x="414" y="412"/>
			<point x="414" y="523" type="curve" smooth="yes"/>
			<point x="414" y="651"/>
			<point x="318" y="718"/>
			<point x="201" y="718" type="curve" smooth="yes"/>
			<point x="108" y="718"/>
			<point x="49" y="677"/>
			<point x="2" y="630" type="curve"/>
			<point x="57" y="561" type="line"/>
			<point x="92" y="595"/>
			<point x="133" y="624"/>
			<point x="190" y="624" type="curve" smooth="yes"/>
			<point x="258" y="624"/>
			<point x="298" y="583"/>
			<point x="298" y="516" type="curve" smooth="yes"/>
			<point x="298" y="442"/>
			<point x="252" y="392"/>
			<point x="137" y="326" type="curve"/>
		</contour>
	</outline>
</glyph>
<glyph name="glottalstopreversed" format="2">
	<advance width="434"/>
	<outline>
		<contour>
			<point x="180" y="0" type="line"/>
			<point x="298" y="0" type="line"/>
			<point x="298" y="326" type="line"/>
			<point x="184" y="392"/>
			<point x="137" y="442"/>
			<point x="137" y="514" type="curve" smooth="yes"/>
			<point x="137" y="581"/>
			<point x="179" y="622"/>
			<point x="248" y="622" type="curve" smooth="yes"/>
			<point x="302" y="622"/>
			<point x="342" y="593"/>
			<point x="376" y="559" type="curve"/>
			<point x="432" y="629" type="line"/>
			<point x="386" y="677"/>
			<point x="328" y="718"/>
			<point x="237" y="718" type="curve" smooth="yes"/>
			<point x="117" y="718"/>
			<point x="18" y="651"/>
			<point x="18" y="522" type="curve" smooth="yes"/>
			<point x="18" y="412"/>
			<point x="87" y="345"/>
			<point x="180" y="282" type="curve"/>
		</contour>
	</outline>
	<anchor name="aboveUC" x="215" y="724"/>
	<anchor name="belowLC" x="235" y="-22"/>
</glyph>
<glyph name="glottalstopstroke" format="1">
	<advance width="443"/>
	<outline>
		<contour>
			<point x="33" y="122" type="line"/>
			<point x="372" y="122" type="line"/>
			<point x="372" y="208" type="line"/>
			<point x="127" y="208" type="line"/>
			<point x="33" y="203" type="line"/>
		</contour>
		<component base="glottalstop" xOffset="10"/>
		<contour>
			<point name="aboveUC" x="218" y="724" type="move"/>
		</contour>
		<contour>
			<point name="belowLC" x="198" y="-22" type="move"/>
		</contour>
	</outline>
</glyph>
<glyph name="glottalstopstrokereversed" format="2">
	<advance width="444"/>
	<outline>
		<contour>
			<point x="66" y="122" type="line"/>
			<point x="406" y="122" type="line"/>
			<point x="406" y="208" type="line"/>
			<point x="160" y="208" type="line"/>
			<point x="66" y="203" type="line"/>
		</contour>
		<component base="glottalstopreversed"/>
	</outline>
	<anchor name="aboveUC" x="215" y="724"/>
	<anchor name="belowLC" x="235" y="-22"/>
</glyph>
<glyph name="hbar" format="2">
	<advance width="560"/>
	<outline>
		<contour>
			<point x="72" y="0" type="line"/>
			<point x="190" y="0" type="line"/>
			<point x="190" y="299" type="line"/>
			<point x="230" y="340"/>
			<point x="258" y="360"/>
			<point x="300" y="360" type="curve" smooth="yes"/>
			<point x="353" y="360"/>
			<point x="376" y="330"/>
			<point x="376" y="249" type="curve" smooth="yes"/>
			<point x="376" y="0" type="line"/>
			<point x="494" y="0" type="line"/>
			<point x="494" y="264" type="line" smooth="yes"/>
			<point x="494" y="389"/>
			<point x="446" y="460"/>
			<point x="342" y="460" type="curve" smooth="yes"/>
			<point x="274" y="460"/>
			<point x="226" y="424"/>
			<point x="184" y="384" type="curve"/>
			<point x="190" y="480" type="line"/>
			<point x="190" y="706" type="line"/>
			<point x="72" y="706" type="line"/>
		</contour>
		<contour>
			<point x="2" y="540" type="line"/>
			<point x="364" y="540" type="line"/>
			<point x="364" y="628" type="line"/>
			<point x="79" y="628" type="line"/>
			<point x="2" y="622" type="line"/>
		</contour>
	</outline>
</glyph>
<glyph name="hryvnia" format="2">
	<advance width="514"/>
	<outline>
		<contour>
			<point x="280" y="-12" type="curve" smooth="yes"/>
			<point x="358" y="-12"/>
			<point x="422" y="24"/>
			<point x="468" y="74" type="curve"/>
			<point x="418" y="138" type="line"/>
			<point x="379" y="101"/>
			<point x="335" y="82"/>
			<point x="280" y="82" type="curve" smooth="yes"/>
			<point x="226" y="82"/>
			<point x="192" y="110"/>
			<point x="192" y="156" type="curve" smooth="yes"/>
			<point x="192" y="292"/>
			<point x="426" y="319"/>
			<point x="426" y="483" type="curve" smooth="yes"/>
			<point x="426" y="586"/>
			<point x="353" y="648"/>
			<point x="244" y="648" type="curve" smooth="yes"/>
			<point x="168" y="648"/>
			<point x="116" y="614"/>
			<point x="72" y="568" type="curve"/>
			<point x="130" y="502" type="line"/>
			<point x="162" y="534"/>
			<point x="194" y="554"/>
			<point x="238" y="554" type="curve" smooth="yes"/>
			<point x="286" y="554"/>
			<point x="314" y="526"/>
			<point x="314" y="484" type="curve" smooth="yes"/>
			<point x="314" y="363"/>
			<point x="80" y="341"/>
			<point x="80" y="162" type="curve" smooth="yes"/>
			<point x="80" y="54"/>
			<point x="154" y="-12"/>
		</contour>
		<contour>
			<point x="20" y="348" type="line"/>
			<point x="490" y="348" type="line"/>
			<point x="490" y="416" type="line"/>
			<point x="94" y="416" type="line"/>
			<point x="20" y="411" type="line"/>
		</contour>
		<contour>
			<point x="20" y="220" type="line"/>
			<point x="490" y="220" type="line"/>
			<point x="490" y="288" type="line"/>
			<point x="93" y="288" type="line"/>
			<point x="20" y="283" type="line"/>
		</contour>
	</outline>
</glyph>
<glyph name="interrobang.sc" format="2">
	<advance width="446"/>
	<outline>
		<contour>
			<point x="176" y="214" type="line"/>
			<point x="256" y="214" type="line"/>
			<point x="256" y="300"/>
			<point x="398" y="307"/>
			<point x="398" y="430" type="curve" smooth="yes"/>
			<point x="398" y="505"/>
			<point x="332" y="556"/>
			<point x="222" y="556" type="curve" smooth="yes"/>
			<point x="142" y="556"/>
			<point x="88" y="524"/>
			<point x="44" y="482" type="curve"/>
			<point x="96" y="422" type="line"/>
			<point x="134" y="458"/>
			<point x="170" y="472"/>
			<point x="214" y="472" type="curve" smooth="yes"/>
			<point x="266" y="472"/>
			<point x="296" y="446"/>
			<point x="296" y="410" type="curve" smooth="yes"/>
			<point x="296" y="352"/>
			<point x="249" y="349"/>
			<point x="220" y="291" type="curve"/>
			<point x="230" y="286" type="line"/>
			<point x="246" y="358" type="line"/>
			<point x="248" y="408" type="line"/>
			<point x="158" y="408" type="line"/>
			<point x="164" y="336" type="line"/>
		</contour>
		<contour>
			<point x="216" y="-12" type="curve" smooth="yes"/>
			<point x="258" y="-12"/>
			<point x="291" y="22"/>
			<point x="291" y="67" type="curve" smooth="yes"/>
			<point x="291" y="113"/>
			<point x="258" y="147"/>
			<point x="216" y="147" type="curve" smooth="yes"/>
			<point x="173" y="147"/>
			<point x="140" y="113"/>
			<point x="140" y="67" type="curve" smooth="yes"/>
			<point x="140" y="22"/>
			<point x="173" y="-12"/>
		</contour>
	</outline>
</glyph>
<glyph name="interrobangdown.sc" format="2">
	<advance width="446"/>
	<outline>
		<contour>
			<point x="224" y="-32" type="curve" smooth="yes"/>
			<point x="304" y="-32"/>
			<point x="358" y="0"/>
			<point x="402" y="42" type="curve"/>
			<point x="350" y="102" type="line"/>
			<point x="312" y="66"/>
			<point x="276" y="52"/>
			<point x="232" y="52" type="curve" smooth="yes"/>
			<point x="180" y="52"/>
			<point x="150" y="78"/>
			<point x="150" y="114" type="curve" smooth="yes"/>
			<point x="150" y="172"/>
			<point x="197" y="175"/>
			<point x="226" y="233" type="curve"/>
			<point x="216" y="238" type="line"/>
			<point x="200" y="166" type="line"/>
			<point x="198" y="116" type="line"/>
			<point x="288" y="116" type="line"/>
			<point x="282" y="188" type="line"/>
			<point x="270" y="310" type="line"/>
			<point x="190" y="310" type="line"/>
			<point x="190" y="224"/>
			<point x="48" y="217"/>
			<point x="48" y="94" type="curve" smooth="yes"/>
			<point x="48" y="19"/>
			<point x="114" y="-32"/>
		</contour>
		<contour>
			<point x="230" y="377" type="curve" smooth="yes"/>
			<point x="273" y="377"/>
			<point x="306" y="411"/>
			<point x="306" y="457" type="curve" smooth="yes"/>
			<point x="306" y="502"/>
			<point x="273" y="536"/>
			<point x="230" y="536" type="curve" smooth="yes"/>
			<point x="188" y="536"/>
			<point x="155" y="502"/>
			<point x="155" y="457" type="curve" smooth="yes"/>
			<point x="155" y="411"/>
			<point x="188" y="377"/>
		</contour>
	</outline>
</glyph>
<glyph name="ismallstroke" format="2">
	<advance width="369"/>
	<outline>
		<contour>
			<point x="49" y="0" type="line"/>
			<point x="320" y="0" type="line"/>
			<point x="320" y="92" type="line"/>
			<point x="242" y="92" type="line"/>
			<point x="242" y="400" type="line"/>
			<point x="320" y="400" type="line"/>
			<point x="320" y="491" type="line"/>
			<point x="49" y="491" type="line"/>
			<point x="49" y="400" type="line"/>
			<point x="127" y="400" type="line"/>
			<point x="127" y="92" type="line"/>
			<point x="49" y="92" type="line"/>
		</contour>
		<contour>
			<point x="50" y="210" type="line"/>
			<point x="318" y="210" type="line"/>
			<point x="318" y="298" type="line"/>
			<point x="128" y="298" type="line"/>
			<point x="50" y="293" type="line"/>
		</contour>
	</outline>
	<anchor name="aboveLC" x="186" y="514"/>
	<anchor name="belowLC" x="186" y="-22"/>
	<anchor name="ogonekLC" x="186" y="0"/>
</glyph>
<glyph name="istroke.x" format="2">
	<advance width="320"/>
	<outline>
		<contour>
			<point x="12" y="210" type="line"/>
			<point x="304" y="210" type="line"/>
			<point x="304" y="298" type="line"/>
			<point x="102" y="298" type="line"/>
			<point x="12" y="294" type="line"/>
		</contour>
		<component base="dotlessi" xOffset="29"/>
	</outline>
	<anchor name="aboveLC" x="160" y="514"/>
	<anchor name="belowLC" x="160" y="-22"/>
	<anchor name="ogonekLC" x="160" y="0"/>
</glyph>
<glyph name="l.a" format="2">
	<advance width="263"/>
	<outline>
		<contour>
			<point x="72" y="0" type="line"/>
			<point x="191" y="0" type="line"/>
			<point x="191" y="706" type="line"/>
			<point x="72" y="706" type="line"/>
		</contour>
	</outline>
	<anchor name="aboveUC" x="132" y="724"/>
	<anchor name="belowLC" x="132" y="-22"/>
</glyph>
<glyph name="lambda.latin" format="2">
	<advance width="497"/>
	<outline>
		<contour>
			<point x="14" y="0" type="line"/>
			<point x="128" y="0" type="line"/>
			<point x="212" y="238" type="line" smooth="yes"/>
			<point x="227" y="282"/>
			<point x="240" y="330"/>
			<point x="255" y="377" type="curve"/>
			<point x="259" y="377" type="line"/>
			<point x="271" y="331"/>
			<point x="283" y="283"/>
			<point x="296" y="238" type="curve" smooth="yes"/>
			<point x="367" y="0" type="line"/>
			<point x="487" y="0" type="line"/>
			<point x="300" y="538" type="line"/>
			<point x="259" y="650"/>
			<point x="207" y="718"/>
			<point x="99" y="718" type="curve" smooth="yes"/>
			<point x="72" y="718"/>
			<point x="53" y="714"/>
			<point x="34" y="708" type="curve"/>
			<point x="56" y="616" type="line"/>
			<point x="65" y="619"/>
			<point x="80" y="623"/>
			<point x="91" y="623" type="curve" smooth="yes"/>
			<point x="142" y="623"/>
			<point x="172" y="589"/>
			<point x="188" y="541" type="curve" smooth="yes"/>
			<point x="207" y="485" type="line"/>
		</contour>
	</outline>
	<anchor name="aboveUC" x="205" y="724"/>
	<anchor name="belowLC" x="247" y="-22"/>
</glyph>
<glyph name="lbar.a" format="2">
	<advance width="318"/>
	<outline>
		<contour>
			<point x="10" y="338" type="line"/>
			<point x="302" y="338" type="line"/>
			<point x="302" y="426" type="line"/>
			<point x="102" y="426" type="line"/>
			<point x="10" y="421" type="line"/>
		</contour>
		<component base="l.a" xOffset="28"/>
	</outline>
	<anchor name="aboveUC" x="162" y="726"/>
	<anchor name="belowLC" x="174" y="-22"/>
</glyph>
<glyph name="lbardbl.a" format="2">
	<advance width="318"/>
	<outline>
		<contour>
			<point x="10" y="412" type="line"/>
			<point x="302" y="412" type="line"/>
			<point x="302" y="480" type="line"/>
			<point x="102" y="480" type="line"/>
			<point x="10" y="474" type="line"/>
		</contour>
		<contour>
			<point x="10" y="284" type="line"/>
			<point x="302" y="284" type="line"/>
			<point x="302" y="352" type="line"/>
			<point x="102" y="352" type="line"/>
			<point x="10" y="346" type="line"/>
		</contour>
		<component base="l.a" xOffset="28"/>
	</outline>
	<anchor name="aboveUC" x="162" y="726"/>
	<anchor name="belowLC" x="174" y="-22"/>
</glyph>
<glyph name="lbardbl" format="2">
	<advance width="329"/>
	<outline>
		<contour>
			<point x="10" y="412" type="line"/>
			<point x="302" y="412" type="line"/>
			<point x="302" y="480" type="line"/>
			<point x="102" y="480" type="line"/>
			<point x="10" y="474" type="line"/>
		</contour>
		<contour>
			<point x="10" y="284" type="line"/>
			<point x="302" y="284" type="line"/>
			<point x="302" y="352" type="line"/>
			<point x="102" y="352" type="line"/>
			<point x="10" y="346" type="line"/>
		</contour>
		<component base="l" xOffset="28"/>
	</outline>
	<anchor name="aboveUC" x="162" y="726"/>
	<anchor name="belowLC" x="182" y="-22"/>
</glyph>
<glyph name="lbelt" format="2">
	<advance width="388"/>
	<outline>
		<contour>
			<point x="138" y="294" type="curve" smooth="yes"/>
			<point x="380" y="294" type="line"/>
			<point x="380" y="382" type="line"/>
			<point x="126" y="382" type="line" smooth="yes"/>
			<point x="90" y="382"/>
			<point x="72" y="396"/>
			<point x="72" y="414" type="curve" smooth="yes"/>
			<point x="72" y="432"/>
			<point x="82" y="444"/>
			<point x="102" y="444" type="curve" smooth="yes"/>
			<point x="130" y="444"/>
			<point x="148" y="420"/>
			<point x="148" y="386" type="curve"/>
			<point x="200" y="372" type="line"/>
			<point x="200" y="438"/>
			<point x="162" y="504"/>
			<point x="90" y="504" type="curve" smooth="yes"/>
			<point x="34" y="504"/>
			<point x="-4" y="466"/>
			<point x="-4" y="410" type="curve" smooth="yes"/>
			<point x="-4" y="345"/>
			<point x="39" y="294"/>
		</contour>
		<component base="l.a" xOffset="76"/>
	</outline>
	<anchor name="aboveUC" x="210" y="724"/>
	<anchor name="belowLC" x="210" y="-22"/>
</glyph>
<glyph name="liraturkish" format="2">
	<advance width="513"/>
	<outline>
		<contour>
			<point x="102" y="-12" type="line"/>
			<point x="332" y="-18"/>
			<point x="482" y="72"/>
			<point x="482" y="247" type="curve" smooth="yes"/>
			<point x="482" y="262"/>
			<point x="480" y="280"/>
			<point x="475" y="302" type="curve"/>
			<point x="379" y="278" type="line"/>
			<point x="383" y="262"/>
			<point x="383" y="251"/>
			<point x="383" y="242" type="curve" smooth="yes"/>
			<point x="383" y="155"/>
			<point x="299" y="101"/>
			<point x="218" y="96" type="curve"/>
			<point x="218" y="636" type="line"/>
			<point x="102" y="636" type="line"/>
		</contour>
		<contour>
			<point x="34" y="195" type="line"/>
			<point x="115" y="238" type="line"/>
			<point x="212" y="282" type="line"/>
			<point x="391" y="377" type="line"/>
			<point x="364" y="434" type="line"/>
			<point x="212" y="353" type="line"/>
			<point x="115" y="309" type="line"/>
			<point x="7" y="252" type="line"/>
		</contour>
		<contour>
			<point x="34" y="330" type="line"/>
			<point x="115" y="373" type="line"/>
			<point x="212" y="417" type="line"/>
			<point x="391" y="512" type="line"/>
			<point x="364" y="568" type="line"/>
			<point x="212" y="488" type="line"/>
			<point x="115" y="444" type="line"/>
			<point x="7" y="386" type="line"/>
		</contour>
	</outline>
</glyph>
<glyph name="lslash.a" format="2">
	<advance width="322"/>
	<outline>
		<contour>
			<point x="30" y="286" type="line"/>
			<point x="114" y="326" type="line"/>
			<point x="210" y="370" type="line"/>
			<point x="340" y="426" type="line"/>
			<point x="296" y="512" type="line"/>
			<point x="202" y="468" type="line"/>
			<point x="106" y="424" type="line"/>
			<point x="-14" y="372" type="line"/>
		</contour>
		<component base="l.a" xOffset="29"/>
	</outline>
	<anchor name="aboveUC" x="163" y="724"/>
	<anchor name="belowLC" x="163" y="-22"/>
</glyph>
<glyph name="naira" format="2">
	<advance width="513"/>
	<outline>
		<contour>
			<point x="79" y="0" type="line"/>
			<point x="165" y="0" type="line"/>
			<point x="165" y="289" type="line"/>
			<point x="144" y="544" type="line"/>
			<point x="148" y="544" type="line"/>
			<point x="221" y="296" type="line"/>
			<point x="323" y="0" type="line"/>
			<point x="434" y="0" type="line"/>
			<point x="434" y="636" type="line"/>
			<point x="348" y="636" type="line"/>
			<point x="348" y="347" type="line"/>
			<point x="369" y="92" type="line"/>
			<point x="365" y="92" type="line"/>
			<point x="292" y="341" type="line"/>
			<point x="190" y="636" type="line"/>
			<point x="79" y="636" type="line"/>
		</contour>
		<contour>
			<point x="8" y="346" type="line"/>
			<point x="504" y="346" type="line"/>
			<point x="504" y="414" type="line"/>
			<point x="82" y="414" type="line"/>
			<point x="8" y="409" type="line"/>
		</contour>
		<contour>
			<point x="8" y="218" type="line"/>
			<point x="504" y="218" type="line"/>
			<point x="504" y="286" type="line"/>
			<point x="81" y="286" type="line"/>
			<point x="8" y="281" type="line"/>
		</contour>
	</outline>
</glyph>
<glyph name="nsmall.sups" format="2">
	<advance width="374"/>
	<outline>
		<contour>
			<point x="47" y="385" type="line"/>
			<point x="124" y="385" type="line"/>
			<point x="124" y="492" type="line" smooth="yes"/>
			<point x="124" y="525"/>
			<point x="122" y="566"/>
			<point x="115" y="609" type="curve"/>
			<point x="119" y="609" type="line"/>
			<point x="131" y="585"/>
			<point x="144" y="561"/>
			<point x="156" y="541" type="curve" smooth="yes"/>
			<point x="248" y="385" type="line"/>
			<point x="327" y="385" type="line"/>
			<point x="327" y="710" type="line"/>
			<point x="250" y="710" type="line"/>
			<point x="250" y="603" type="line" smooth="yes"/>
			<point x="250" y="570"/>
			<point x="252" y="530"/>
			<point x="258" y="486" type="curve"/>
			<point x="254" y="486" type="line"/>
			<point x="242" y="511"/>
			<point x="229" y="534"/>
			<point x="218" y="554" type="curve" smooth="yes"/>
			<point x="125" y="710" type="line"/>
			<point x="47" y="710" type="line"/>
		</contour>
	</outline>
</glyph>
<glyph name="numero" format="1">
	<advance width="931"/>
	<outline>
		<contour>
			<point x="94" y="-12" type="curve" smooth="yes"/>
			<point x="163" y="-12"/>
			<point x="192" y="27"/>
			<point x="192" y="103" type="curve" smooth="yes"/>
			<point x="192" y="230" type="line" smooth="yes"/>
			<point x="192" y="311"/>
			<point x="188" y="386"/>
			<point x="176" y="510" type="curve"/>
			<point x="180" y="510" type="line"/>
			<point x="222" y="388" type="line"/>
			<point x="384" y="0" type="line"/>
			<point x="516" y="0" type="line"/>
			<point x="516" y="512" type="line" smooth="yes"/>
			<point x="516" y="546"/>
			<point x="526" y="554"/>
			<point x="553" y="554" type="curve"/>
			<point x="544" y="644" type="line"/>
			<point x="532" y="647"/>
			<point x="527" y="648"/>
			<point x="511" y="648" type="curve" smooth="yes"/>
			<point x="442" y="648"/>
			<point x="413" y="609"/>
			<point x="413" y="533" type="curve" smooth="yes"/>
			<point x="413" y="406" type="line" smooth="yes"/>
			<point x="413" y="325"/>
			<point x="417" y="250"/>
			<point x="429" y="126" type="curve"/>
			<point x="425" y="126" type="line"/>
			<point x="383" y="248" type="line"/>
			<point x="221" y="636" type="line"/>
			<point x="89" y="636" type="line"/>
			<point x="89" y="124" type="line" smooth="yes"/>
			<point x="89" y="91"/>
			<point x="78" y="82"/>
			<point x="52" y="82" type="curve"/>
			<point x="61" y="-8" type="line"/>
			<point x="73" y="-11"/>
			<point x="78" y="-12"/>
		</contour>
		<contour>
			<point x="756" y="272" type="curve" smooth="yes"/>
			<point x="842" y="272"/>
			<point x="916" y="332"/>
			<point x="916" y="436" type="curve" smooth="yes"/>
			<point x="916" y="542"/>
			<point x="842" y="601"/>
			<point x="756" y="601" type="curve" smooth="yes"/>
			<point x="670" y="601"/>
			<point x="596" y="542"/>
			<point x="596" y="436" type="curve" smooth="yes"/>
			<point x="596" y="332"/>
			<point x="670" y="272"/>
		</contour>
		<contour>
			<point x="756" y="345" type="curve" smooth="yes"/>
			<point x="714" y="345"/>
			<point x="688" y="376"/>
			<point x="688" y="436" type="curve" smooth="yes"/>
			<point x="688" y="497"/>
			<point x="714" y="528"/>
			<point x="756" y="528" type="curve" smooth="yes"/>
			<point x="798" y="528"/>
			<point x="824" y="497"/>
			<point x="824" y="436" type="curve" smooth="yes"/>
			<point x="824" y="376"/>
			<point x="798" y="345"/>
		</contour>
		<contour>
			<point x="627" y="132" type="line"/>
			<point x="885" y="132" type="line"/>
			<point x="885" y="210" type="line"/>
			<point x="627" y="210" type="line"/>
		</contour>
	</outline>
</glyph>
<glyph name="obar" format="1">
	<advance width="549"/>
	<outline>
		<contour>
			<point x="274" y="-12" type="curve" smooth="yes"/>
			<point x="399" y="-12"/>
			<point x="508" y="76"/>
			<point x="508" y="245" type="curve" smooth="yes"/>
			<point x="508" y="415"/>
			<point x="399" y="503"/>
			<point x="274" y="503" type="curve" smooth="yes"/>
			<point x="150" y="503"/>
			<point x="41" y="415"/>
			<point x="41" y="245" type="curve" smooth="yes"/>
			<point x="41" y="76"/>
			<point x="150" y="-12"/>
		</contour>
		<contour>
			<point x="274" y="76" type="curve" smooth="yes"/>
			<point x="197" y="76"/>
			<point x="149" y="137"/>
			<point x="149" y="245" type="curve" smooth="yes"/>
			<point x="149" y="353"/>
			<point x="197" y="416"/>
			<point x="274" y="416" type="curve" smooth="yes"/>
			<point x="351" y="416"/>
			<point x="400" y="353"/>
			<point x="400" y="245" type="curve" smooth="yes"/>
			<point x="400" y="137"/>
			<point x="351" y="76"/>
		</contour>
		<contour>
			<point x="127" y="210" type="line"/>
			<point x="418" y="210" type="line"/>
			<point x="418" y="296" type="line"/>
			<point x="127" y="296" type="line"/>
		</contour>
		<contour>
			<point name="aboveLC" x="275" y="514" type="move"/>
		</contour>
		<contour>
			<point name="belowLC" x="275" y="-22" type="move"/>
		</contour>
		<contour>
			<point name="ogonekLC" x="275" y="0" type="move"/>
		</contour>
	</outline>
</glyph>
<glyph name="oe" format="2">
	<advance width="830"/>
	<outline>
		<contour>
			<point x="266" y="-12" type="curve" smooth="yes"/>
			<point x="343" y="-12"/>
			<point x="398" y="24"/>
			<point x="438" y="92" type="curve"/>
			<point x="476" y="26"/>
			<point x="541" y="-12"/>
			<point x="617" y="-12" type="curve" smooth="yes"/>
			<point x="671" y="-12"/>
			<point x="730" y="9"/>
			<point x="775" y="41" type="curve"/>
			<point x="737" y="111" type="line"/>
			<point x="702" y="90"/>
			<point x="664" y="77"/>
			<point x="622" y="77" type="curve" smooth="yes"/>
			<point x="550" y="77"/>
			<point x="494" y="128"/>
			<point x="486" y="210" type="curve"/>
			<point x="789" y="210" type="line"/>
			<point x="791" y="223"/>
			<point x="794" y="244"/>
			<point x="794" y="268" type="curve" smooth="yes"/>
			<point x="794" y="405"/>
			<point x="724" y="503"/>
			<point x="598" y="503" type="curve"/>
			<point x="534" y="503"/>
			<point x="474" y="464"/>
			<point x="436" y="399" type="curve"/>
			<point x="401" y="465"/>
			<point x="341" y="503"/>
			<point x="268" y="503" type="curve" smooth="yes"/>
			<point x="146" y="503"/>
			<point x="41" y="409"/>
			<point x="41" y="245" type="curve" smooth="yes"/>
			<point x="41" y="82"/>
			<point x="144" y="-12"/>
		</contour>
		<contour>
			<point x="268" y="82" type="curve" smooth="yes"/>
			<point x="202" y="82"/>
			<point x="158" y="147"/>
			<point x="158" y="245" type="curve" smooth="yes"/>
			<point x="158" y="344"/>
			<point x="202" y="409"/>
			<point x="268" y="409" type="curve" smooth="yes"/>
			<point x="335" y="409"/>
			<point x="379" y="344"/>
			<point x="379" y="245" type="curve" smooth="yes"/>
			<point x="379" y="147"/>
			<point x="335" y="82"/>
		</contour>
		<contour>
			<point x="486" y="296" type="line"/>
			<point x="496" y="370"/>
			<point x="540" y="414"/>
			<point x="597" y="414" type="curve" smooth="yes"/>
			<point x="660" y="414"/>
			<point x="694" y="368"/>
			<point x="694" y="296" type="curve"/>
		</contour>
	</outline>
	<anchor name="aboveLC" x="438" y="514"/>
	<anchor name="belowLC" x="438" y="-22"/>
</glyph>
<glyph name="oesmall" format="2">
	<advance width="714"/>
	<outline>
		<contour>
			<point x="290" y="-12" type="curve" smooth="yes"/>
			<point x="326" y="-12"/>
			<point x="354" y="-8"/>
			<point x="390" y="0" type="curve"/>
			<point x="690" y="0" type="line"/>
			<point x="690" y="86" type="line"/>
			<point x="464" y="86" type="line"/>
			<point x="464" y="210" type="line"/>
			<point x="646" y="210" type="line"/>
			<point x="646" y="296" type="line"/>
			<point x="464" y="296" type="line"/>
			<point x="464" y="404" type="line"/>
			<point x="680" y="404" type="line"/>
			<point x="680" y="492" type="line"/>
			<point x="390" y="492" type="line"/>
			<point x="353" y="500"/>
			<point x="326" y="504"/>
			<point x="290" y="504" type="curve" smooth="yes"/>
			<point x="160" y="504"/>
			<point x="40" y="416"/>
			<point x="40" y="246" type="curve" smooth="yes"/>
			<point x="40" y="74"/>
			<point x="160" y="-12"/>
		</contour>
		<contour>
			<point x="294" y="82" type="curve" smooth="yes"/>
			<point x="223" y="82"/>
			<point x="162" y="128"/>
			<point x="162" y="246" type="curve" smooth="yes"/>
			<point x="162" y="360"/>
			<point x="223" y="408"/>
			<point x="296" y="408" type="curve" smooth="yes"/>
			<point x="314" y="408"/>
			<point x="332" y="406"/>
			<point x="348" y="400" type="curve"/>
			<point x="348" y="90" type="line"/>
			<point x="332" y="84"/>
			<point x="310" y="82"/>
		</contour>
	</outline>
	<anchor name="aboveLC" x="416" y="514"/>
	<anchor name="belowLC" x="436" y="-22"/>
</glyph>
<glyph name="peso" format="1">
	<advance width="513"/>
	<outline>
		<contour>
			<point x="74" y="0" type="line"/>
			<point x="183" y="0" type="line"/>
			<point x="183" y="228" type="line"/>
			<point x="221" y="228" type="line" smooth="yes"/>
			<point x="344" y="228"/>
			<point x="444" y="294"/>
			<point x="444" y="433" type="curve" smooth="yes"/>
			<point x="444" y="583"/>
			<point x="347" y="636"/>
			<point x="221" y="636" type="curve" smooth="yes"/>
			<point x="74" y="636" type="line"/>
		</contour>
		<contour>
			<point x="183" y="303" type="line"/>
			<point x="183" y="562" type="line"/>
			<point x="212" y="562" type="line" smooth="yes"/>
			<point x="292" y="562"/>
			<point x="336" y="525"/>
			<point x="336" y="433" type="curve" smooth="yes"/>
			<point x="336" y="350"/>
			<point x="292" y="303"/>
			<point x="212" y="303" type="curve" smooth="yes"/>
		</contour>
		<contour>
			<point x="8" y="342" type="line"/>
			<point x="504" y="342" type="line"/>
			<point x="504" y="410" type="line"/>
			<point x="81" y="410" type="line"/>
			<point x="8" y="405" type="line"/>
		</contour>
		<contour>
			<point x="8" y="460" type="line"/>
			<point x="504" y="460" type="line"/>
			<point x="504" y="528" type="line"/>
			<point x="82" y="528" type="line"/>
			<point x="8" y="523" type="line"/>
		</contour>
	</outline>
</glyph>
<glyph name="rsmall" format="2">
	<advance width="516"/>
	<outline>
		<contour>
			<point x="72" y="0" type="line"/>
			<point x="190" y="0" type="line"/>
			<point x="190" y="176" type="line"/>
			<point x="264" y="176" type="line"/>
			<point x="357" y="176"/>
			<point x="458" y="220"/>
			<point x="458" y="336" type="curve" smooth="yes"/>
			<point x="458" y="452"/>
			<point x="372" y="491"/>
			<point x="262" y="491" type="curve" smooth="yes"/>
			<point x="72" y="491" type="line"/>
		</contour>
		<contour>
			<point x="190" y="260" type="line"/>
			<point x="190" y="402" type="line"/>
			<point x="247" y="402" type="line" smooth="yes"/>
			<point x="308" y="402"/>
			<point x="342" y="380"/>
			<point x="342" y="333" type="curve" smooth="yes"/>
			<point x="342" y="288"/>
			<point x="308" y="260"/>
			<point x="247" y="260" type="curve" smooth="yes"/>
		</contour>
		<contour>
			<point x="362" y="0" type="line"/>
			<point x="493" y="0" type="line"/>
			<point x="341" y="237" type="line"/>
			<point x="244" y="204" type="line"/>
		</contour>
	</outline>
	<anchor name="aboveLC" x="262" y="514"/>
	<anchor name="belowLC" x="282" y="-22"/>
</glyph>
<glyph name="rsmallinverted" format="2">
	<advance width="516"/>
	<outline>
		<contour>
			<point x="262" y="0" type="line" smooth="yes"/>
			<point x="372" y="0"/>
			<point x="458" y="40"/>
			<point x="458" y="156" type="curve" smooth="yes"/>
			<point x="458" y="276"/>
			<point x="357" y="322"/>
			<point x="264" y="322" type="curve"/>
			<point x="192" y="322" type="line"/>
			<point x="192" y="492" type="line"/>
			<point x="72" y="492" type="line"/>
			<point x="72" y="0" type="line"/>
		</contour>
		<contour>
			<point x="247" y="89" type="curve" smooth="yes"/>
			<point x="192" y="89" type="line"/>
			<point x="192" y="236" type="line"/>
			<point x="247" y="236" type="line" smooth="yes"/>
			<point x="308" y="236"/>
			<point x="342" y="206"/>
			<point x="342" y="160" type="curve" smooth="yes"/>
			<point x="342" y="112"/>
			<point x="308" y="89"/>
		</contour>
		<contour>
			<point x="341" y="256" type="line"/>
			<point x="493" y="492" type="line"/>
			<point x="362" y="492" type="line"/>
			<point x="244" y="289" type="line"/>
		</contour>
	</outline>
	<anchor name="aboveLC" x="285" y="514"/>
	<anchor name="belowLC" x="262" y="-22"/>
</glyph>
<glyph name="ruble" format="1">
	<advance width="513"/>
	<outline>
		<contour>
			<point x="114" y="0" type="line"/>
			<point x="223" y="0" type="line"/>
			<point x="223" y="272" type="line"/>
			<point x="259" y="272" type="line" smooth="yes"/>
			<point x="381" y="272"/>
			<point x="484" y="324"/>
			<point x="484" y="458" type="curve" smooth="yes"/>
			<point x="484" y="584"/>
			<point x="385" y="636"/>
			<point x="259" y="636" type="curve" smooth="yes"/>
			<point x="114" y="636" type="line"/>
		</contour>
		<contour>
			<point x="223" y="340" type="line"/>
			<point x="223" y="562" type="line"/>
			<point x="252" y="562" type="line" smooth="yes"/>
			<point x="330" y="562"/>
			<point x="376" y="530"/>
			<point x="376" y="452" type="curve" smooth="yes"/>
			<point x="376" y="380"/>
			<point x="330" y="340"/>
			<point x="252" y="340" type="curve" smooth="yes"/>
		</contour>
		<contour>
			<point x="46" y="144" type="line"/>
			<point x="422" y="144" type="line"/>
			<point x="422" y="212" type="line"/>
			<point x="125" y="212" type="line"/>
			<point x="46" y="206" type="line"/>
		</contour>
		<contour>
			<point x="46" y="272" type="line"/>
			<point x="166" y="272" type="line"/>
			<point x="166" y="340" type="line"/>
			<point x="125" y="340" type="line"/>
			<point x="46" y="334" type="line"/>
		</contour>
	</outline>
</glyph>
<glyph name="t" format="2">
	<advance width="361"/>
	<outline>
		<contour>
			<point x="246" y="-12" type="curve" smooth="yes"/>
			<point x="285" y="-12"/>
			<point x="319" y="-3"/>
			<point x="346" y="6" type="curve"/>
			<point x="326" y="91" type="line"/>
			<point x="312" y="85"/>
			<point x="292" y="80"/>
			<point x="275" y="80" type="curve" smooth="yes"/>
			<point x="228" y="80"/>
			<point x="206" y="108"/>
			<point x="206" y="166" type="curve" smooth="yes"/>
			<point x="206" y="400" type="line"/>
			<point x="331" y="400" type="line"/>
			<point x="331" y="491" type="line"/>
			<point x="206" y="491" type="line"/>
			<point x="206" y="625" type="line"/>
			<point x="110" y="625" type="line"/>
			<point x="96" y="491" type="line"/>
			<point x="20" y="486" type="line"/>
			<point x="20" y="400" type="line"/>
			<point x="90" y="400" type="line"/>
			<point x="90" y="166" type="line" smooth="yes"/>
			<point x="90" y="60"/>
			<point x="132" y="-12"/>
		</contour>
	</outline>
	<anchor name="aboveLC" x="161" y="651"/>
	<anchor name="baseLC" x="225" y="0"/>
	<anchor name="belowLC" x="225" y="-22"/>
</glyph>
<glyph name="tbar" format="2">
	<advance width="362"/>
	<outline>
		<contour>
			<point x="20" y="206" type="line"/>
			<point x="331" y="206" type="line"/>
			<point x="331" y="294" type="line"/>
			<point x="96" y="294" type="line"/>
			<point x="20" y="289" type="line"/>
		</contour>
		<component base="t"/>
	</outline>
	<anchor name="aboveLC" x="160" y="652"/>
	<anchor name="belowLC" x="225" y="-22"/>
</glyph>
<glyph name="tenge" format="2">
	<advance width="514"/>
	<outline>
		<contour>
			<point x="198" y="0" type="line"/>
			<point x="316" y="0" type="line"/>
			<point x="316" y="440" type="line"/>
			<point x="480" y="440" type="line"/>
			<point x="480" y="508" type="line"/>
			<point x="106" y="508" type="line"/>
			<point x="34" y="503" type="line"/>
			<point x="34" y="440" type="line"/>
			<point x="198" y="440" type="line"/>
		</contour>
		<contour>
			<point x="34" y="568" type="line"/>
			<point x="480" y="568" type="line"/>
			<point x="480" y="636" type="line"/>
			<point x="34" y="636" type="line"/>
		</contour>
	</outline>
</glyph>
<glyph name="ubar" format="1">
	<advance width="620"/>
	<outline>
		<contour>
			<point x="12" y="252" type="line"/>
			<point x="604" y="252" type="line"/>
			<point x="604" y="338" type="line"/>
			<point x="102" y="338" type="line"/>
			<point x="12" y="333" type="line"/>
		</contour>
		<component base="u" xOffset="35"/>
		<contour>
			<point name="aboveLC" x="312" y="514" type="move"/>
		</contour>
		<contour>
			<point name="baseLC" x="288" y="0" type="move"/>
		</contour>
		<contour>
			<point name="belowLC" x="310" y="-22" type="move"/>
		</contour>
		<contour>
			<point name="ogonekLC" x="438" y="0" type="move"/>
		</contour>
	</outline>
</glyph>
<glyph name="upsilonlatin" format="2">
	<advance width="557"/>
	<outline>
		<contour>
			<point x="278" y="-12" type="curve"/>
			<point x="425" y="-12"/>
			<point x="509" y="95"/>
			<point x="509" y="205" type="curve" smooth="yes"/>
			<point x="509" y="294"/>
			<point x="469" y="359"/>
			<point x="430" y="397" type="curve"/>
			<point x="430" y="400" type="line"/>
			<point x="520" y="400" type="line"/>
			<point x="520" y="491" type="line"/>
			<point x="320" y="491" type="line"/>
			<point x="320" y="417" type="line"/>
			<point x="365" y="371"/>
			<point x="393" y="316"/>
			<point x="393" y="230" type="curve" smooth="yes"/>
			<point x="393" y="149"/>
			<point x="355" y="82"/>
			<point x="278" y="82" type="curve"/>
			<point x="202" y="82"/>
			<point x="164" y="149"/>
			<point x="164" y="230" type="curve" smooth="yes"/>
			<point x="164" y="316"/>
			<point x="192" y="371"/>
			<point x="237" y="417" type="curve"/>
			<point x="237" y="491" type="line"/>
			<point x="37" y="491" type="line"/>
			<point x="37" y="400" type="line"/>
			<point x="126" y="400" type="line"/>
			<point x="126" y="397" type="line"/>
			<point x="88" y="359"/>
			<point x="48" y="294"/>
			<point x="48" y="205" type="curve" smooth="yes"/>
			<point x="48" y="95"/>
			<point x="131" y="-12"/>
		</contour>
	</outline>
	<anchor name="aboveLC" x="280" y="514"/>
	<anchor name="belowLC" x="280" y="-22"/>
	<anchor name="ogonekLC" x="280" y="0"/>
</glyph>
<glyph name="ustraight" format="1">
	<advance width="495"/>
	<outline>
		<contour>
			<point x="193" y="-194" type="line"/>
			<point x="308" y="-194" type="line"/>
			<point x="308" y="0" type="line"/>
			<point x="483" y="491" type="line"/>
			<point x="372" y="491" type="line"/>
			<point x="295" y="249" type="line"/>
			<point x="282" y="200"/>
			<point x="266" y="153"/>
			<point x="252" y="105" type="curve"/>
			<point x="248" y="105" type="line"/>
			<point x="235" y="153"/>
			<point x="219" y="200"/>
			<point x="206" y="249" type="curve"/>
			<point x="129" y="491" type="line"/>
			<point x="12" y="491" type="line"/>
			<point x="193" y="0" type="line"/>
		</contour>
		<contour>
			<point name="aboveLC" x="251" y="514" type="move"/>
		</contour>
	</outline>
</glyph>
<glyph name="ustraightstroke" format="1">
	<advance width="495"/>
	<outline>
		<contour>
			<point x="48" y="0" type="line"/>
			<point x="447" y="0" type="line"/>
			<point x="447" y="86" type="line"/>
			<point x="125" y="86" type="line"/>
			<point x="48" y="81" type="line"/>
		</contour>
		<component base="ustraight"/>
		<contour>
			<point name="aboveLC" x="251" y="514" type="move"/>
		</contour>
	</outline>
</glyph>
<glyph name="ve" format="2">
	<advance width="520"/>
	<outline>
		<contour>
			<point x="72" y="0" type="line"/>
			<point x="283" y="0" type="line" smooth="yes"/>
			<point x="395" y="0"/>
			<point x="482" y="42"/>
			<point x="482" y="140" type="curve" smooth="yes"/>
			<point x="482" y="210"/>
			<point x="438" y="244"/>
			<point x="380" y="257" type="curve"/>
			<point x="380" y="261" type="line"/>
			<point x="438" y="276"/>
			<point x="464" y="317"/>
			<point x="464" y="364" type="curve" smooth="yes"/>
			<point x="464" y="458"/>
			<point x="384" y="492"/>
			<point x="274" y="492" type="curve" smooth="yes"/>
			<point x="72" y="492" type="line"/>
		</contour>
		<contour>
			<point x="188" y="296" type="line"/>
			<point x="188" y="408" type="line"/>
			<point x="264" y="408" type="line" smooth="yes"/>
			<point x="326" y="408"/>
			<point x="350" y="387"/>
			<point x="350" y="352" type="curve" smooth="yes"/>
			<point x="350" y="318"/>
			<point x="325" y="296"/>
			<point x="262" y="296" type="curve" smooth="yes"/>
		</contour>
		<contour>
			<point x="188" y="84" type="line"/>
			<point x="188" y="210" type="line"/>
			<point x="272" y="210" type="line" smooth="yes"/>
			<point x="338" y="210"/>
			<point x="368" y="186"/>
			<point x="368" y="148" type="curve" smooth="yes"/>
			<point x="368" y="108"/>
			<point x="338" y="84"/>
			<point x="274" y="84" type="curve" smooth="yes"/>
		</contour>
	</outline>
</glyph>
<glyph name="yen" format="2">
	<advance width="514"/>
	<outline>
		<contour>
			<point x="198" y="0" type="line"/>
			<point x="316" y="0" type="line"/>
			<point x="316" y="144" type="line"/>
			<point x="474" y="144" type="line"/>
			<point x="474" y="212" type="line"/>
			<point x="316" y="212" type="line"/>
			<point x="316" y="270" type="line"/>
			<point x="474" y="270" type="line"/>
			<point x="474" y="338" type="line"/>
			<point x="346" y="338" type="line"/>
			<point x="498" y="636" type="line"/>
			<point x="378" y="636" type="line"/>
			<point x="314" y="485" type="line" smooth="yes"/>
			<point x="295" y="440"/>
			<point x="279" y="402"/>
			<point x="260" y="352" type="curve"/>
			<point x="256" y="352" type="line"/>
			<point x="236" y="402"/>
			<point x="222" y="440"/>
			<point x="203" y="485" type="curve" smooth="yes"/>
			<point x="139" y="636" type="line"/>
			<point x="16" y="636" type="line"/>
			<point x="168" y="338" type="line"/>
			<point x="40" y="338" type="line"/>
			<point x="40" y="270" type="line"/>
			<point x="198" y="270" type="line"/>
			<point x="198" y="212" type="line"/>
			<point x="40" y="212" type="line"/>
			<point x="40" y="144" type="line"/>
			<point x="198" y="144" type="line"/>
		</contour>
	</outline>
</glyph>
<glyph name="yi.a" format="2">
	<advance width="278"/>
	<outline>
		<contour>
			<point x="70" y="578" type="curve" smooth="yes"/>
			<point x="102" y="578"/>
			<point x="126" y="604"/>
			<point x="126" y="638" type="curve" smooth="yes"/>
			<point x="126" y="672"/>
			<point x="102" y="698"/>
			<point x="70" y="698" type="curve" smooth="yes"/>
			<point x="36" y="698"/>
			<point x="12" y="672"/>
			<point x="12" y="638" type="curve" smooth="yes"/>
			<point x="12" y="604"/>
			<point x="36" y="578"/>
		</contour>
		<contour>
			<point x="209" y="578" type="curve" smooth="yes"/>
			<point x="241" y="578"/>
			<point x="266" y="604"/>
			<point x="266" y="638" type="curve" smooth="yes"/>
			<point x="266" y="672"/>
			<point x="241" y="698"/>
			<point x="209" y="698" type="curve" smooth="yes"/>
			<point x="177" y="698"/>
			<point x="152" y="672"/>
			<point x="152" y="638" type="curve" smooth="yes"/>
			<point x="152" y="604"/>
			<point x="177" y="578"/>
		</contour>
		<component base="dotlessi" xOffset="8"/>
	</outline>
</glyph>
<glyph name="zcurl" format="1">
	<advance width="489"/>
	<outline>
		<contour>
			<point x="280" y="-82" type="line"/>
			<point x="316" y="92"/>
			<point x="358" y="162"/>
			<point x="398" y="162" type="curve" smooth="yes"/>
			<point x="414" y="162"/>
			<point x="424" y="152"/>
			<point x="424" y="136" type="curve" smooth="yes"/>
			<point x="424" y="110"/>
			<point x="400" y="86"/>
			<point x="355" y="86" type="curve" smooth="yes"/>
			<point x="293" y="86"/>
			<point x="234" y="87"/>
			<point x="172" y="92" type="curve"/>
			<point x="403" y="430" type="line"/>
			<point x="403" y="491" type="line"/>
			<point x="60" y="491" type="line"/>
			<point x="60" y="400" type="line"/>
			<point x="266" y="400" type="line"/>
			<point x="34" y="62" type="line"/>
			<point x="34" y="0" type="line"/>
			<point x="122" y="-5"/>
			<point x="237" y="-6"/>
			<point x="324" y="-6" type="curve" smooth="yes"/>
			<point x="446" y="-6"/>
			<point x="500" y="58"/>
			<point x="500" y="136" type="curve" smooth="yes"/>
			<point x="500" y="197"/>
			<point x="462" y="234"/>
			<point x="402" y="234" type="curve" smooth="yes"/>
			<point x="294" y="234"/>
			<point x="240" y="114"/>
			<point x="200" y="-70" type="curve"/>
		</contour>
	</outline>
</glyph>
<glyph name="zero.0ps" format="2">
	<advance width="559"/>
	<outline>
		<contour>
			<point x="280" y="-12" type="curve" smooth="yes"/>
			<point x="418" y="-12"/>
			<point x="506" y="111"/>
			<point x="506" y="322" type="curve" smooth="yes"/>
			<point x="506" y="530"/>
			<point x="418" y="648"/>
			<point x="280" y="648" type="curve" smooth="yes"/>
			<point x="142" y="648"/>
			<point x="54" y="530"/>
			<point x="54" y="322" type="curve" smooth="yes"/>
			<point x="54" y="111"/>
			<point x="142" y="-12"/>
		</contour>
		<contour>
			<point x="280" y="74" type="curve" smooth="yes"/>
			<point x="210" y="74"/>
			<point x="158" y="144"/>
			<point x="158" y="322" type="curve" smooth="yes"/>
			<point x="158" y="499"/>
			<point x="210" y="562"/>
			<point x="280" y="562" type="curve" smooth="yes"/>
			<point x="349" y="562"/>
			<point x="402" y="499"/>
			<point x="402" y="322" type="curve" smooth="yes"/>
			<point x="402" y="144"/>
			<point x="349" y="74"/>
		</contour>
		<contour>
			<point x="383" y="114" type="line"/>
			<point x="461" y="144" type="line"/>
			<point x="176" y="526" type="line"/>
			<point x="98" y="496" type="line"/>
		</contour>
	</outline>
</glyph>
